<svg width="90" height="40" viewBox="0 0 90 40" fill="none" xmlns="http://www.w3.org/2000/svg">
<path d="M0 16C0 8.45753 0 4.68629 2.34315 2.34315C4.68629 0 8.45753 0 16 0H74C81.5425 0 85.3137 0 87.6569 2.34315C90 4.68629 90 8.45753 90 16V24C90 31.5425 90 35.3137 87.6569 37.6569C85.3137 40 81.5425 40 74 40H16C8.45753 40 4.68629 40 2.34315 37.6569C0 35.3137 0 31.5425 0 24V16Z" fill="white"/>
<path d="M21.4041 18.1477H19.6314C19.5632 17.7689 19.4363 17.4356 19.2507 17.1477C19.0651 16.8598 18.8378 16.6155 18.5689 16.4148C18.3 16.214 17.9988 16.0625 17.6655 15.9602C17.3359 15.858 16.9856 15.8068 16.6143 15.8068C15.9439 15.8068 15.3435 15.9754 14.8132 16.3125C14.2867 16.6496 13.87 17.1439 13.5632 17.7955C13.2602 18.447 13.1087 19.2424 13.1087 20.1818C13.1087 21.1288 13.2602 21.928 13.5632 22.5795C13.87 23.2311 14.2886 23.7235 14.8189 24.0568C15.3492 24.3902 15.9458 24.5568 16.6087 24.5568C16.9761 24.5568 17.3246 24.5076 17.6541 24.4091C17.9875 24.3068 18.2886 24.1572 18.5575 23.9602C18.8265 23.7633 19.0537 23.5227 19.2393 23.2386C19.4287 22.9508 19.5594 22.6212 19.6314 22.25L21.4041 22.2557C21.3094 22.8277 21.1257 23.3542 20.853 23.8352C20.584 24.3125 20.2375 24.7254 19.8132 25.0739C19.3928 25.4186 18.9117 25.6856 18.37 25.875C17.8284 26.0644 17.2375 26.1591 16.5973 26.1591C15.5897 26.1591 14.692 25.9205 13.9041 25.4432C13.1162 24.9621 12.495 24.2746 12.0405 23.3807C11.5897 22.4867 11.3643 21.4205 11.3643 20.1818C11.3643 18.9394 11.5916 17.8731 12.0462 16.983C12.5007 16.089 13.1219 15.4034 13.9098 14.9261C14.6977 14.4451 15.5935 14.2045 16.5973 14.2045C17.2147 14.2045 17.7905 14.2936 18.3246 14.4716C18.8625 14.6458 19.3454 14.9034 19.7734 15.2443C20.2015 15.5814 20.5556 15.9943 20.8359 16.483C21.1162 16.9678 21.3056 17.5227 21.4041 18.1477ZM25.9084 26.1932C25.3554 26.1932 24.8554 26.0909 24.4084 25.8864C23.9614 25.678 23.6072 25.3769 23.3459 24.983C23.0883 24.589 22.9595 24.1061 22.9595 23.5341C22.9595 23.0417 23.0542 22.6364 23.2436 22.3182C23.433 22 23.6887 21.7481 24.0107 21.5625C24.3326 21.3769 24.6925 21.2367 25.0902 21.142C25.4879 21.0473 25.8932 20.9754 26.3061 20.9261C26.8288 20.8655 27.2531 20.8163 27.5788 20.7784C27.9046 20.7367 28.1413 20.6705 28.2891 20.5795C28.4368 20.4886 28.5107 20.3409 28.5107 20.1364V20.0966C28.5107 19.6004 28.3705 19.2159 28.0902 18.9432C27.8137 18.6705 27.4008 18.5341 26.8516 18.5341C26.2796 18.5341 25.8288 18.661 25.4993 18.9148C25.1735 19.1648 24.9482 19.4432 24.8232 19.75L23.2266 19.3864C23.416 18.8561 23.6925 18.428 24.0561 18.1023C24.4235 17.7727 24.8459 17.5341 25.3232 17.3864C25.8004 17.2348 26.3023 17.1591 26.8288 17.1591C27.1773 17.1591 27.5466 17.2008 27.9368 17.2841C28.3307 17.3636 28.6982 17.5114 29.0391 17.7273C29.3838 17.9432 29.666 18.2519 29.8857 18.6534C30.1054 19.0511 30.2152 19.5682 30.2152 20.2045V26H28.5561V24.8068H28.4879C28.3781 25.0265 28.2133 25.2424 27.9936 25.4545C27.7739 25.6667 27.4917 25.8428 27.147 25.983C26.8023 26.1231 26.3894 26.1932 25.9084 26.1932ZM26.2777 24.8295C26.7474 24.8295 27.1489 24.7367 27.4822 24.5511C27.8194 24.3655 28.075 24.1231 28.2493 23.8239C28.4273 23.5208 28.5163 23.197 28.5163 22.8523V21.7273C28.4557 21.7879 28.3383 21.8447 28.1641 21.8977C27.9936 21.947 27.7985 21.9905 27.5788 22.0284C27.3591 22.0625 27.1451 22.0947 26.9368 22.125C26.7285 22.1515 26.5542 22.1742 26.4141 22.1932C26.0845 22.2348 25.7834 22.3049 25.5107 22.4034C25.2417 22.5019 25.0258 22.6439 24.8629 22.8295C24.7038 23.0114 24.6243 23.2538 24.6243 23.5568C24.6243 23.9773 24.7796 24.2955 25.0902 24.5114C25.4008 24.7235 25.7966 24.8295 26.2777 24.8295ZM34.1768 14.3636V26H32.478V14.3636H34.1768ZM40.2237 26.1761C39.3639 26.1761 38.6233 25.9924 38.0021 25.625C37.3847 25.2538 36.9074 24.733 36.5703 24.0625C36.237 23.3883 36.0703 22.5985 36.0703 21.6932C36.0703 20.7992 36.237 20.0114 36.5703 19.3295C36.9074 18.6477 37.3771 18.1155 37.9794 17.733C38.5855 17.3504 39.2938 17.1591 40.1044 17.1591C40.5968 17.1591 41.0741 17.2405 41.5362 17.4034C41.9983 17.5663 42.4131 17.822 42.7805 18.1705C43.148 18.5189 43.4377 18.9716 43.6499 19.5284C43.862 20.0814 43.968 20.7538 43.968 21.5455V22.1477H37.0305V20.875H42.3033C42.3033 20.428 42.2124 20.0322 42.0305 19.6875C41.8487 19.339 41.593 19.0644 41.2635 18.8636C40.9377 18.6629 40.5552 18.5625 40.1158 18.5625C39.6385 18.5625 39.2218 18.6799 38.8658 18.9148C38.5135 19.1458 38.2408 19.4489 38.0476 19.8239C37.8582 20.1951 37.7635 20.5985 37.7635 21.0341V22.0284C37.7635 22.6117 37.8658 23.108 38.0703 23.517C38.2786 23.9261 38.5684 24.2386 38.9396 24.4545C39.3108 24.6667 39.7446 24.7727 40.2408 24.7727C40.5627 24.7727 40.8563 24.7273 41.1214 24.6364C41.3866 24.5417 41.6158 24.4015 41.8089 24.2159C42.0021 24.0303 42.1499 23.8011 42.2521 23.5284L43.8601 23.8182C43.7313 24.2917 43.5002 24.7064 43.1669 25.0625C42.8374 25.4148 42.4226 25.6894 41.9226 25.8864C41.4264 26.0795 40.8601 26.1761 40.2237 26.1761ZM47.5518 20.8182V26H45.853V17.2727H47.4837V18.6932H47.5916C47.7924 18.2311 48.1068 17.8598 48.5348 17.5795C48.9666 17.2992 49.5102 17.1591 50.1655 17.1591C50.7602 17.1591 51.281 17.2841 51.728 17.5341C52.175 17.7803 52.5215 18.1477 52.7678 18.6364C53.014 19.125 53.1371 19.7292 53.1371 20.4489V26H51.4382V20.6534C51.4382 20.0208 51.2734 19.5265 50.9439 19.1705C50.6143 18.8106 50.1617 18.6307 49.5859 18.6307C49.192 18.6307 48.8416 18.7159 48.5348 18.8864C48.2318 19.0568 47.9912 19.3068 47.8132 19.6364C47.639 19.9621 47.5518 20.3561 47.5518 20.8182ZM58.6825 26.1705C57.978 26.1705 57.3492 25.9905 56.7962 25.6307C56.2469 25.267 55.8151 24.75 55.5007 24.0795C55.1901 23.4053 55.0348 22.5966 55.0348 21.6534C55.0348 20.7102 55.192 19.9034 55.5064 19.233C55.8246 18.5625 56.2602 18.0492 56.8132 17.6932C57.3662 17.3371 57.9931 17.1591 58.6939 17.1591C59.2356 17.1591 59.6712 17.25 60.0007 17.4318C60.334 17.6098 60.5916 17.8182 60.7734 18.0568C60.959 18.2955 61.103 18.5057 61.2053 18.6875H61.3075V14.3636H63.0064V26H61.3473V24.642H61.2053C61.103 24.8277 60.9553 25.0398 60.7621 25.2784C60.5727 25.517 60.3113 25.7254 59.978 25.9034C59.6446 26.0814 59.2128 26.1705 58.6825 26.1705ZM59.0575 24.7216C59.5462 24.7216 59.959 24.5928 60.2962 24.3352C60.6371 24.0739 60.8946 23.7121 61.0689 23.25C61.2469 22.7879 61.3359 22.25 61.3359 21.6364C61.3359 21.0303 61.2488 20.5 61.0746 20.0455C60.9003 19.5909 60.6446 19.2367 60.3075 18.983C59.9704 18.7292 59.5537 18.6023 59.0575 18.6023C58.5462 18.6023 58.12 18.7348 57.7791 19C57.4382 19.2652 57.1806 19.6269 57.0064 20.0852C56.8359 20.5436 56.7507 21.0606 56.7507 21.6364C56.7507 22.2197 56.8378 22.7443 57.0121 23.2102C57.1863 23.6761 57.4439 24.0455 57.7848 24.3182C58.1295 24.5871 58.5537 24.7216 59.0575 24.7216ZM67.9709 26.1932C67.4179 26.1932 66.9179 26.0909 66.4709 25.8864C66.0239 25.678 65.6697 25.3769 65.4084 24.983C65.1508 24.589 65.022 24.1061 65.022 23.5341C65.022 23.0417 65.1167 22.6364 65.3061 22.3182C65.4955 22 65.7512 21.7481 66.0732 21.5625C66.3951 21.3769 66.755 21.2367 67.1527 21.142C67.5504 21.0473 67.9557 20.9754 68.3686 20.9261C68.8913 20.8655 69.3156 20.8163 69.6413 20.7784C69.9671 20.7367 70.2038 20.6705 70.3516 20.5795C70.4993 20.4886 70.5732 20.3409 70.5732 20.1364V20.0966C70.5732 19.6004 70.433 19.2159 70.1527 18.9432C69.8762 18.6705 69.4633 18.5341 68.9141 18.5341C68.3421 18.5341 67.8913 18.661 67.5618 18.9148C67.236 19.1648 67.0107 19.4432 66.8857 19.75L65.2891 19.3864C65.4785 18.8561 65.755 18.428 66.1186 18.1023C66.486 17.7727 66.9084 17.5341 67.3857 17.3864C67.8629 17.2348 68.3648 17.1591 68.8913 17.1591C69.2398 17.1591 69.6091 17.2008 69.9993 17.2841C70.3932 17.3636 70.7607 17.5114 71.1016 17.7273C71.4463 17.9432 71.7285 18.2519 71.9482 18.6534C72.1679 19.0511 72.2777 19.5682 72.2777 20.2045V26H70.6186V24.8068H70.5504C70.4406 25.0265 70.2758 25.2424 70.0561 25.4545C69.8364 25.6667 69.5542 25.8428 69.2095 25.983C68.8648 26.1231 68.4519 26.1932 67.9709 26.1932ZM68.3402 24.8295C68.8099 24.8295 69.2114 24.7367 69.5447 24.5511C69.8819 24.3655 70.1375 24.1231 70.3118 23.8239C70.4898 23.5208 70.5788 23.197 70.5788 22.8523V21.7273C70.5182 21.7879 70.4008 21.8447 70.2266 21.8977C70.0561 21.947 69.861 21.9905 69.6413 22.0284C69.4216 22.0625 69.2076 22.0947 68.9993 22.125C68.791 22.1515 68.6167 22.1742 68.4766 22.1932C68.147 22.2348 67.8459 22.3049 67.5732 22.4034C67.3042 22.5019 67.0883 22.6439 66.9254 22.8295C66.7663 23.0114 66.6868 23.2538 66.6868 23.5568C66.6868 23.9773 66.8421 24.2955 67.1527 24.5114C67.4633 24.7235 67.8591 24.8295 68.3402 24.8295ZM74.5405 26V17.2727H76.1825V18.6591H76.2734C76.4325 18.1894 76.7128 17.8201 77.1143 17.5511C77.5196 17.2784 77.978 17.142 78.4893 17.142C78.5954 17.142 78.7204 17.1458 78.8643 17.1534C79.0121 17.161 79.1276 17.1705 79.2109 17.1818V18.8068C79.1428 18.7879 79.0215 18.767 78.8473 18.7443C78.6731 18.7178 78.4988 18.7045 78.3246 18.7045C77.9231 18.7045 77.5651 18.7898 77.2507 18.9602C76.9401 19.1269 76.6939 19.3598 76.5121 19.6591C76.3303 19.9545 76.2393 20.2917 76.2393 20.6705V26H74.5405Z" fill="#202225"/>
</svg>
