<svg width="48" height="40" viewBox="0 0 48 40" fill="none" xmlns="http://www.w3.org/2000/svg">
<path d="M0 16C0 8.45753 0 4.68629 2.34315 2.34315C4.68629 0 8.45753 0 16 0H32C39.5425 0 43.3137 0 45.6569 2.34315C48 4.68629 48 8.45753 48 16V24C48 31.5425 48 35.3137 45.6569 37.6569C43.3137 40 39.5425 40 32 40H16C8.45753 40 4.68629 40 2.34315 37.6569C0 35.3137 0 31.5425 0 24V16Z" fill="#274492"/>
<path d="M11.505 26V14.3636H13.2607V24.4886H18.5334V26H11.505ZM20.3999 26V17.2727H22.0987V26H20.3999ZM21.2578 15.9261C20.9624 15.9261 20.7086 15.8277 20.4964 15.6307C20.2881 15.4299 20.1839 15.1913 20.1839 14.9148C20.1839 14.6345 20.2881 14.3958 20.4964 14.1989C20.7086 13.9981 20.9624 13.8977 21.2578 13.8977C21.5533 13.8977 21.8052 13.9981 22.0135 14.1989C22.2256 14.3958 22.3317 14.6345 22.3317 14.9148C22.3317 15.1913 22.2256 15.4299 22.0135 15.6307C21.8052 15.8277 21.5533 15.9261 21.2578 15.9261ZM30.924 19.4034L29.3842 19.6761C29.3198 19.4792 29.2176 19.2917 29.0774 19.1136C28.9411 18.9356 28.7554 18.7898 28.5206 18.6761C28.2857 18.5625 27.9922 18.5057 27.6399 18.5057C27.1589 18.5057 26.7573 18.6136 26.4354 18.8295C26.1134 19.0417 25.9524 19.3163 25.9524 19.6534C25.9524 19.9451 26.0604 20.1799 26.2763 20.358C26.4922 20.536 26.8407 20.6818 27.3217 20.7955L28.7081 21.1136C29.5111 21.2992 30.1096 21.5852 30.5036 21.9716C30.8975 22.358 31.0945 22.8598 31.0945 23.4773C31.0945 24 30.9429 24.4659 30.6399 24.875C30.3407 25.2803 29.9221 25.5985 29.3842 25.8295C28.8501 26.0606 28.2308 26.1761 27.5263 26.1761C26.549 26.1761 25.7517 25.9678 25.1342 25.5511C24.5168 25.1307 24.138 24.5341 23.9979 23.7614L25.6399 23.5114C25.7422 23.9394 25.9524 24.2633 26.2706 24.483C26.5888 24.6989 27.0036 24.8068 27.5149 24.8068C28.0717 24.8068 28.5168 24.6913 28.8501 24.4602C29.1835 24.2254 29.3501 23.9394 29.3501 23.6023C29.3501 23.3295 29.2479 23.1004 29.0433 22.9148C28.8426 22.7292 28.5339 22.589 28.1172 22.4943L26.6399 22.1705C25.8255 21.9848 25.2232 21.6894 24.8331 21.2841C24.4467 20.8788 24.2536 20.3655 24.2536 19.7443C24.2536 19.2292 24.3975 18.7784 24.6854 18.392C24.9732 18.0057 25.371 17.7045 25.8786 17.4886C26.3861 17.2689 26.9676 17.1591 27.6229 17.1591C28.5661 17.1591 29.3085 17.3636 29.8501 17.7727C30.3918 18.178 30.7498 18.7216 30.924 19.4034ZM37.0362 17.2727V18.6364H32.2692V17.2727H37.0362ZM33.5476 15.1818H35.2464V23.4375C35.2464 23.767 35.2957 24.0152 35.3942 24.1818C35.4927 24.3447 35.6196 24.4564 35.7749 24.517C35.9339 24.5739 36.1063 24.6023 36.2919 24.6023C36.4283 24.6023 36.5476 24.5928 36.6499 24.5739C36.7521 24.5549 36.8317 24.5398 36.8885 24.5284L37.1953 25.9318C37.0968 25.9697 36.9567 26.0076 36.7749 26.0455C36.593 26.0871 36.3658 26.1098 36.093 26.1136C35.6461 26.1212 35.2294 26.0417 34.843 25.875C34.4567 25.7083 34.1442 25.4508 33.9055 25.1023C33.6669 24.7538 33.5476 24.3163 33.5476 23.7898V15.1818Z" fill="white"/>
</svg>
