<svg width="248" height="102" viewBox="0 0 248 102" fill="none" xmlns="http://www.w3.org/2000/svg">
<g filter="url(#filter0_d_11_1007)">
<rect x="7" y="4" width="236" height="90" rx="16" fill="white"/>
</g>
<path d="M28.364 34.626C27.536 34.626 26.792 34.482 26.132 34.194C25.484 33.894 24.974 33.486 24.602 32.97C24.23 32.442 24.038 31.836 24.026 31.152H25.772C25.832 31.74 26.072 32.238 26.492 32.646C26.924 33.042 27.548 33.24 28.364 33.24C29.144 33.24 29.756 33.048 30.2 32.664C30.656 32.268 30.884 31.764 30.884 31.152C30.884 30.672 30.752 30.282 30.488 29.982C30.224 29.682 29.894 29.454 29.498 29.298C29.102 29.142 28.568 28.974 27.896 28.794C27.068 28.578 26.402 28.362 25.898 28.146C25.406 27.93 24.98 27.594 24.62 27.138C24.272 26.67 24.098 26.046 24.098 25.266C24.098 24.582 24.272 23.976 24.62 23.448C24.968 22.92 25.454 22.512 26.078 22.224C26.714 21.936 27.44 21.792 28.256 21.792C29.432 21.792 30.392 22.086 31.136 22.674C31.892 23.262 32.318 24.042 32.414 25.014H30.614C30.554 24.534 30.302 24.114 29.858 23.754C29.414 23.382 28.826 23.196 28.094 23.196C27.41 23.196 26.852 23.376 26.42 23.736C25.988 24.084 25.772 24.576 25.772 25.212C25.772 25.668 25.898 26.04 26.15 26.328C26.414 26.616 26.732 26.838 27.104 26.994C27.488 27.138 28.022 27.306 28.706 27.498C29.534 27.726 30.2 27.954 30.704 28.182C31.208 28.398 31.64 28.74 32 29.208C32.36 29.664 32.54 30.288 32.54 31.08C32.54 31.692 32.378 32.268 32.054 32.808C31.73 33.348 31.25 33.786 30.614 34.122C29.978 34.458 29.228 34.626 28.364 34.626ZM43.9505 29.19C43.9505 29.502 43.9325 29.832 43.8965 30.18H36.0125C36.0725 31.152 36.4025 31.914 37.0025 32.466C37.6145 33.006 38.3525 33.276 39.2165 33.276C39.9245 33.276 40.5125 33.114 40.9805 32.79C41.4605 32.454 41.7965 32.01 41.9885 31.458H43.7525C43.4885 32.406 42.9605 33.18 42.1685 33.78C41.3765 34.368 40.3925 34.662 39.2165 34.662C38.2805 34.662 37.4405 34.452 36.6965 34.032C35.9645 33.612 35.3885 33.018 34.9685 32.25C34.5485 31.47 34.3385 30.57 34.3385 29.55C34.3385 28.53 34.5425 27.636 34.9505 26.868C35.3585 26.1 35.9285 25.512 36.6605 25.104C37.4045 24.684 38.2565 24.474 39.2165 24.474C40.1525 24.474 40.9805 24.678 41.7005 25.086C42.4205 25.494 42.9725 26.058 43.3565 26.778C43.7525 27.486 43.9505 28.29 43.9505 29.19ZM42.2585 28.848C42.2585 28.224 42.1205 27.69 41.8445 27.246C41.5685 26.79 41.1905 26.448 40.7105 26.22C40.2425 25.98 39.7205 25.86 39.1445 25.86C38.3165 25.86 37.6085 26.124 37.0205 26.652C36.4445 27.18 36.1145 27.912 36.0305 28.848H42.2585ZM47.7506 21.18V34.5H46.1126V21.18H47.7506ZM59.5423 29.19C59.5423 29.502 59.5243 29.832 59.4883 30.18H51.6043C51.6643 31.152 51.9943 31.914 52.5943 32.466C53.2063 33.006 53.9443 33.276 54.8083 33.276C55.5163 33.276 56.1043 33.114 56.5723 32.79C57.0523 32.454 57.3883 32.01 57.5803 31.458H59.3443C59.0803 32.406 58.5523 33.18 57.7603 33.78C56.9683 34.368 55.9843 34.662 54.8083 34.662C53.8723 34.662 53.0323 34.452 52.2883 34.032C51.5563 33.612 50.9803 33.018 50.5603 32.25C50.1403 31.47 49.9303 30.57 49.9303 29.55C49.9303 28.53 50.1343 27.636 50.5423 26.868C50.9503 26.1 51.5203 25.512 52.2523 25.104C52.9963 24.684 53.8483 24.474 54.8083 24.474C55.7443 24.474 56.5723 24.678 57.2923 25.086C58.0123 25.494 58.5643 26.058 58.9483 26.778C59.3443 27.486 59.5423 28.29 59.5423 29.19ZM57.8503 28.848C57.8503 28.224 57.7123 27.69 57.4363 27.246C57.1603 26.79 56.7823 26.448 56.3023 26.22C55.8343 25.98 55.3123 25.86 54.7363 25.86C53.9083 25.86 53.2003 26.124 52.6123 26.652C52.0363 27.18 51.7063 27.912 51.6223 28.848H57.8503ZM65.1964 34.662C64.4404 34.662 63.7624 34.536 63.1624 34.284C62.5624 34.02 62.0884 33.66 61.7404 33.204C61.3924 32.736 61.2004 32.202 61.1644 31.602H62.8564C62.9044 32.094 63.1324 32.496 63.5404 32.808C63.9604 33.12 64.5064 33.276 65.1784 33.276C65.8024 33.276 66.2944 33.138 66.6544 32.862C67.0144 32.586 67.1944 32.238 67.1944 31.818C67.1944 31.386 67.0024 31.068 66.6184 30.864C66.2344 30.648 65.6404 30.438 64.8364 30.234C64.1044 30.042 63.5044 29.85 63.0364 29.658C62.5804 29.454 62.1844 29.16 61.8484 28.776C61.5244 28.38 61.3624 27.864 61.3624 27.228C61.3624 26.724 61.5124 26.262 61.8124 25.842C62.1124 25.422 62.5384 25.092 63.0904 24.852C63.6424 24.6 64.2724 24.474 64.9804 24.474C66.0724 24.474 66.9544 24.75 67.6264 25.302C68.2984 25.854 68.6584 26.61 68.7064 27.57H67.0684C67.0324 27.054 66.8224 26.64 66.4384 26.328C66.0664 26.016 65.5624 25.86 64.9264 25.86C64.3384 25.86 63.8704 25.986 63.5224 26.238C63.1744 26.49 63.0004 26.82 63.0004 27.228C63.0004 27.552 63.1024 27.822 63.3064 28.038C63.5224 28.242 63.7864 28.41 64.0984 28.542C64.4224 28.662 64.8664 28.8 65.4304 28.956C66.1384 29.148 66.7144 29.34 67.1584 29.532C67.6024 29.712 67.9804 29.988 68.2924 30.36C68.6164 30.732 68.7844 31.218 68.7964 31.818C68.7964 32.358 68.6464 32.844 68.3464 33.276C68.0464 33.708 67.6204 34.05 67.0684 34.302C66.5284 34.542 65.9044 34.662 65.1964 34.662ZM70.4967 29.532C70.4967 28.524 70.7007 27.642 71.1087 26.886C71.5167 26.118 72.0747 25.524 72.7827 25.104C73.5027 24.684 74.3007 24.474 75.1767 24.474C76.0407 24.474 76.7907 24.66 77.4267 25.032C78.0627 25.404 78.5367 25.872 78.8487 26.436V24.636H80.5047V34.5H78.8487V32.664C78.5247 33.24 78.0387 33.72 77.3907 34.104C76.7547 34.476 76.0107 34.662 75.1587 34.662C74.2827 34.662 73.4907 34.446 72.7827 34.014C72.0747 33.582 71.5167 32.976 71.1087 32.196C70.7007 31.416 70.4967 30.528 70.4967 29.532ZM78.8487 29.55C78.8487 28.806 78.6987 28.158 78.3987 27.606C78.0987 27.054 77.6907 26.634 77.1747 26.346C76.6707 26.046 76.1127 25.896 75.5007 25.896C74.8887 25.896 74.3307 26.04 73.8267 26.328C73.3227 26.616 72.9207 27.036 72.6207 27.588C72.3207 28.14 72.1707 28.788 72.1707 29.532C72.1707 30.288 72.3207 30.948 72.6207 31.512C72.9207 32.064 73.3227 32.49 73.8267 32.79C74.3307 33.078 74.8887 33.222 75.5007 33.222C76.1127 33.222 76.6707 33.078 77.1747 32.79C77.6907 32.49 78.0987 32.064 78.3987 31.512C78.6987 30.948 78.8487 30.294 78.8487 29.55ZM84.1187 23.034C83.8067 23.034 83.5427 22.926 83.3267 22.71C83.1107 22.494 83.0027 22.23 83.0027 21.918C83.0027 21.606 83.1107 21.342 83.3267 21.126C83.5427 20.91 83.8067 20.802 84.1187 20.802C84.4187 20.802 84.6707 20.91 84.8747 21.126C85.0907 21.342 85.1987 21.606 85.1987 21.918C85.1987 22.23 85.0907 22.494 84.8747 22.71C84.6707 22.926 84.4187 23.034 84.1187 23.034ZM84.9107 24.636V34.5H83.2727V24.636H84.9107Z" fill="#777777"/>
<circle cx="214.5" cy="28.5" r="14.5" fill="#6DAE43"/>
<path d="M26.122 58.472C26.1807 56.9027 26.694 55.6927 27.662 54.842C28.63 53.9913 29.9427 53.566 31.6 53.566C32.7 53.566 33.6387 53.7567 34.416 54.138C35.208 54.5193 35.802 55.04 36.198 55.7C36.6087 56.36 36.814 57.1007 36.814 57.922C36.814 58.89 36.572 59.682 36.088 60.298C35.604 60.8993 35.0393 61.31 34.394 61.53V61.618C35.23 61.8967 35.89 62.3587 36.374 63.004C36.858 63.6493 37.1 64.478 37.1 65.49C37.1 66.3993 36.8873 67.206 36.462 67.91C36.0513 68.5993 35.4427 69.142 34.636 69.538C33.844 69.934 32.898 70.132 31.798 70.132C30.038 70.132 28.63 69.6993 27.574 68.834C26.5327 67.9687 25.9827 66.6633 25.924 64.918H29.576C29.5907 65.5633 29.774 66.0767 30.126 66.458C30.478 66.8247 30.9913 67.008 31.666 67.008C32.238 67.008 32.678 66.8467 32.986 66.524C33.3087 66.1867 33.47 65.7467 33.47 65.204C33.47 64.5 33.2427 63.994 32.788 63.686C32.348 63.3633 31.6367 63.202 30.654 63.202H29.95V60.144H30.654C31.402 60.144 32.0033 60.0193 32.458 59.77C32.9273 59.506 33.162 59.044 33.162 58.384C33.162 57.856 33.0153 57.4453 32.722 57.152C32.4287 56.8587 32.0253 56.712 31.512 56.712C30.9547 56.712 30.5367 56.8807 30.258 57.218C29.994 57.5553 29.84 57.9733 29.796 58.472H26.122ZM56.1164 59.528C56.1164 60.4227 55.9111 61.244 55.5004 61.992C55.0898 62.7253 54.4591 63.3193 53.6084 63.774C52.7578 64.2287 51.7018 64.456 50.4404 64.456H48.1084V70H44.3464V54.556H50.4404C51.6724 54.556 52.7138 54.7687 53.5644 55.194C54.4151 55.6193 55.0531 56.206 55.4784 56.954C55.9038 57.702 56.1164 58.56 56.1164 59.528ZM50.1544 61.464C50.8731 61.464 51.4084 61.2953 51.7604 60.958C52.1124 60.6207 52.2884 60.144 52.2884 59.528C52.2884 58.912 52.1124 58.4353 51.7604 58.098C51.4084 57.7607 50.8731 57.592 50.1544 57.592H48.1084V61.464H50.1544ZM61.8369 59.77C62.2769 59.0953 62.8269 58.5673 63.4869 58.186C64.1469 57.79 64.8803 57.592 65.6869 57.592V61.574H64.6529C63.7143 61.574 63.0103 61.7793 62.5409 62.19C62.0716 62.586 61.8369 63.29 61.8369 64.302V70H58.0749V57.724H61.8369V59.77ZM73.0731 70.176C71.8704 70.176 70.7851 69.9193 69.8171 69.406C68.8638 68.8927 68.1084 68.1593 67.5511 67.206C67.0084 66.2527 66.7371 65.138 66.7371 63.862C66.7371 62.6007 67.0158 61.4933 67.5731 60.54C68.1304 59.572 68.8931 58.8313 69.8611 58.318C70.8291 57.8047 71.9144 57.548 73.1171 57.548C74.3198 57.548 75.4051 57.8047 76.3731 58.318C77.3411 58.8313 78.1038 59.572 78.6611 60.54C79.2184 61.4933 79.4971 62.6007 79.4971 63.862C79.4971 65.1233 79.2111 66.238 78.6391 67.206C78.0818 68.1593 77.3118 68.8927 76.3291 69.406C75.3611 69.9193 74.2758 70.176 73.0731 70.176ZM73.0731 66.92C73.7918 66.92 74.4004 66.656 74.8991 66.128C75.4124 65.6 75.6691 64.8447 75.6691 63.862C75.6691 62.8793 75.4198 62.124 74.9211 61.596C74.4371 61.068 73.8358 60.804 73.1171 60.804C72.3838 60.804 71.7751 61.068 71.2911 61.596C70.8071 62.1093 70.5651 62.8647 70.5651 63.862C70.5651 64.8447 70.7998 65.6 71.2691 66.128C71.7531 66.656 72.3544 66.92 73.0731 66.92ZM83.3629 56.448C82.7029 56.448 82.1602 56.2573 81.7349 55.876C81.3242 55.48 81.1189 54.996 81.1189 54.424C81.1189 53.8373 81.3242 53.3533 81.7349 52.972C82.1602 52.576 82.7029 52.378 83.3629 52.378C84.0082 52.378 84.5362 52.576 84.9469 52.972C85.3722 53.3533 85.5849 53.8373 85.5849 54.424C85.5849 54.996 85.3722 55.48 84.9469 55.876C84.5362 56.2573 84.0082 56.448 83.3629 56.448ZM85.2549 71.584C85.2549 73.0947 84.8736 74.18 84.1109 74.84C83.3482 75.5147 82.2849 75.852 80.9209 75.852H79.4469V72.662H80.3489C80.7596 72.662 81.0529 72.5813 81.2289 72.42C81.4049 72.2587 81.4929 71.9947 81.4929 71.628V57.724H85.2549V71.584ZM99.5317 63.664C99.5317 64.016 99.5097 64.3827 99.4657 64.764H90.9517C91.0104 65.5267 91.2524 66.1133 91.6777 66.524C92.1177 66.92 92.653 67.118 93.2837 67.118C94.2224 67.118 94.875 66.722 95.2417 65.93H99.2457C99.0404 66.7367 98.6664 67.4627 98.1237 68.108C97.5957 68.7533 96.9284 69.2593 96.1217 69.626C95.315 69.9927 94.413 70.176 93.4157 70.176C92.213 70.176 91.1424 69.9193 90.2037 69.406C89.265 68.8927 88.5317 68.1593 88.0037 67.206C87.4757 66.2527 87.2117 65.138 87.2117 63.862C87.2117 62.586 87.4684 61.4713 87.9817 60.518C88.5097 59.5647 89.243 58.8313 90.1817 58.318C91.1204 57.8047 92.1984 57.548 93.4157 57.548C94.6037 57.548 95.6597 57.7973 96.5837 58.296C97.5077 58.7947 98.2264 59.506 98.7397 60.43C99.2677 61.354 99.5317 62.432 99.5317 63.664ZM95.6817 62.674C95.6817 62.0287 95.4617 61.5153 95.0217 61.134C94.5817 60.7527 94.0317 60.562 93.3717 60.562C92.741 60.562 92.2057 60.7453 91.7657 61.112C91.3404 61.4787 91.0764 61.9993 90.9737 62.674H95.6817ZM100.768 63.862C100.768 62.586 101.025 61.4713 101.538 60.518C102.066 59.5647 102.792 58.8313 103.716 58.318C104.655 57.8047 105.726 57.548 106.928 57.548C108.468 57.548 109.752 57.9513 110.778 58.758C111.82 59.5647 112.502 60.7013 112.824 62.168H108.82C108.483 61.2293 107.83 60.76 106.862 60.76C106.173 60.76 105.623 61.0313 105.212 61.574C104.802 62.102 104.596 62.8647 104.596 63.862C104.596 64.8593 104.802 65.6293 105.212 66.172C105.623 66.7 106.173 66.964 106.862 66.964C107.83 66.964 108.483 66.4947 108.82 65.556H112.824C112.502 66.9933 111.82 68.1227 110.778 68.944C109.737 69.7653 108.454 70.176 106.928 70.176C105.726 70.176 104.655 69.9193 103.716 69.406C102.792 68.8927 102.066 68.1593 101.538 67.206C101.025 66.2527 100.768 65.138 100.768 63.862ZM121.679 66.81V70H119.765C118.401 70 117.337 69.67 116.575 69.01C115.812 68.3353 115.431 67.2427 115.431 65.732V60.848H113.935V57.724H115.431V54.732H119.193V57.724H121.657V60.848H119.193V65.776C119.193 66.1427 119.281 66.4067 119.457 66.568C119.633 66.7293 119.926 66.81 120.337 66.81H121.679ZM128.768 70.176C127.697 70.176 126.744 69.9927 125.908 69.626C125.072 69.2593 124.412 68.7607 123.928 68.13C123.444 67.4847 123.173 66.766 123.114 65.974H126.832C126.876 66.3993 127.074 66.744 127.426 67.008C127.778 67.272 128.211 67.404 128.724 67.404C129.193 67.404 129.553 67.316 129.802 67.14C130.066 66.9493 130.198 66.7073 130.198 66.414C130.198 66.062 130.015 65.8053 129.648 65.644C129.281 65.468 128.687 65.2773 127.866 65.072C126.986 64.8667 126.253 64.654 125.666 64.434C125.079 64.1993 124.573 63.84 124.148 63.356C123.723 62.8573 123.51 62.19 123.51 61.354C123.51 60.65 123.701 60.012 124.082 59.44C124.478 58.8533 125.05 58.3913 125.798 58.054C126.561 57.7167 127.463 57.548 128.504 57.548C130.044 57.548 131.254 57.9293 132.134 58.692C133.029 59.4547 133.542 60.4667 133.674 61.728H130.198C130.139 61.3027 129.949 60.9653 129.626 60.716C129.318 60.4667 128.907 60.342 128.394 60.342C127.954 60.342 127.617 60.43 127.382 60.606C127.147 60.7673 127.03 60.9947 127.03 61.288C127.03 61.64 127.213 61.904 127.58 62.08C127.961 62.256 128.548 62.432 129.34 62.608C130.249 62.8427 130.99 63.0773 131.562 63.312C132.134 63.532 132.633 63.8987 133.058 64.412C133.498 64.9107 133.725 65.5853 133.74 66.436C133.74 67.1547 133.535 67.8 133.124 68.372C132.728 68.9293 132.149 69.3693 131.386 69.692C130.638 70.0147 129.765 70.176 128.768 70.176Z" fill="black"/>
<defs>
<filter id="filter0_d_11_1007" x="0" y="0" width="248" height="102" filterUnits="userSpaceOnUse" color-interpolation-filters="sRGB">
<feFlood flood-opacity="0" result="BackgroundImageFix"/>
<feColorMatrix in="SourceAlpha" type="matrix" values="0 0 0 0 0 0 0 0 0 0 0 0 0 0 0 0 0 0 127 0" result="hardAlpha"/>
<feOffset dx="-1" dy="2"/>
<feGaussianBlur stdDeviation="3"/>
<feComposite in2="hardAlpha" operator="out"/>
<feColorMatrix type="matrix" values="0 0 0 0 0 0 0 0 0 0 0 0 0 0 0 0 0 0 0.05 0"/>
<feBlend mode="normal" in2="BackgroundImageFix" result="effect1_dropShadow_11_1007"/>
<feBlend mode="normal" in="SourceGraphic" in2="effect1_dropShadow_11_1007" result="shape"/>
</filter>
</defs>
</svg>
