<svg width="248" height="102" viewBox="0 0 248 102" fill="none" xmlns="http://www.w3.org/2000/svg">
<g filter="url(#filter0_d_11_437)">
<rect x="7" y="4" width="236" height="90" rx="16" fill="white"/>
</g>
<path d="M28.292 21.954C29.66 21.954 30.842 22.212 31.838 22.728C32.846 23.232 33.614 23.958 34.142 24.906C34.682 25.854 34.952 26.97 34.952 28.254C34.952 29.538 34.682 30.654 34.142 31.602C33.614 32.538 32.846 33.258 31.838 33.762C30.842 34.254 29.66 34.5 28.292 34.5H24.386V21.954H28.292ZM28.292 33.15C29.912 33.15 31.148 32.724 32 31.872C32.852 31.008 33.278 29.802 33.278 28.254C33.278 26.694 32.846 25.476 31.982 24.6C31.13 23.724 29.9 23.286 28.292 23.286H26.024V33.15H28.292ZM36.5006 29.532C36.5006 28.524 36.7046 27.642 37.1126 26.886C37.5206 26.118 38.0786 25.524 38.7866 25.104C39.5066 24.684 40.3046 24.474 41.1806 24.474C42.0446 24.474 42.7946 24.66 43.4306 25.032C44.0666 25.404 44.5406 25.872 44.8526 26.436V24.636H46.5086V34.5H44.8526V32.664C44.5286 33.24 44.0426 33.72 43.3946 34.104C42.7586 34.476 42.0146 34.662 41.1626 34.662C40.2866 34.662 39.4946 34.446 38.7866 34.014C38.0786 33.582 37.5206 32.976 37.1126 32.196C36.7046 31.416 36.5006 30.528 36.5006 29.532ZM44.8526 29.55C44.8526 28.806 44.7026 28.158 44.4026 27.606C44.1026 27.054 43.6946 26.634 43.1786 26.346C42.6746 26.046 42.1166 25.896 41.5046 25.896C40.8926 25.896 40.3346 26.04 39.8306 26.328C39.3266 26.616 38.9246 27.036 38.6246 27.588C38.3246 28.14 38.1746 28.788 38.1746 29.532C38.1746 30.288 38.3246 30.948 38.6246 31.512C38.9246 32.064 39.3266 32.49 39.8306 32.79C40.3346 33.078 40.8926 33.222 41.5046 33.222C42.1166 33.222 42.6746 33.078 43.1786 32.79C43.6946 32.49 44.1026 32.064 44.4026 31.512C44.7026 30.948 44.8526 30.294 44.8526 29.55ZM50.9146 21.18V34.5H49.2766V21.18H50.9146ZM53.0943 29.532C53.0943 28.524 53.2983 27.642 53.7063 26.886C54.1143 26.118 54.6723 25.524 55.3803 25.104C56.1003 24.684 56.8983 24.474 57.7743 24.474C58.6383 24.474 59.3883 24.66 60.0243 25.032C60.6603 25.404 61.1343 25.872 61.4463 26.436V24.636H63.1023V34.5H61.4463V32.664C61.1223 33.24 60.6363 33.72 59.9883 34.104C59.3523 34.476 58.6083 34.662 57.7563 34.662C56.8803 34.662 56.0883 34.446 55.3803 34.014C54.6723 33.582 54.1143 32.976 53.7063 32.196C53.2983 31.416 53.0943 30.528 53.0943 29.532ZM61.4463 29.55C61.4463 28.806 61.2963 28.158 60.9963 27.606C60.6963 27.054 60.2883 26.634 59.7723 26.346C59.2683 26.046 58.7103 25.896 58.0983 25.896C57.4863 25.896 56.9283 26.04 56.4243 26.328C55.9203 26.616 55.5183 27.036 55.2183 27.588C54.9183 28.14 54.7683 28.788 54.7683 29.532C54.7683 30.288 54.9183 30.948 55.2183 31.512C55.5183 32.064 55.9203 32.49 56.4243 32.79C56.9283 33.078 57.4863 33.222 58.0983 33.222C58.7103 33.222 59.2683 33.078 59.7723 32.79C60.2883 32.49 60.6963 32.064 60.9963 31.512C61.2963 30.948 61.4463 30.294 61.4463 29.55ZM77.7324 24.456C78.5004 24.456 79.1844 24.618 79.7844 24.942C80.3844 25.254 80.8584 25.728 81.2064 26.364C81.5544 27 81.7284 27.774 81.7284 28.686V34.5H80.1084V28.92C80.1084 27.936 79.8624 27.186 79.3704 26.67C78.8904 26.142 78.2364 25.878 77.4084 25.878C76.5564 25.878 75.8784 26.154 75.3744 26.706C74.8704 27.246 74.6184 28.032 74.6184 29.064V34.5H72.9984V28.92C72.9984 27.936 72.7524 27.186 72.2604 26.67C71.7804 26.142 71.1264 25.878 70.2984 25.878C69.4464 25.878 68.7684 26.154 68.2644 26.706C67.7604 27.246 67.5084 28.032 67.5084 29.064V34.5H65.8704V24.636H67.5084V26.058C67.8324 25.542 68.2644 25.146 68.8044 24.87C69.3564 24.594 69.9624 24.456 70.6224 24.456C71.4504 24.456 72.1824 24.642 72.8184 25.014C73.4544 25.386 73.9284 25.932 74.2404 26.652C74.5164 25.956 74.9724 25.416 75.6084 25.032C76.2444 24.648 76.9524 24.456 77.7324 24.456ZM97.6021 25.626C97.6021 26.67 97.2421 27.54 96.5221 28.236C95.8141 28.92 94.7281 29.262 93.2641 29.262H90.8521V34.5H89.2141V21.954H93.2641C94.6801 21.954 95.7541 22.296 96.4861 22.98C97.2301 23.664 97.6021 24.546 97.6021 25.626ZM93.2641 27.912C94.1761 27.912 94.8481 27.714 95.2801 27.318C95.7121 26.922 95.9281 26.358 95.9281 25.626C95.9281 24.078 95.0401 23.304 93.2641 23.304H90.8521V27.912H93.2641ZM101.276 26.238C101.564 25.674 101.972 25.236 102.5 24.924C103.04 24.612 103.694 24.456 104.462 24.456V26.148H104.03C102.194 26.148 101.276 27.144 101.276 29.136V34.5H99.638V24.636H101.276V26.238ZM110.655 34.662C109.731 34.662 108.891 34.452 108.135 34.032C107.391 33.612 106.803 33.018 106.371 32.25C105.951 31.47 105.741 30.57 105.741 29.55C105.741 28.542 105.957 27.654 106.389 26.886C106.833 26.106 107.433 25.512 108.189 25.104C108.945 24.684 109.791 24.474 110.727 24.474C111.663 24.474 112.509 24.684 113.265 25.104C114.021 25.512 114.615 26.1 115.047 26.868C115.491 27.636 115.713 28.53 115.713 29.55C115.713 30.57 115.485 31.47 115.029 32.25C114.585 33.018 113.979 33.612 113.211 34.032C112.443 34.452 111.591 34.662 110.655 34.662ZM110.655 33.222C111.243 33.222 111.795 33.084 112.311 32.808C112.827 32.532 113.241 32.118 113.553 31.566C113.877 31.014 114.039 30.342 114.039 29.55C114.039 28.758 113.883 28.086 113.571 27.534C113.259 26.982 112.851 26.574 112.347 26.31C111.843 26.034 111.297 25.896 110.709 25.896C110.109 25.896 109.557 26.034 109.053 26.31C108.561 26.574 108.165 26.982 107.865 27.534C107.565 28.086 107.415 28.758 107.415 29.55C107.415 30.354 107.559 31.032 107.847 31.584C108.147 32.136 108.543 32.55 109.035 32.826C109.527 33.09 110.067 33.222 110.655 33.222ZM121.358 34.662C120.602 34.662 119.924 34.536 119.324 34.284C118.724 34.02 118.25 33.66 117.902 33.204C117.554 32.736 117.362 32.202 117.326 31.602H119.018C119.066 32.094 119.294 32.496 119.702 32.808C120.122 33.12 120.668 33.276 121.34 33.276C121.964 33.276 122.456 33.138 122.816 32.862C123.176 32.586 123.356 32.238 123.356 31.818C123.356 31.386 123.164 31.068 122.78 30.864C122.396 30.648 121.802 30.438 120.998 30.234C120.266 30.042 119.666 29.85 119.198 29.658C118.742 29.454 118.346 29.16 118.01 28.776C117.686 28.38 117.524 27.864 117.524 27.228C117.524 26.724 117.674 26.262 117.974 25.842C118.274 25.422 118.7 25.092 119.252 24.852C119.804 24.6 120.434 24.474 121.142 24.474C122.234 24.474 123.116 24.75 123.788 25.302C124.46 25.854 124.82 26.61 124.868 27.57H123.23C123.194 27.054 122.984 26.64 122.6 26.328C122.228 26.016 121.724 25.86 121.088 25.86C120.5 25.86 120.032 25.986 119.684 26.238C119.336 26.49 119.162 26.82 119.162 27.228C119.162 27.552 119.264 27.822 119.468 28.038C119.684 28.242 119.948 28.41 120.26 28.542C120.584 28.662 121.028 28.8 121.592 28.956C122.3 29.148 122.876 29.34 123.32 29.532C123.764 29.712 124.142 29.988 124.454 30.36C124.778 30.732 124.946 31.218 124.958 31.818C124.958 32.358 124.808 32.844 124.508 33.276C124.208 33.708 123.782 34.05 123.23 34.302C122.69 34.542 122.066 34.662 121.358 34.662ZM136.271 29.19C136.271 29.502 136.253 29.832 136.217 30.18H128.333C128.393 31.152 128.723 31.914 129.323 32.466C129.935 33.006 130.673 33.276 131.537 33.276C132.245 33.276 132.833 33.114 133.301 32.79C133.781 32.454 134.117 32.01 134.309 31.458H136.073C135.809 32.406 135.281 33.18 134.489 33.78C133.697 34.368 132.713 34.662 131.537 34.662C130.601 34.662 129.761 34.452 129.017 34.032C128.285 33.612 127.709 33.018 127.289 32.25C126.869 31.47 126.659 30.57 126.659 29.55C126.659 28.53 126.863 27.636 127.271 26.868C127.679 26.1 128.249 25.512 128.981 25.104C129.725 24.684 130.577 24.474 131.537 24.474C132.473 24.474 133.301 24.678 134.021 25.086C134.741 25.494 135.293 26.058 135.677 26.778C136.073 27.486 136.271 28.29 136.271 29.19ZM134.579 28.848C134.579 28.224 134.441 27.69 134.165 27.246C133.889 26.79 133.511 26.448 133.031 26.22C132.563 25.98 132.041 25.86 131.465 25.86C130.637 25.86 129.929 26.124 129.341 26.652C128.765 27.18 128.435 27.912 128.351 28.848H134.579ZM141.925 34.662C141.169 34.662 140.491 34.536 139.891 34.284C139.291 34.02 138.817 33.66 138.469 33.204C138.121 32.736 137.929 32.202 137.893 31.602H139.585C139.633 32.094 139.861 32.496 140.269 32.808C140.689 33.12 141.235 33.276 141.907 33.276C142.531 33.276 143.023 33.138 143.383 32.862C143.743 32.586 143.923 32.238 143.923 31.818C143.923 31.386 143.731 31.068 143.347 30.864C142.963 30.648 142.369 30.438 141.565 30.234C140.833 30.042 140.233 29.85 139.765 29.658C139.309 29.454 138.913 29.16 138.577 28.776C138.253 28.38 138.091 27.864 138.091 27.228C138.091 26.724 138.241 26.262 138.541 25.842C138.841 25.422 139.267 25.092 139.819 24.852C140.371 24.6 141.001 24.474 141.709 24.474C142.801 24.474 143.683 24.75 144.355 25.302C145.027 25.854 145.387 26.61 145.435 27.57H143.797C143.761 27.054 143.551 26.64 143.167 26.328C142.795 26.016 142.291 25.86 141.655 25.86C141.067 25.86 140.599 25.986 140.251 26.238C139.903 26.49 139.729 26.82 139.729 27.228C139.729 27.552 139.831 27.822 140.035 28.038C140.251 28.242 140.515 28.41 140.827 28.542C141.151 28.662 141.595 28.8 142.159 28.956C142.867 29.148 143.443 29.34 143.887 29.532C144.331 29.712 144.709 29.988 145.021 30.36C145.345 30.732 145.513 31.218 145.525 31.818C145.525 32.358 145.375 32.844 145.075 33.276C144.775 33.708 144.349 34.05 143.797 34.302C143.257 34.542 142.633 34.662 141.925 34.662Z" fill="#777777"/>
<circle cx="214.5" cy="28.5" r="14.5" fill="#FD9F00"/>
<path d="M26.122 58.472C26.1807 56.9027 26.694 55.6927 27.662 54.842C28.63 53.9913 29.9427 53.566 31.6 53.566C32.7 53.566 33.6387 53.7567 34.416 54.138C35.208 54.5193 35.802 55.04 36.198 55.7C36.6087 56.36 36.814 57.1007 36.814 57.922C36.814 58.89 36.572 59.682 36.088 60.298C35.604 60.8993 35.0393 61.31 34.394 61.53V61.618C35.23 61.8967 35.89 62.3587 36.374 63.004C36.858 63.6493 37.1 64.478 37.1 65.49C37.1 66.3993 36.8873 67.206 36.462 67.91C36.0513 68.5993 35.4427 69.142 34.636 69.538C33.844 69.934 32.898 70.132 31.798 70.132C30.038 70.132 28.63 69.6993 27.574 68.834C26.5327 67.9687 25.9827 66.6633 25.924 64.918H29.576C29.5907 65.5633 29.774 66.0767 30.126 66.458C30.478 66.8247 30.9913 67.008 31.666 67.008C32.238 67.008 32.678 66.8467 32.986 66.524C33.3087 66.1867 33.47 65.7467 33.47 65.204C33.47 64.5 33.2427 63.994 32.788 63.686C32.348 63.3633 31.6367 63.202 30.654 63.202H29.95V60.144H30.654C31.402 60.144 32.0033 60.0193 32.458 59.77C32.9273 59.506 33.162 59.044 33.162 58.384C33.162 57.856 33.0153 57.4453 32.722 57.152C32.4287 56.8587 32.0253 56.712 31.512 56.712C30.9547 56.712 30.5367 56.8807 30.258 57.218C29.994 57.5553 29.84 57.9733 29.796 58.472H26.122ZM56.1164 59.528C56.1164 60.4227 55.9111 61.244 55.5004 61.992C55.0898 62.7253 54.4591 63.3193 53.6084 63.774C52.7578 64.2287 51.7018 64.456 50.4404 64.456H48.1084V70H44.3464V54.556H50.4404C51.6724 54.556 52.7138 54.7687 53.5644 55.194C54.4151 55.6193 55.0531 56.206 55.4784 56.954C55.9038 57.702 56.1164 58.56 56.1164 59.528ZM50.1544 61.464C50.8731 61.464 51.4084 61.2953 51.7604 60.958C52.1124 60.6207 52.2884 60.144 52.2884 59.528C52.2884 58.912 52.1124 58.4353 51.7604 58.098C51.4084 57.7607 50.8731 57.592 50.1544 57.592H48.1084V61.464H50.1544ZM61.8369 59.77C62.2769 59.0953 62.8269 58.5673 63.4869 58.186C64.1469 57.79 64.8803 57.592 65.6869 57.592V61.574H64.6529C63.7143 61.574 63.0103 61.7793 62.5409 62.19C62.0716 62.586 61.8369 63.29 61.8369 64.302V70H58.0749V57.724H61.8369V59.77ZM73.0731 70.176C71.8704 70.176 70.7851 69.9193 69.8171 69.406C68.8638 68.8927 68.1084 68.1593 67.5511 67.206C67.0084 66.2527 66.7371 65.138 66.7371 63.862C66.7371 62.6007 67.0158 61.4933 67.5731 60.54C68.1304 59.572 68.8931 58.8313 69.8611 58.318C70.8291 57.8047 71.9144 57.548 73.1171 57.548C74.3198 57.548 75.4051 57.8047 76.3731 58.318C77.3411 58.8313 78.1038 59.572 78.6611 60.54C79.2184 61.4933 79.4971 62.6007 79.4971 63.862C79.4971 65.1233 79.2111 66.238 78.6391 67.206C78.0818 68.1593 77.3118 68.8927 76.3291 69.406C75.3611 69.9193 74.2758 70.176 73.0731 70.176ZM73.0731 66.92C73.7918 66.92 74.4004 66.656 74.8991 66.128C75.4124 65.6 75.6691 64.8447 75.6691 63.862C75.6691 62.8793 75.4198 62.124 74.9211 61.596C74.4371 61.068 73.8358 60.804 73.1171 60.804C72.3838 60.804 71.7751 61.068 71.2911 61.596C70.8071 62.1093 70.5651 62.8647 70.5651 63.862C70.5651 64.8447 70.7998 65.6 71.2691 66.128C71.7531 66.656 72.3544 66.92 73.0731 66.92ZM83.3629 56.448C82.7029 56.448 82.1602 56.2573 81.7349 55.876C81.3242 55.48 81.1189 54.996 81.1189 54.424C81.1189 53.8373 81.3242 53.3533 81.7349 52.972C82.1602 52.576 82.7029 52.378 83.3629 52.378C84.0082 52.378 84.5362 52.576 84.9469 52.972C85.3722 53.3533 85.5849 53.8373 85.5849 54.424C85.5849 54.996 85.3722 55.48 84.9469 55.876C84.5362 56.2573 84.0082 56.448 83.3629 56.448ZM85.2549 71.584C85.2549 73.0947 84.8736 74.18 84.1109 74.84C83.3482 75.5147 82.2849 75.852 80.9209 75.852H79.4469V72.662H80.3489C80.7596 72.662 81.0529 72.5813 81.2289 72.42C81.4049 72.2587 81.4929 71.9947 81.4929 71.628V57.724H85.2549V71.584ZM99.5317 63.664C99.5317 64.016 99.5097 64.3827 99.4657 64.764H90.9517C91.0104 65.5267 91.2524 66.1133 91.6777 66.524C92.1177 66.92 92.653 67.118 93.2837 67.118C94.2224 67.118 94.875 66.722 95.2417 65.93H99.2457C99.0404 66.7367 98.6664 67.4627 98.1237 68.108C97.5957 68.7533 96.9284 69.2593 96.1217 69.626C95.315 69.9927 94.413 70.176 93.4157 70.176C92.213 70.176 91.1424 69.9193 90.2037 69.406C89.265 68.8927 88.5317 68.1593 88.0037 67.206C87.4757 66.2527 87.2117 65.138 87.2117 63.862C87.2117 62.586 87.4684 61.4713 87.9817 60.518C88.5097 59.5647 89.243 58.8313 90.1817 58.318C91.1204 57.8047 92.1984 57.548 93.4157 57.548C94.6037 57.548 95.6597 57.7973 96.5837 58.296C97.5077 58.7947 98.2264 59.506 98.7397 60.43C99.2677 61.354 99.5317 62.432 99.5317 63.664ZM95.6817 62.674C95.6817 62.0287 95.4617 61.5153 95.0217 61.134C94.5817 60.7527 94.0317 60.562 93.3717 60.562C92.741 60.562 92.2057 60.7453 91.7657 61.112C91.3404 61.4787 91.0764 61.9993 90.9737 62.674H95.6817ZM100.768 63.862C100.768 62.586 101.025 61.4713 101.538 60.518C102.066 59.5647 102.792 58.8313 103.716 58.318C104.655 57.8047 105.726 57.548 106.928 57.548C108.468 57.548 109.752 57.9513 110.778 58.758C111.82 59.5647 112.502 60.7013 112.824 62.168H108.82C108.483 61.2293 107.83 60.76 106.862 60.76C106.173 60.76 105.623 61.0313 105.212 61.574C104.802 62.102 104.596 62.8647 104.596 63.862C104.596 64.8593 104.802 65.6293 105.212 66.172C105.623 66.7 106.173 66.964 106.862 66.964C107.83 66.964 108.483 66.4947 108.82 65.556H112.824C112.502 66.9933 111.82 68.1227 110.778 68.944C109.737 69.7653 108.454 70.176 106.928 70.176C105.726 70.176 104.655 69.9193 103.716 69.406C102.792 68.8927 102.066 68.1593 101.538 67.206C101.025 66.2527 100.768 65.138 100.768 63.862ZM121.679 66.81V70H119.765C118.401 70 117.337 69.67 116.575 69.01C115.812 68.3353 115.431 67.2427 115.431 65.732V60.848H113.935V57.724H115.431V54.732H119.193V57.724H121.657V60.848H119.193V65.776C119.193 66.1427 119.281 66.4067 119.457 66.568C119.633 66.7293 119.926 66.81 120.337 66.81H121.679ZM128.768 70.176C127.697 70.176 126.744 69.9927 125.908 69.626C125.072 69.2593 124.412 68.7607 123.928 68.13C123.444 67.4847 123.173 66.766 123.114 65.974H126.832C126.876 66.3993 127.074 66.744 127.426 67.008C127.778 67.272 128.211 67.404 128.724 67.404C129.193 67.404 129.553 67.316 129.802 67.14C130.066 66.9493 130.198 66.7073 130.198 66.414C130.198 66.062 130.015 65.8053 129.648 65.644C129.281 65.468 128.687 65.2773 127.866 65.072C126.986 64.8667 126.253 64.654 125.666 64.434C125.079 64.1993 124.573 63.84 124.148 63.356C123.723 62.8573 123.51 62.19 123.51 61.354C123.51 60.65 123.701 60.012 124.082 59.44C124.478 58.8533 125.05 58.3913 125.798 58.054C126.561 57.7167 127.463 57.548 128.504 57.548C130.044 57.548 131.254 57.9293 132.134 58.692C133.029 59.4547 133.542 60.4667 133.674 61.728H130.198C130.139 61.3027 129.949 60.9653 129.626 60.716C129.318 60.4667 128.907 60.342 128.394 60.342C127.954 60.342 127.617 60.43 127.382 60.606C127.147 60.7673 127.03 60.9947 127.03 61.288C127.03 61.64 127.213 61.904 127.58 62.08C127.961 62.256 128.548 62.432 129.34 62.608C130.249 62.8427 130.99 63.0773 131.562 63.312C132.134 63.532 132.633 63.8987 133.058 64.412C133.498 64.9107 133.725 65.5853 133.74 66.436C133.74 67.1547 133.535 67.8 133.124 68.372C132.728 68.9293 132.149 69.3693 131.386 69.692C130.638 70.0147 129.765 70.176 128.768 70.176Z" fill="black"/>
<defs>
<filter id="filter0_d_11_437" x="0" y="0" width="248" height="102" filterUnits="userSpaceOnUse" color-interpolation-filters="sRGB">
<feFlood flood-opacity="0" result="BackgroundImageFix"/>
<feColorMatrix in="SourceAlpha" type="matrix" values="0 0 0 0 0 0 0 0 0 0 0 0 0 0 0 0 0 0 127 0" result="hardAlpha"/>
<feOffset dx="-1" dy="2"/>
<feGaussianBlur stdDeviation="3"/>
<feComposite in2="hardAlpha" operator="out"/>
<feColorMatrix type="matrix" values="0 0 0 0 0 0 0 0 0 0 0 0 0 0 0 0 0 0 0.05 0"/>
<feBlend mode="normal" in2="BackgroundImageFix" result="effect1_dropShadow_11_437"/>
<feBlend mode="normal" in="SourceGraphic" in2="effect1_dropShadow_11_437" result="shape"/>
</filter>
</defs>
</svg>
