<svg width="248" height="102" viewBox="0 0 248 102" fill="none" xmlns="http://www.w3.org/2000/svg">
<g filter="url(#filter0_d_11_1001)">
<rect x="7" y="4" width="236" height="90" rx="16" fill="white"/>
</g>
<path d="M28.292 21.954C29.66 21.954 30.842 22.212 31.838 22.728C32.846 23.232 33.614 23.958 34.142 24.906C34.682 25.854 34.952 26.97 34.952 28.254C34.952 29.538 34.682 30.654 34.142 31.602C33.614 32.538 32.846 33.258 31.838 33.762C30.842 34.254 29.66 34.5 28.292 34.5H24.386V21.954H28.292ZM28.292 33.15C29.912 33.15 31.148 32.724 32 31.872C32.852 31.008 33.278 29.802 33.278 28.254C33.278 26.694 32.846 25.476 31.982 24.6C31.13 23.724 29.9 23.286 28.292 23.286H26.024V33.15H28.292ZM37.9586 23.034C37.6466 23.034 37.3826 22.926 37.1666 22.71C36.9506 22.494 36.8426 22.23 36.8426 21.918C36.8426 21.606 36.9506 21.342 37.1666 21.126C37.3826 20.91 37.6466 20.802 37.9586 20.802C38.2586 20.802 38.5106 20.91 38.7146 21.126C38.9306 21.342 39.0386 21.606 39.0386 21.918C39.0386 22.23 38.9306 22.494 38.7146 22.71C38.5106 22.926 38.2586 23.034 37.9586 23.034ZM38.7506 24.636V34.5H37.1126V24.636H38.7506ZM43.5403 25.986V31.8C43.5403 32.28 43.6423 32.622 43.8463 32.826C44.0503 33.018 44.4043 33.114 44.9082 33.114H46.1143V34.5H44.6383C43.7263 34.5 43.0423 34.29 42.5863 33.87C42.1303 33.45 41.9023 32.76 41.9023 31.8V25.986H40.6243V24.636H41.9023V22.152H43.5403V24.636H46.1143V25.986H43.5403ZM56.8469 24.636V34.5H55.2089V33.042C54.8969 33.546 54.4589 33.942 53.8949 34.23C53.3429 34.506 52.7309 34.644 52.0589 34.644C51.2909 34.644 50.6009 34.488 49.9889 34.176C49.3769 33.852 48.8909 33.372 48.5309 32.736C48.1829 32.1 48.0089 31.326 48.0089 30.414V24.636H49.6289V30.198C49.6289 31.17 49.8749 31.92 50.3669 32.448C50.8589 32.964 51.5309 33.222 52.3829 33.222C53.2589 33.222 53.9489 32.952 54.4529 32.412C54.9569 31.872 55.2089 31.086 55.2089 30.054V24.636H56.8469ZM64.4186 24.456C65.6186 24.456 66.5906 24.822 67.3346 25.554C68.0786 26.274 68.4506 27.318 68.4506 28.686V34.5H66.8306V28.92C66.8306 27.936 66.5846 27.186 66.0926 26.67C65.6006 26.142 64.9286 25.878 64.0766 25.878C63.2126 25.878 62.5226 26.148 62.0066 26.688C61.5026 27.228 61.2506 28.014 61.2506 29.046V34.5H59.6126V24.636H61.2506V26.04C61.5746 25.536 62.0126 25.146 62.5646 24.87C63.1286 24.594 63.7466 24.456 64.4186 24.456ZM70.5142 29.532C70.5142 28.524 70.7182 27.642 71.1262 26.886C71.5342 26.118 72.0922 25.524 72.8002 25.104C73.5202 24.684 74.3242 24.474 75.2122 24.474C75.9802 24.474 76.6942 24.654 77.3542 25.014C78.0142 25.362 78.5182 25.824 78.8662 26.4V21.18H80.5222V34.5H78.8662V32.646C78.5422 33.234 78.0622 33.72 77.4262 34.104C76.7902 34.476 76.0462 34.662 75.1942 34.662C74.3182 34.662 73.5202 34.446 72.8002 34.014C72.0922 33.582 71.5342 32.976 71.1262 32.196C70.7182 31.416 70.5142 30.528 70.5142 29.532ZM78.8662 29.55C78.8662 28.806 78.7162 28.158 78.4162 27.606C78.1162 27.054 77.7082 26.634 77.1922 26.346C76.6882 26.046 76.1302 25.896 75.5182 25.896C74.9062 25.896 74.3482 26.04 73.8442 26.328C73.3402 26.616 72.9382 27.036 72.6382 27.588C72.3382 28.14 72.1882 28.788 72.1882 29.532C72.1882 30.288 72.3382 30.948 72.6382 31.512C72.9382 32.064 73.3402 32.49 73.8442 32.79C74.3482 33.078 74.9062 33.222 75.5182 33.222C76.1302 33.222 76.6882 33.078 77.1922 32.79C77.7082 32.49 78.1162 32.064 78.4162 31.512C78.7162 30.948 78.8662 30.294 78.8662 29.55ZM82.6783 29.532C82.6783 28.524 82.8823 27.642 83.2903 26.886C83.6983 26.118 84.2563 25.524 84.9643 25.104C85.6843 24.684 86.4823 24.474 87.3583 24.474C88.2223 24.474 88.9723 24.66 89.6083 25.032C90.2443 25.404 90.7183 25.872 91.0303 26.436V24.636H92.6863V34.5H91.0303V32.664C90.7063 33.24 90.2203 33.72 89.5723 34.104C88.9363 34.476 88.1923 34.662 87.3403 34.662C86.4643 34.662 85.6723 34.446 84.9643 34.014C84.2563 33.582 83.6983 32.976 83.2903 32.196C82.8823 31.416 82.6783 30.528 82.6783 29.532ZM91.0303 29.55C91.0303 28.806 90.8803 28.158 90.5803 27.606C90.2803 27.054 89.8723 26.634 89.3563 26.346C88.8523 26.046 88.2943 25.896 87.6823 25.896C87.0703 25.896 86.5123 26.04 86.0083 26.328C85.5043 26.616 85.1023 27.036 84.8023 27.588C84.5023 28.14 84.3523 28.788 84.3523 29.532C84.3523 30.288 84.5023 30.948 84.8023 31.512C85.1023 32.064 85.5043 32.49 86.0083 32.79C86.5123 33.078 87.0703 33.222 87.6823 33.222C88.2943 33.222 88.8523 33.078 89.3563 32.79C89.8723 32.49 90.2803 32.064 90.5803 31.512C90.8803 30.948 91.0303 30.294 91.0303 29.55Z" fill="#777777"/>
<circle cx="214.5" cy="28.5" r="14.5" fill="#B8B8B8"/>
<path d="M26.122 58.472C26.1807 56.9027 26.694 55.6927 27.662 54.842C28.63 53.9913 29.9427 53.566 31.6 53.566C32.7 53.566 33.6387 53.7567 34.416 54.138C35.208 54.5193 35.802 55.04 36.198 55.7C36.6087 56.36 36.814 57.1007 36.814 57.922C36.814 58.89 36.572 59.682 36.088 60.298C35.604 60.8993 35.0393 61.31 34.394 61.53V61.618C35.23 61.8967 35.89 62.3587 36.374 63.004C36.858 63.6493 37.1 64.478 37.1 65.49C37.1 66.3993 36.8873 67.206 36.462 67.91C36.0513 68.5993 35.4427 69.142 34.636 69.538C33.844 69.934 32.898 70.132 31.798 70.132C30.038 70.132 28.63 69.6993 27.574 68.834C26.5327 67.9687 25.9827 66.6633 25.924 64.918H29.576C29.5907 65.5633 29.774 66.0767 30.126 66.458C30.478 66.8247 30.9913 67.008 31.666 67.008C32.238 67.008 32.678 66.8467 32.986 66.524C33.3087 66.1867 33.47 65.7467 33.47 65.204C33.47 64.5 33.2427 63.994 32.788 63.686C32.348 63.3633 31.6367 63.202 30.654 63.202H29.95V60.144H30.654C31.402 60.144 32.0033 60.0193 32.458 59.77C32.9273 59.506 33.162 59.044 33.162 58.384C33.162 57.856 33.0153 57.4453 32.722 57.152C32.4287 56.8587 32.0253 56.712 31.512 56.712C30.9547 56.712 30.5367 56.8807 30.258 57.218C29.994 57.5553 29.84 57.9733 29.796 58.472H26.122ZM56.1164 59.528C56.1164 60.4227 55.9111 61.244 55.5004 61.992C55.0898 62.7253 54.4591 63.3193 53.6084 63.774C52.7578 64.2287 51.7018 64.456 50.4404 64.456H48.1084V70H44.3464V54.556H50.4404C51.6724 54.556 52.7138 54.7687 53.5644 55.194C54.4151 55.6193 55.0531 56.206 55.4784 56.954C55.9038 57.702 56.1164 58.56 56.1164 59.528ZM50.1544 61.464C50.8731 61.464 51.4084 61.2953 51.7604 60.958C52.1124 60.6207 52.2884 60.144 52.2884 59.528C52.2884 58.912 52.1124 58.4353 51.7604 58.098C51.4084 57.7607 50.8731 57.592 50.1544 57.592H48.1084V61.464H50.1544ZM61.8369 59.77C62.2769 59.0953 62.8269 58.5673 63.4869 58.186C64.1469 57.79 64.8803 57.592 65.6869 57.592V61.574H64.6529C63.7143 61.574 63.0103 61.7793 62.5409 62.19C62.0716 62.586 61.8369 63.29 61.8369 64.302V70H58.0749V57.724H61.8369V59.77ZM73.0731 70.176C71.8704 70.176 70.7851 69.9193 69.8171 69.406C68.8638 68.8927 68.1084 68.1593 67.5511 67.206C67.0084 66.2527 66.7371 65.138 66.7371 63.862C66.7371 62.6007 67.0158 61.4933 67.5731 60.54C68.1304 59.572 68.8931 58.8313 69.8611 58.318C70.8291 57.8047 71.9144 57.548 73.1171 57.548C74.3198 57.548 75.4051 57.8047 76.3731 58.318C77.3411 58.8313 78.1038 59.572 78.6611 60.54C79.2184 61.4933 79.4971 62.6007 79.4971 63.862C79.4971 65.1233 79.2111 66.238 78.6391 67.206C78.0818 68.1593 77.3118 68.8927 76.3291 69.406C75.3611 69.9193 74.2758 70.176 73.0731 70.176ZM73.0731 66.92C73.7918 66.92 74.4004 66.656 74.8991 66.128C75.4124 65.6 75.6691 64.8447 75.6691 63.862C75.6691 62.8793 75.4198 62.124 74.9211 61.596C74.4371 61.068 73.8358 60.804 73.1171 60.804C72.3838 60.804 71.7751 61.068 71.2911 61.596C70.8071 62.1093 70.5651 62.8647 70.5651 63.862C70.5651 64.8447 70.7998 65.6 71.2691 66.128C71.7531 66.656 72.3544 66.92 73.0731 66.92ZM83.3629 56.448C82.7029 56.448 82.1602 56.2573 81.7349 55.876C81.3242 55.48 81.1189 54.996 81.1189 54.424C81.1189 53.8373 81.3242 53.3533 81.7349 52.972C82.1602 52.576 82.7029 52.378 83.3629 52.378C84.0082 52.378 84.5362 52.576 84.9469 52.972C85.3722 53.3533 85.5849 53.8373 85.5849 54.424C85.5849 54.996 85.3722 55.48 84.9469 55.876C84.5362 56.2573 84.0082 56.448 83.3629 56.448ZM85.2549 71.584C85.2549 73.0947 84.8736 74.18 84.1109 74.84C83.3482 75.5147 82.2849 75.852 80.9209 75.852H79.4469V72.662H80.3489C80.7596 72.662 81.0529 72.5813 81.2289 72.42C81.4049 72.2587 81.4929 71.9947 81.4929 71.628V57.724H85.2549V71.584ZM99.5317 63.664C99.5317 64.016 99.5097 64.3827 99.4657 64.764H90.9517C91.0104 65.5267 91.2524 66.1133 91.6777 66.524C92.1177 66.92 92.653 67.118 93.2837 67.118C94.2224 67.118 94.875 66.722 95.2417 65.93H99.2457C99.0404 66.7367 98.6664 67.4627 98.1237 68.108C97.5957 68.7533 96.9284 69.2593 96.1217 69.626C95.315 69.9927 94.413 70.176 93.4157 70.176C92.213 70.176 91.1424 69.9193 90.2037 69.406C89.265 68.8927 88.5317 68.1593 88.0037 67.206C87.4757 66.2527 87.2117 65.138 87.2117 63.862C87.2117 62.586 87.4684 61.4713 87.9817 60.518C88.5097 59.5647 89.243 58.8313 90.1817 58.318C91.1204 57.8047 92.1984 57.548 93.4157 57.548C94.6037 57.548 95.6597 57.7973 96.5837 58.296C97.5077 58.7947 98.2264 59.506 98.7397 60.43C99.2677 61.354 99.5317 62.432 99.5317 63.664ZM95.6817 62.674C95.6817 62.0287 95.4617 61.5153 95.0217 61.134C94.5817 60.7527 94.0317 60.562 93.3717 60.562C92.741 60.562 92.2057 60.7453 91.7657 61.112C91.3404 61.4787 91.0764 61.9993 90.9737 62.674H95.6817ZM100.768 63.862C100.768 62.586 101.025 61.4713 101.538 60.518C102.066 59.5647 102.792 58.8313 103.716 58.318C104.655 57.8047 105.726 57.548 106.928 57.548C108.468 57.548 109.752 57.9513 110.778 58.758C111.82 59.5647 112.502 60.7013 112.824 62.168H108.82C108.483 61.2293 107.83 60.76 106.862 60.76C106.173 60.76 105.623 61.0313 105.212 61.574C104.802 62.102 104.596 62.8647 104.596 63.862C104.596 64.8593 104.802 65.6293 105.212 66.172C105.623 66.7 106.173 66.964 106.862 66.964C107.83 66.964 108.483 66.4947 108.82 65.556H112.824C112.502 66.9933 111.82 68.1227 110.778 68.944C109.737 69.7653 108.454 70.176 106.928 70.176C105.726 70.176 104.655 69.9193 103.716 69.406C102.792 68.8927 102.066 68.1593 101.538 67.206C101.025 66.2527 100.768 65.138 100.768 63.862ZM121.679 66.81V70H119.765C118.401 70 117.337 69.67 116.575 69.01C115.812 68.3353 115.431 67.2427 115.431 65.732V60.848H113.935V57.724H115.431V54.732H119.193V57.724H121.657V60.848H119.193V65.776C119.193 66.1427 119.281 66.4067 119.457 66.568C119.633 66.7293 119.926 66.81 120.337 66.81H121.679ZM128.768 70.176C127.697 70.176 126.744 69.9927 125.908 69.626C125.072 69.2593 124.412 68.7607 123.928 68.13C123.444 67.4847 123.173 66.766 123.114 65.974H126.832C126.876 66.3993 127.074 66.744 127.426 67.008C127.778 67.272 128.211 67.404 128.724 67.404C129.193 67.404 129.553 67.316 129.802 67.14C130.066 66.9493 130.198 66.7073 130.198 66.414C130.198 66.062 130.015 65.8053 129.648 65.644C129.281 65.468 128.687 65.2773 127.866 65.072C126.986 64.8667 126.253 64.654 125.666 64.434C125.079 64.1993 124.573 63.84 124.148 63.356C123.723 62.8573 123.51 62.19 123.51 61.354C123.51 60.65 123.701 60.012 124.082 59.44C124.478 58.8533 125.05 58.3913 125.798 58.054C126.561 57.7167 127.463 57.548 128.504 57.548C130.044 57.548 131.254 57.9293 132.134 58.692C133.029 59.4547 133.542 60.4667 133.674 61.728H130.198C130.139 61.3027 129.949 60.9653 129.626 60.716C129.318 60.4667 128.907 60.342 128.394 60.342C127.954 60.342 127.617 60.43 127.382 60.606C127.147 60.7673 127.03 60.9947 127.03 61.288C127.03 61.64 127.213 61.904 127.58 62.08C127.961 62.256 128.548 62.432 129.34 62.608C130.249 62.8427 130.99 63.0773 131.562 63.312C132.134 63.532 132.633 63.8987 133.058 64.412C133.498 64.9107 133.725 65.5853 133.74 66.436C133.74 67.1547 133.535 67.8 133.124 68.372C132.728 68.9293 132.149 69.3693 131.386 69.692C130.638 70.0147 129.765 70.176 128.768 70.176Z" fill="black"/>
<defs>
<filter id="filter0_d_11_1001" x="0" y="0" width="248" height="102" filterUnits="userSpaceOnUse" color-interpolation-filters="sRGB">
<feFlood flood-opacity="0" result="BackgroundImageFix"/>
<feColorMatrix in="SourceAlpha" type="matrix" values="0 0 0 0 0 0 0 0 0 0 0 0 0 0 0 0 0 0 127 0" result="hardAlpha"/>
<feOffset dx="-1" dy="2"/>
<feGaussianBlur stdDeviation="3"/>
<feComposite in2="hardAlpha" operator="out"/>
<feColorMatrix type="matrix" values="0 0 0 0 0 0 0 0 0 0 0 0 0 0 0 0 0 0 0.05 0"/>
<feBlend mode="normal" in2="BackgroundImageFix" result="effect1_dropShadow_11_1001"/>
<feBlend mode="normal" in="SourceGraphic" in2="effect1_dropShadow_11_1001" result="shape"/>
</filter>
</defs>
</svg>
