<svg width="248" height="102" viewBox="0 0 248 102" fill="none" xmlns="http://www.w3.org/2000/svg">
<g filter="url(#filter0_d_11_265)">
<rect x="7" y="4" width="236" height="90" rx="16" fill="#274492"/>
</g>
<path d="M33.108 19.454V20.786H29.688V32H28.05V20.786H24.612V19.454H33.108ZM39.4263 32.162C38.5023 32.162 37.6623 31.952 36.9063 31.532C36.1623 31.112 35.5743 30.518 35.1423 29.75C34.7223 28.97 34.5123 28.07 34.5123 27.05C34.5123 26.042 34.7283 25.154 35.1603 24.386C35.6043 23.606 36.2043 23.012 36.9603 22.604C37.7163 22.184 38.5623 21.974 39.4983 21.974C40.4343 21.974 41.2803 22.184 42.0363 22.604C42.7923 23.012 43.3863 23.6 43.8183 24.368C44.2623 25.136 44.4843 26.03 44.4843 27.05C44.4843 28.07 44.2563 28.97 43.8003 29.75C43.3563 30.518 42.7503 31.112 41.9823 31.532C41.2143 31.952 40.3623 32.162 39.4263 32.162ZM39.4263 30.722C40.0143 30.722 40.5663 30.584 41.0823 30.308C41.5983 30.032 42.0123 29.618 42.3243 29.066C42.6483 28.514 42.8103 27.842 42.8103 27.05C42.8103 26.258 42.6543 25.586 42.3423 25.034C42.0303 24.482 41.6223 24.074 41.1183 23.81C40.6143 23.534 40.0683 23.396 39.4803 23.396C38.8803 23.396 38.3283 23.534 37.8243 23.81C37.3323 24.074 36.9363 24.482 36.6363 25.034C36.3363 25.586 36.1863 26.258 36.1863 27.05C36.1863 27.854 36.3303 28.532 36.6183 29.084C36.9183 29.636 37.3143 30.05 37.8063 30.326C38.2983 30.59 38.8383 30.722 39.4263 30.722ZM48.636 23.486V29.3C48.636 29.78 48.738 30.122 48.942 30.326C49.146 30.518 49.5 30.614 50.004 30.614H51.21V32H49.734C48.822 32 48.138 31.79 47.682 31.37C47.226 30.95 46.998 30.26 46.998 29.3V23.486H45.72V22.136H46.998V19.652H48.636V22.136H51.21V23.486H48.636ZM52.5826 27.032C52.5826 26.024 52.7866 25.142 53.1946 24.386C53.6026 23.618 54.1606 23.024 54.8686 22.604C55.5886 22.184 56.3866 21.974 57.2626 21.974C58.1266 21.974 58.8766 22.16 59.5126 22.532C60.1486 22.904 60.6226 23.372 60.9346 23.936V22.136H62.5906V32H60.9346V30.164C60.6106 30.74 60.1246 31.22 59.4766 31.604C58.8406 31.976 58.0966 32.162 57.2446 32.162C56.3686 32.162 55.5766 31.946 54.8686 31.514C54.1606 31.082 53.6026 30.476 53.1946 29.696C52.7866 28.916 52.5826 28.028 52.5826 27.032ZM60.9346 27.05C60.9346 26.306 60.7846 25.658 60.4846 25.106C60.1846 24.554 59.7766 24.134 59.2606 23.846C58.7566 23.546 58.1986 23.396 57.5866 23.396C56.9746 23.396 56.4166 23.54 55.9126 23.828C55.4086 24.116 55.0066 24.536 54.7066 25.088C54.4066 25.64 54.2566 26.288 54.2566 27.032C54.2566 27.788 54.4066 28.448 54.7066 29.012C55.0066 29.564 55.4086 29.99 55.9126 30.29C56.4166 30.578 56.9746 30.722 57.5866 30.722C58.1986 30.722 58.7566 30.578 59.2606 30.29C59.7766 29.99 60.1846 29.564 60.4846 29.012C60.7846 28.448 60.9346 27.794 60.9346 27.05ZM66.9967 18.68V32H65.3587V18.68H66.9967ZM82.9752 23.126C82.9752 24.17 82.6152 25.04 81.8952 25.736C81.1872 26.42 80.1012 26.762 78.6372 26.762H76.2252V32H74.5872V19.454H78.6372C80.0532 19.454 81.1272 19.796 81.8592 20.48C82.6032 21.164 82.9752 22.046 82.9752 23.126ZM78.6372 25.412C79.5492 25.412 80.2212 25.214 80.6532 24.818C81.0852 24.422 81.3012 23.858 81.3012 23.126C81.3012 21.578 80.4132 20.804 78.6372 20.804H76.2252V25.412H78.6372ZM86.649 23.738C86.937 23.174 87.345 22.736 87.873 22.424C88.413 22.112 89.067 21.956 89.835 21.956V23.648H89.403C87.567 23.648 86.649 24.644 86.649 26.636V32H85.011V22.136H86.649V23.738ZM96.0278 32.162C95.1038 32.162 94.2638 31.952 93.5078 31.532C92.7638 31.112 92.1758 30.518 91.7438 29.75C91.3238 28.97 91.1138 28.07 91.1138 27.05C91.1138 26.042 91.3298 25.154 91.7618 24.386C92.2058 23.606 92.8058 23.012 93.5618 22.604C94.3178 22.184 95.1638 21.974 96.0998 21.974C97.0358 21.974 97.8818 22.184 98.6378 22.604C99.3938 23.012 99.9878 23.6 100.42 24.368C100.864 25.136 101.086 26.03 101.086 27.05C101.086 28.07 100.858 28.97 100.402 29.75C99.9578 30.518 99.3518 31.112 98.5838 31.532C97.8158 31.952 96.9638 32.162 96.0278 32.162ZM96.0278 30.722C96.6158 30.722 97.1678 30.584 97.6838 30.308C98.1998 30.032 98.6138 29.618 98.9258 29.066C99.2498 28.514 99.4118 27.842 99.4118 27.05C99.4118 26.258 99.2558 25.586 98.9438 25.034C98.6318 24.482 98.2238 24.074 97.7198 23.81C97.2158 23.534 96.6698 23.396 96.0818 23.396C95.4818 23.396 94.9298 23.534 94.4258 23.81C93.9338 24.074 93.5378 24.482 93.2378 25.034C92.9378 25.586 92.7878 26.258 92.7878 27.05C92.7878 27.854 92.9318 28.532 93.2198 29.084C93.5198 29.636 93.9158 30.05 94.4078 30.326C94.8998 30.59 95.4398 30.722 96.0278 30.722ZM104.122 20.534C103.81 20.534 103.546 20.426 103.33 20.21C103.126 19.994 103.024 19.73 103.024 19.418C103.024 19.106 103.126 18.842 103.33 18.626C103.546 18.41 103.81 18.302 104.122 18.302C104.434 18.302 104.692 18.41 104.896 18.626C105.112 18.842 105.22 19.106 105.22 19.418C105.22 19.73 105.112 19.994 104.896 20.21C104.692 20.426 104.434 20.534 104.122 20.534ZM104.932 34.142C104.932 35.018 104.71 35.66 104.266 36.068C103.822 36.476 103.174 36.68 102.322 36.68H101.368V35.294H102.052C102.508 35.294 102.826 35.204 103.006 35.024C103.198 34.844 103.294 34.538 103.294 34.106V22.136H104.932V34.142ZM116.704 26.69C116.704 27.002 116.686 27.332 116.65 27.68H108.766C108.826 28.652 109.156 29.414 109.756 29.966C110.368 30.506 111.106 30.776 111.97 30.776C112.678 30.776 113.266 30.614 113.734 30.29C114.214 29.954 114.55 29.51 114.742 28.958H116.506C116.242 29.906 115.714 30.68 114.922 31.28C114.13 31.868 113.146 32.162 111.97 32.162C111.034 32.162 110.194 31.952 109.45 31.532C108.718 31.112 108.142 30.518 107.722 29.75C107.302 28.97 107.092 28.07 107.092 27.05C107.092 26.03 107.296 25.136 107.704 24.368C108.112 23.6 108.682 23.012 109.414 22.604C110.158 22.184 111.01 21.974 111.97 21.974C112.906 21.974 113.734 22.178 114.454 22.586C115.174 22.994 115.726 23.558 116.11 24.278C116.506 24.986 116.704 25.79 116.704 26.69ZM115.012 26.348C115.012 25.724 114.874 25.19 114.598 24.746C114.322 24.29 113.944 23.948 113.464 23.72C112.996 23.48 112.474 23.36 111.898 23.36C111.07 23.36 110.362 23.624 109.774 24.152C109.198 24.68 108.868 25.412 108.784 26.348H115.012ZM118.254 27.05C118.254 26.03 118.458 25.142 118.866 24.386C119.274 23.618 119.838 23.024 120.558 22.604C121.29 22.184 122.124 21.974 123.06 21.974C124.272 21.974 125.268 22.268 126.048 22.856C126.84 23.444 127.362 24.26 127.614 25.304H125.85C125.682 24.704 125.352 24.23 124.86 23.882C124.38 23.534 123.78 23.36 123.06 23.36C122.124 23.36 121.368 23.684 120.792 24.332C120.216 24.968 119.928 25.874 119.928 27.05C119.928 28.238 120.216 29.156 120.792 29.804C121.368 30.452 122.124 30.776 123.06 30.776C123.78 30.776 124.38 30.608 124.86 30.272C125.34 29.936 125.67 29.456 125.85 28.832H127.614C127.35 29.84 126.822 30.65 126.03 31.262C125.238 31.862 124.248 32.162 123.06 32.162C122.124 32.162 121.29 31.952 120.558 31.532C119.838 31.112 119.274 30.518 118.866 29.75C118.458 28.982 118.254 28.082 118.254 27.05ZM131.798 23.486V29.3C131.798 29.78 131.9 30.122 132.104 30.326C132.308 30.518 132.662 30.614 133.166 30.614H134.372V32H132.896C131.984 32 131.3 31.79 130.844 31.37C130.388 30.95 130.16 30.26 130.16 29.3V23.486H128.882V22.136H130.16V19.652H131.798V22.136H134.372V23.486H131.798Z" fill="white"/>
<path d="M28.63 61.376C27.2513 60.6427 26.562 59.4913 26.562 57.922C26.562 57.13 26.7673 56.4113 27.178 55.766C27.5887 55.106 28.212 54.5853 29.048 54.204C29.884 53.808 30.9107 53.61 32.128 53.61C33.3453 53.61 34.3647 53.808 35.186 54.204C36.022 54.5853 36.6453 55.106 37.056 55.766C37.4667 56.4113 37.672 57.13 37.672 57.922C37.672 58.714 37.4813 59.4033 37.1 59.99C36.7333 60.5767 36.2347 61.0387 35.604 61.376C36.396 61.7573 37.0047 62.2853 37.43 62.96C37.8553 63.62 38.068 64.3973 38.068 65.292C38.068 66.3333 37.804 67.2353 37.276 67.998C36.748 68.746 36.0293 69.318 35.12 69.714C34.2253 70.11 33.228 70.308 32.128 70.308C31.028 70.308 30.0233 70.11 29.114 69.714C28.2193 69.318 27.508 68.746 26.98 67.998C26.452 67.2353 26.188 66.3333 26.188 65.292C26.188 64.3827 26.4007 63.598 26.826 62.938C27.2513 62.2633 27.8527 61.7427 28.63 61.376ZM34.02 58.494C34.02 57.8927 33.844 57.4307 33.492 57.108C33.1547 56.7707 32.7 56.602 32.128 56.602C31.556 56.602 31.094 56.7707 30.742 57.108C30.4047 57.4453 30.236 57.9147 30.236 58.516C30.236 59.088 30.412 59.5427 30.764 59.88C31.116 60.2027 31.5707 60.364 32.128 60.364C32.6853 60.364 33.14 60.1953 33.492 59.858C33.844 59.5207 34.02 59.066 34.02 58.494ZM32.128 63.004C31.4387 63.004 30.8813 63.1947 30.456 63.576C30.0307 63.9427 29.818 64.456 29.818 65.116C29.818 65.732 30.0233 66.238 30.434 66.634C30.8593 67.03 31.424 67.228 32.128 67.228C32.832 67.228 33.382 67.03 33.778 66.634C34.1887 66.238 34.394 65.732 34.394 65.116C34.394 64.4707 34.1813 63.9573 33.756 63.576C33.3453 63.1947 32.8027 63.004 32.128 63.004ZM57.0617 59.528C57.0617 60.4227 56.8564 61.244 56.4457 61.992C56.0351 62.7253 55.4044 63.3193 54.5537 63.774C53.7031 64.2287 52.6471 64.456 51.3857 64.456H49.0537V70H45.2917V54.556H51.3857C52.6177 54.556 53.6591 54.7687 54.5097 55.194C55.3604 55.6193 55.9984 56.206 56.4237 56.954C56.8491 57.702 57.0617 58.56 57.0617 59.528ZM51.0997 61.464C51.8184 61.464 52.3537 61.2953 52.7057 60.958C53.0577 60.6207 53.2337 60.144 53.2337 59.528C53.2337 58.912 53.0577 58.4353 52.7057 58.098C52.3537 57.7607 51.8184 57.592 51.0997 57.592H49.0537V61.464H51.0997ZM62.7823 59.77C63.2223 59.0953 63.7723 58.5673 64.4323 58.186C65.0923 57.79 65.8256 57.592 66.6323 57.592V61.574H65.5983C64.6596 61.574 63.9556 61.7793 63.4863 62.19C63.0169 62.586 62.7823 63.29 62.7823 64.302V70H59.0203V57.724H62.7823V59.77ZM74.0184 70.176C72.8157 70.176 71.7304 69.9193 70.7624 69.406C69.8091 68.8927 69.0537 68.1593 68.4964 67.206C67.9537 66.2527 67.6824 65.138 67.6824 63.862C67.6824 62.6007 67.9611 61.4933 68.5184 60.54C69.0757 59.572 69.8384 58.8313 70.8064 58.318C71.7744 57.8047 72.8597 57.548 74.0624 57.548C75.2651 57.548 76.3504 57.8047 77.3184 58.318C78.2864 58.8313 79.0491 59.572 79.6064 60.54C80.1637 61.4933 80.4424 62.6007 80.4424 63.862C80.4424 65.1233 80.1564 66.238 79.5844 67.206C79.0271 68.1593 78.2571 68.8927 77.2744 69.406C76.3064 69.9193 75.2211 70.176 74.0184 70.176ZM74.0184 66.92C74.7371 66.92 75.3457 66.656 75.8444 66.128C76.3577 65.6 76.6144 64.8447 76.6144 63.862C76.6144 62.8793 76.3651 62.124 75.8664 61.596C75.3824 61.068 74.7811 60.804 74.0624 60.804C73.3291 60.804 72.7204 61.068 72.2364 61.596C71.7524 62.1093 71.5104 62.8647 71.5104 63.862C71.5104 64.8447 71.7451 65.6 72.2144 66.128C72.6984 66.656 73.2997 66.92 74.0184 66.92ZM84.3082 56.448C83.6482 56.448 83.1056 56.2573 82.6802 55.876C82.2696 55.48 82.0642 54.996 82.0642 54.424C82.0642 53.8373 82.2696 53.3533 82.6802 52.972C83.1056 52.576 83.6482 52.378 84.3082 52.378C84.9536 52.378 85.4816 52.576 85.8922 52.972C86.3176 53.3533 86.5302 53.8373 86.5302 54.424C86.5302 54.996 86.3176 55.48 85.8922 55.876C85.4816 56.2573 84.9536 56.448 84.3082 56.448ZM86.2002 71.584C86.2002 73.0947 85.8189 74.18 85.0562 74.84C84.2936 75.5147 83.2302 75.852 81.8662 75.852H80.3922V72.662H81.2942C81.7049 72.662 81.9982 72.5813 82.1742 72.42C82.3502 72.2587 82.4382 71.9947 82.4382 71.628V57.724H86.2002V71.584ZM100.477 63.664C100.477 64.016 100.455 64.3827 100.411 64.764H91.897C91.9557 65.5267 92.1977 66.1133 92.623 66.524C93.063 66.92 93.5983 67.118 94.229 67.118C95.1677 67.118 95.8203 66.722 96.187 65.93H100.191C99.9857 66.7367 99.6117 67.4627 99.069 68.108C98.541 68.7533 97.8737 69.2593 97.067 69.626C96.2603 69.9927 95.3583 70.176 94.361 70.176C93.1583 70.176 92.0877 69.9193 91.149 69.406C90.2103 68.8927 89.477 68.1593 88.949 67.206C88.421 66.2527 88.157 65.138 88.157 63.862C88.157 62.586 88.4137 61.4713 88.927 60.518C89.455 59.5647 90.1883 58.8313 91.127 58.318C92.0657 57.8047 93.1437 57.548 94.361 57.548C95.549 57.548 96.605 57.7973 97.529 58.296C98.453 58.7947 99.1717 59.506 99.685 60.43C100.213 61.354 100.477 62.432 100.477 63.664ZM96.627 62.674C96.627 62.0287 96.407 61.5153 95.967 61.134C95.527 60.7527 94.977 60.562 94.317 60.562C93.6863 60.562 93.151 60.7453 92.711 61.112C92.2857 61.4787 92.0217 61.9993 91.919 62.674H96.627ZM101.714 63.862C101.714 62.586 101.97 61.4713 102.484 60.518C103.012 59.5647 103.738 58.8313 104.662 58.318C105.6 57.8047 106.671 57.548 107.874 57.548C109.414 57.548 110.697 57.9513 111.724 58.758C112.765 59.5647 113.447 60.7013 113.77 62.168H109.766C109.428 61.2293 108.776 60.76 107.808 60.76C107.118 60.76 106.568 61.0313 106.158 61.574C105.747 62.102 105.542 62.8647 105.542 63.862C105.542 64.8593 105.747 65.6293 106.158 66.172C106.568 66.7 107.118 66.964 107.808 66.964C108.776 66.964 109.428 66.4947 109.766 65.556H113.77C113.447 66.9933 112.765 68.1227 111.724 68.944C110.682 69.7653 109.399 70.176 107.874 70.176C106.671 70.176 105.6 69.9193 104.662 69.406C103.738 68.8927 103.012 68.1593 102.484 67.206C101.97 66.2527 101.714 65.138 101.714 63.862ZM122.624 66.81V70H120.71C119.346 70 118.283 69.67 117.52 69.01C116.757 68.3353 116.376 67.2427 116.376 65.732V60.848H114.88V57.724H116.376V54.732H120.138V57.724H122.602V60.848H120.138V65.776C120.138 66.1427 120.226 66.4067 120.402 66.568C120.578 66.7293 120.871 66.81 121.282 66.81H122.624ZM129.713 70.176C128.643 70.176 127.689 69.9927 126.853 69.626C126.017 69.2593 125.357 68.7607 124.873 68.13C124.389 67.4847 124.118 66.766 124.059 65.974H127.777C127.821 66.3993 128.019 66.744 128.371 67.008C128.723 67.272 129.156 67.404 129.669 67.404C130.139 67.404 130.498 67.316 130.747 67.14C131.011 66.9493 131.143 66.7073 131.143 66.414C131.143 66.062 130.96 65.8053 130.593 65.644C130.227 65.468 129.633 65.2773 128.811 65.072C127.931 64.8667 127.198 64.654 126.611 64.434C126.025 64.1993 125.519 63.84 125.093 63.356C124.668 62.8573 124.455 62.19 124.455 61.354C124.455 60.65 124.646 60.012 125.027 59.44C125.423 58.8533 125.995 58.3913 126.743 58.054C127.506 57.7167 128.408 57.548 129.449 57.548C130.989 57.548 132.199 57.9293 133.079 58.692C133.974 59.4547 134.487 60.4667 134.619 61.728H131.143C131.085 61.3027 130.894 60.9653 130.571 60.716C130.263 60.4667 129.853 60.342 129.339 60.342C128.899 60.342 128.562 60.43 128.327 60.606C128.093 60.7673 127.975 60.9947 127.975 61.288C127.975 61.64 128.159 61.904 128.525 62.08C128.907 62.256 129.493 62.432 130.285 62.608C131.195 62.8427 131.935 63.0773 132.507 63.312C133.079 63.532 133.578 63.8987 134.003 64.412C134.443 64.9107 134.671 65.5853 134.685 66.436C134.685 67.1547 134.48 67.8 134.069 68.372C133.673 68.9293 133.094 69.3693 132.331 69.692C131.583 70.0147 130.711 70.176 129.713 70.176Z" fill="white"/>
<defs>
<filter id="filter0_d_11_265" x="0" y="0" width="248" height="102" filterUnits="userSpaceOnUse" color-interpolation-filters="sRGB">
<feFlood flood-opacity="0" result="BackgroundImageFix"/>
<feColorMatrix in="SourceAlpha" type="matrix" values="0 0 0 0 0 0 0 0 0 0 0 0 0 0 0 0 0 0 127 0" result="hardAlpha"/>
<feOffset dx="-1" dy="2"/>
<feGaussianBlur stdDeviation="3"/>
<feComposite in2="hardAlpha" operator="out"/>
<feColorMatrix type="matrix" values="0 0 0 0 0 0 0 0 0 0 0 0 0 0 0 0 0 0 0.05 0"/>
<feBlend mode="normal" in2="BackgroundImageFix" result="effect1_dropShadow_11_265"/>
<feBlend mode="normal" in="SourceGraphic" in2="effect1_dropShadow_11_265" result="shape"/>
</filter>
</defs>
</svg>
