<svg width="143" height="48" viewBox="0 0 143 48" fill="none" xmlns="http://www.w3.org/2000/svg">
<path d="M6.7 4.9C8.18 4.9 9.47333 5.2 10.58 5.8C11.7 6.38667 12.56 7.21333 13.16 8.28C13.76 9.34667 14.06 10.5667 14.06 11.94C14.06 13.3 13.7533 14.5133 13.14 15.58C12.54 16.6467 11.68 17.4867 10.56 18.1C9.45333 18.7 8.16667 19 6.7 19H1.12V4.9H6.7ZM6.4 15.54C7.54667 15.54 8.44667 15.2267 9.1 14.6C9.75333 13.9733 10.08 13.0867 10.08 11.94C10.08 10.78 9.75333 9.88667 9.1 9.26C8.44667 8.62 7.54667 8.3 6.4 8.3H5.04V15.54H6.4ZM19.747 4.9V19H15.827V4.9H19.747ZM27.2994 19.14C25.6594 19.14 24.3127 18.7533 23.2594 17.98C22.206 17.1933 21.6394 16.0733 21.5594 14.62H25.7394C25.7794 15.1133 25.926 15.4733 26.1794 15.7C26.4327 15.9267 26.7594 16.04 27.1594 16.04C27.5194 16.04 27.8127 15.9533 28.0394 15.78C28.2794 15.5933 28.3994 15.34 28.3994 15.02C28.3994 14.6067 28.206 14.2867 27.8194 14.06C27.4327 13.8333 26.806 13.58 25.9394 13.3C25.0194 12.9933 24.2727 12.7 23.6994 12.42C23.1394 12.1267 22.646 11.7067 22.2194 11.16C21.806 10.6 21.5994 9.87333 21.5994 8.98C21.5994 8.07333 21.826 7.3 22.2794 6.66C22.7327 6.00667 23.3594 5.51333 24.1594 5.18C24.9594 4.84667 25.866 4.68 26.8794 4.68C28.5194 4.68 29.826 5.06667 30.7994 5.84C31.786 6.6 32.3127 7.67333 32.3794 9.06H28.1194C28.106 8.63333 27.9727 8.31333 27.7194 8.1C27.4794 7.88667 27.166 7.78 26.7794 7.78C26.486 7.78 26.246 7.86667 26.0594 8.04C25.8727 8.21333 25.7794 8.46 25.7794 8.78C25.7794 9.04667 25.8794 9.28 26.0794 9.48C26.2927 9.66667 26.5527 9.83333 26.8594 9.98C27.166 10.1133 27.6194 10.2867 28.2194 10.5C29.1127 10.8067 29.846 11.1133 30.4194 11.42C31.006 11.7133 31.506 12.1333 31.9194 12.68C32.346 13.2133 32.5594 13.8933 32.5594 14.72C32.5594 15.56 32.346 16.3133 31.9194 16.98C31.506 17.6467 30.8994 18.1733 30.0994 18.56C29.3127 18.9467 28.3794 19.14 27.2994 19.14ZM42.7217 19L38.3017 12.82V19H34.3817V4.9H38.3017V10.98L42.6817 4.9H47.2017L42.0217 11.74L47.4617 19H42.7217ZM55.6534 19.14C54.3334 19.14 53.1201 18.8333 52.0134 18.22C50.9068 17.5933 50.0268 16.7333 49.3734 15.64C48.7334 14.5333 48.4134 13.2867 48.4134 11.9C48.4134 10.5133 48.7334 9.27333 49.3734 8.18C50.0268 7.07333 50.9068 6.21333 52.0134 5.6C53.1201 4.98667 54.3334 4.68 55.6534 4.68C56.9868 4.68 58.2001 4.98667 59.2934 5.6C60.4001 6.21333 61.2734 7.07333 61.9134 8.18C62.5534 9.27333 62.8734 10.5133 62.8734 11.9C62.8734 13.2867 62.5534 14.5333 61.9134 15.64C61.2734 16.7333 60.4001 17.5933 59.2934 18.22C58.1868 18.8333 56.9734 19.14 55.6534 19.14ZM55.6534 15.5C56.6534 15.5 57.4401 15.1733 58.0134 14.52C58.6001 13.8667 58.8934 12.9933 58.8934 11.9C58.8934 10.78 58.6001 9.9 58.0134 9.26C57.4401 8.60667 56.6534 8.28 55.6534 8.28C54.6401 8.28 53.8468 8.60667 53.2734 9.26C52.7001 9.9 52.4134 10.78 52.4134 11.9C52.4134 13.0067 52.7001 13.8867 53.2734 14.54C53.8468 15.18 54.6401 15.5 55.6534 15.5ZM75.7756 9.6C75.7756 10.4533 75.5756 11.2333 75.1756 11.94C74.789 12.6333 74.1956 13.1933 73.3956 13.62C72.609 14.0333 71.6423 14.24 70.4956 14.24H68.5556V19H64.6356V4.9H70.4956C71.629 4.9 72.589 5.1 73.3756 5.5C74.1756 5.9 74.7756 6.45333 75.1756 7.16C75.5756 7.86667 75.7756 8.68 75.7756 9.6ZM70.1156 11.12C71.2223 11.12 71.7756 10.6133 71.7756 9.6C71.7756 8.57333 71.2223 8.06 70.1156 8.06H68.5556V11.12H70.1156ZM81.2705 4.9V19H77.3505V4.9H81.2705ZM96.5628 19H92.6428L87.4228 11.12V19H83.5028V4.9H87.4228L92.6428 12.88V4.9H96.5628V19ZM104.376 4.9C105.856 4.9 107.149 5.2 108.256 5.8C109.376 6.38667 110.236 7.21333 110.836 8.28C111.436 9.34667 111.736 10.5667 111.736 11.94C111.736 13.3 111.429 14.5133 110.816 15.58C110.216 16.6467 109.356 17.4867 108.236 18.1C107.129 18.7 105.842 19 104.376 19H98.7958V4.9H104.376ZM104.076 15.54C105.222 15.54 106.122 15.2267 106.776 14.6C107.429 13.9733 107.756 13.0867 107.756 11.94C107.756 10.78 107.429 9.88667 106.776 9.26C106.122 8.62 105.222 8.3 104.076 8.3H102.716V15.54H104.076ZM122.423 16.7H117.423L116.663 19H112.543L117.683 4.9H122.203L127.323 19H123.183L122.423 16.7ZM121.443 13.7L119.923 9.14L118.423 13.7H121.443ZM137.6 9.54C137.374 9.16667 137.06 8.88 136.66 8.68C136.274 8.48 135.814 8.38 135.28 8.38C134.294 8.38 133.514 8.7 132.94 9.34C132.38 9.98 132.1 10.84 132.1 11.92C132.1 13.1333 132.4 14.06 133 14.7C133.614 15.3267 134.5 15.64 135.66 15.64C137.034 15.64 138.014 15.02 138.6 13.78H134.66V10.96H141.98V14.76C141.674 15.5067 141.22 16.2067 140.62 16.86C140.034 17.5133 139.287 18.0533 138.38 18.48C137.474 18.8933 136.44 19.1 135.28 19.1C133.867 19.1 132.614 18.8 131.52 18.2C130.44 17.5867 129.6 16.74 129 15.66C128.414 14.5667 128.12 13.32 128.12 11.92C128.12 10.5333 128.414 9.3 129 8.22C129.6 7.12667 130.44 6.28 131.52 5.68C132.6 5.06667 133.847 4.76 135.26 4.76C137.034 4.76 138.5 5.18667 139.66 6.04C140.82 6.89333 141.54 8.06 141.82 9.54H137.6Z" fill="#FFDF35"/>
<path d="M18.568 42L15.032 37.056V42H11.896V30.72H15.032V35.584L18.536 30.72H22.152L18.008 36.192L22.36 42H18.568ZM28.9134 42.112C27.8574 42.112 26.8867 41.8667 26.0014 41.376C25.116 40.8747 24.412 40.1867 23.8894 39.312C23.3774 38.4267 23.1214 37.4293 23.1214 36.32C23.1214 35.2107 23.3774 34.2187 23.8894 33.344C24.412 32.4587 25.116 31.7707 26.0014 31.28C26.8867 30.7893 27.8574 30.544 28.9134 30.544C29.98 30.544 30.9507 30.7893 31.8254 31.28C32.7107 31.7707 33.4094 32.4587 33.9214 33.344C34.4334 34.2187 34.6894 35.2107 34.6894 36.32C34.6894 37.4293 34.4334 38.4267 33.9214 39.312C33.4094 40.1867 32.7107 40.8747 31.8254 41.376C30.94 41.8667 29.9694 42.112 28.9134 42.112ZM28.9134 39.2C29.7134 39.2 30.3427 38.9387 30.8014 38.416C31.2707 37.8933 31.5054 37.1947 31.5054 36.32C31.5054 35.424 31.2707 34.72 30.8014 34.208C30.3427 33.6853 29.7134 33.424 28.9134 33.424C28.1027 33.424 27.468 33.6853 27.0094 34.208C26.5507 34.72 26.3214 35.424 26.3214 36.32C26.3214 37.2053 26.5507 37.9093 27.0094 38.432C27.468 38.944 28.1027 39.2 28.9134 39.2ZM44.5951 30.72V33.216H41.5871V42H38.4511V33.216H35.4751V30.72H44.5951ZM52.8914 40.16H48.8914L48.2834 42H44.9874L49.0994 30.72H52.7154L56.8114 42H53.4994L52.8914 40.16ZM52.1074 37.76L50.8914 34.112L49.6914 37.76H52.1074ZM74.064 30.72V42H70.928V35.776L68.8 42H66.176L64.032 35.728V42H60.896V30.72H64.688L67.52 38.048L70.288 30.72H74.064ZM82.9851 40.16H78.9851L78.3771 42H75.0811L79.1931 30.72H82.8091L86.9051 42H83.5931L82.9851 40.16ZM82.2011 37.76L80.9851 34.112L79.7851 37.76H82.2011ZM91.0633 39.6H94.5673V42H87.9273V30.72H91.0633V39.6ZM102.923 40.16H98.9226L98.3146 42H95.0186L99.1306 30.72H102.747L106.843 42H103.531L102.923 40.16ZM102.139 37.76L100.923 34.112L99.7226 37.76H102.139ZM118.313 42H115.177L111.001 35.696V42H107.865V30.72H111.001L115.177 37.104V30.72H118.313V42ZM127.299 34.432C127.118 34.1333 126.867 33.904 126.547 33.744C126.238 33.584 125.87 33.504 125.443 33.504C124.654 33.504 124.03 33.76 123.571 34.272C123.123 34.784 122.899 35.472 122.899 36.336C122.899 37.3067 123.139 38.048 123.619 38.56C124.11 39.0613 124.819 39.312 125.747 39.312C126.846 39.312 127.63 38.816 128.099 37.824H124.947V35.568H130.803V38.608C130.558 39.2053 130.195 39.7653 129.715 40.288C129.246 40.8107 128.648 41.2427 127.923 41.584C127.198 41.9147 126.371 42.08 125.443 42.08C124.312 42.08 123.31 41.84 122.435 41.36C121.571 40.8693 120.899 40.192 120.419 39.328C119.95 38.4533 119.715 37.456 119.715 36.336C119.715 35.2267 119.95 34.24 120.419 33.376C120.899 32.5013 121.571 31.824 122.435 31.344C123.299 30.8533 124.296 30.608 125.427 30.608C126.846 30.608 128.019 30.9493 128.947 31.632C129.875 32.3147 130.451 33.248 130.675 34.432H127.299Z" fill="white"/>
</svg>
