<svg width="105" height="28" viewBox="0 0 105 28" fill="none" xmlns="http://www.w3.org/2000/svg">
<rect width="105" height="28" rx="5" fill="#FFE7E7"/>
<path d="M9.968 17.52C10.992 16.6347 11.7973 15.9093 12.384 15.344C12.9813 14.768 13.4773 14.1707 13.872 13.552C14.2667 12.9333 14.464 12.3147 14.464 11.696C14.464 11.056 14.3093 10.5547 14 10.192C13.7013 9.82933 13.2267 9.648 12.576 9.648C11.9467 9.648 11.456 9.85067 11.104 10.256C10.7627 10.6507 10.5813 11.184 10.56 11.856H8.8C8.832 10.64 9.19467 9.712 9.888 9.072C10.592 8.42133 11.4827 8.096 12.56 8.096C13.7227 8.096 14.6293 8.416 15.28 9.056C15.9413 9.696 16.272 10.5493 16.272 11.616C16.272 12.384 16.0747 13.1253 15.68 13.84C15.296 14.544 14.832 15.1787 14.288 15.744C13.7547 16.2987 13.072 16.944 12.24 17.68L11.52 18.32H16.592V19.84H8.816V18.512L9.968 17.52ZM31.5186 8.88V20H29.6946V15.136H24.4626V20H22.6386V8.88H24.4626V13.648H29.6946V8.88H31.5186ZM33.3359 15.552C33.3359 14.6667 33.5172 13.8827 33.8799 13.2C34.2532 12.5173 34.7545 11.9893 35.3839 11.616C36.0239 11.232 36.7279 11.04 37.4959 11.04C38.1892 11.04 38.7919 11.1787 39.3039 11.456C39.8265 11.7227 40.2425 12.0587 40.5519 12.464V11.184H42.3919V20H40.5519V18.688C40.2425 19.104 39.8212 19.4507 39.2879 19.728C38.7545 20.0053 38.1465 20.144 37.4639 20.144C36.7065 20.144 36.0132 19.952 35.3839 19.568C34.7545 19.1733 34.2532 18.6293 33.8799 17.936C33.5172 17.232 33.3359 16.4373 33.3359 15.552ZM40.5519 15.584C40.5519 14.976 40.4239 14.448 40.1679 14C39.9225 13.552 39.5972 13.2107 39.1919 12.976C38.7865 12.7413 38.3492 12.624 37.8799 12.624C37.4105 12.624 36.9732 12.7413 36.5679 12.976C36.1625 13.2 35.8319 13.536 35.5759 13.984C35.3305 14.4213 35.2079 14.944 35.2079 15.552C35.2079 16.16 35.3305 16.6933 35.5759 17.152C35.8319 17.6107 36.1625 17.9627 36.5679 18.208C36.9839 18.4427 37.4212 18.56 37.8799 18.56C38.3492 18.56 38.7865 18.4427 39.1919 18.208C39.5972 17.9733 39.9225 17.632 40.1679 17.184C40.4239 16.7253 40.5519 16.192 40.5519 15.584ZM46.6356 12.464C46.9023 12.016 47.2543 11.6693 47.6916 11.424C48.1396 11.168 48.6676 11.04 49.2756 11.04V12.928H48.8116C48.097 12.928 47.553 13.1093 47.1796 13.472C46.817 13.8347 46.6356 14.464 46.6356 15.36V20H44.8116V11.184H46.6356V12.464ZM51.9042 10.016C51.5736 10.016 51.2962 9.904 51.0722 9.68C50.8482 9.456 50.7362 9.17867 50.7362 8.848C50.7362 8.51733 50.8482 8.24 51.0722 8.016C51.2962 7.792 51.5736 7.68 51.9042 7.68C52.2242 7.68 52.4962 7.792 52.7202 8.016C52.9442 8.24 53.0562 8.51733 53.0562 8.848C53.0562 9.17867 52.9442 9.456 52.7202 9.68C52.4962 9.904 52.2242 10.016 51.9042 10.016ZM52.8002 11.184V20H50.9762V11.184H52.8002ZM61.2232 18.528H64.9832V20H59.3992V8.88H61.2232V18.528ZM65.9246 15.552C65.9246 14.6667 66.106 13.8827 66.4686 13.2C66.842 12.5173 67.3433 11.9893 67.9726 11.616C68.6126 11.232 69.3166 11.04 70.0846 11.04C70.778 11.04 71.3806 11.1787 71.8926 11.456C72.4153 11.7227 72.8313 12.0587 73.1406 12.464V11.184H74.9806V20H73.1406V18.688C72.8313 19.104 72.41 19.4507 71.8766 19.728C71.3433 20.0053 70.7353 20.144 70.0526 20.144C69.2953 20.144 68.602 19.952 67.9726 19.568C67.3433 19.1733 66.842 18.6293 66.4686 17.936C66.106 17.232 65.9246 16.4373 65.9246 15.552ZM73.1406 15.584C73.1406 14.976 73.0126 14.448 72.7566 14C72.5113 13.552 72.186 13.2107 71.7806 12.976C71.3753 12.7413 70.938 12.624 70.4686 12.624C69.9993 12.624 69.562 12.7413 69.1566 12.976C68.7513 13.2 68.4206 13.536 68.1646 13.984C67.9193 14.4213 67.7966 14.944 67.7966 15.552C67.7966 16.16 67.9193 16.6933 68.1646 17.152C68.4206 17.6107 68.7513 17.9627 69.1566 18.208C69.5726 18.4427 70.01 18.56 70.4686 18.56C70.938 18.56 71.3753 18.4427 71.7806 18.208C72.186 17.9733 72.5113 17.632 72.7566 17.184C73.0126 16.7253 73.1406 16.192 73.1406 15.584ZM80.9524 11.04C81.635 11.04 82.2377 11.1787 82.7604 11.456C83.2937 11.7227 83.7097 12.0587 84.0084 12.464V11.184H85.8484V20.144C85.8484 20.9547 85.6777 21.6747 85.3364 22.304C84.995 22.944 84.499 23.4453 83.8484 23.808C83.2084 24.1707 82.4404 24.352 81.5444 24.352C80.3497 24.352 79.3577 24.0693 78.5684 23.504C77.779 22.9493 77.331 22.192 77.2244 21.232H79.0324C79.171 21.6907 79.4644 22.0587 79.9124 22.336C80.371 22.624 80.915 22.768 81.5444 22.768C82.2804 22.768 82.8724 22.544 83.3204 22.096C83.779 21.648 84.0084 20.9973 84.0084 20.144V18.672C83.699 19.088 83.2777 19.44 82.7444 19.728C82.2217 20.0053 81.6244 20.144 80.9524 20.144C80.1844 20.144 79.4804 19.952 78.8404 19.568C78.211 19.1733 77.7097 18.6293 77.3364 17.936C76.9737 17.232 76.7924 16.4373 76.7924 15.552C76.7924 14.6667 76.9737 13.8827 77.3364 13.2C77.7097 12.5173 78.211 11.9893 78.8404 11.616C79.4804 11.232 80.1844 11.04 80.9524 11.04ZM84.0084 15.584C84.0084 14.976 83.8804 14.448 83.6244 14C83.379 13.552 83.0537 13.2107 82.6484 12.976C82.243 12.7413 81.8057 12.624 81.3364 12.624C80.867 12.624 80.4297 12.7413 80.0244 12.976C79.619 13.2 79.2884 13.536 79.0324 13.984C78.787 14.4213 78.6644 14.944 78.6644 15.552C78.6644 16.16 78.787 16.6933 79.0324 17.152C79.2884 17.6107 79.619 17.9627 80.0244 18.208C80.4404 18.4427 80.8777 18.56 81.3364 18.56C81.8057 18.56 82.243 18.4427 82.6484 18.208C83.0537 17.9733 83.379 17.632 83.6244 17.184C83.8804 16.7253 84.0084 16.192 84.0084 15.584ZM89.1961 10.016C88.8655 10.016 88.5881 9.904 88.3641 9.68C88.1401 9.456 88.0281 9.17867 88.0281 8.848C88.0281 8.51733 88.1401 8.24 88.3641 8.016C88.5881 7.792 88.8655 7.68 89.1961 7.68C89.5161 7.68 89.7881 7.792 90.0121 8.016C90.2361 8.24 90.3481 8.51733 90.3481 8.848C90.3481 9.17867 90.2361 9.456 90.0121 9.68C89.7881 9.904 89.5161 10.016 89.1961 10.016ZM90.0921 11.184V20H88.2681V11.184H90.0921ZM94.7989 8.88L94.5909 16.64H93.0709L92.8629 8.88H94.7989ZM93.8869 20.112C93.5562 20.112 93.2789 20 93.0549 19.776C92.8309 19.552 92.7189 19.2747 92.7189 18.944C92.7189 18.6133 92.8309 18.336 93.0549 18.112C93.2789 17.888 93.5562 17.776 93.8869 17.776C94.2069 17.776 94.4789 17.888 94.7029 18.112C94.9269 18.336 95.0389 18.6133 95.0389 18.944C95.0389 19.2747 94.9269 19.552 94.7029 19.776C94.4789 20 94.2069 20.112 93.8869 20.112Z" fill="#F55050"/>
</svg>
