<svg width="378" height="137" viewBox="0 0 378 137" fill="none" xmlns="http://www.w3.org/2000/svg">
<g filter="url(#filter0_b_11_413)">
<path d="M6.2 59.14C5.22667 59.14 4.34667 58.9733 3.56 58.64C2.78667 58.3067 2.17333 57.8267 1.72 57.2C1.26667 56.5733 1.03333 55.8333 1.02 54.98H4.02C4.06 55.5533 4.26 56.0067 4.62 56.34C4.99333 56.6733 5.5 56.84 6.14 56.84C6.79333 56.84 7.30667 56.6867 7.68 56.38C8.05333 56.06 8.24 55.6467 8.24 55.14C8.24 54.7267 8.11333 54.3867 7.86 54.12C7.60667 53.8533 7.28667 53.6467 6.9 53.5C6.52667 53.34 6.00667 53.1667 5.34 52.98C4.43333 52.7133 3.69333 52.4533 3.12 52.2C2.56 51.9333 2.07333 51.54 1.66 51.02C1.26 50.4867 1.06 49.78 1.06 48.9C1.06 48.0733 1.26667 47.3533 1.68 46.74C2.09333 46.1267 2.67333 45.66 3.42 45.34C4.16667 45.0067 5.02 44.84 5.98 44.84C7.42 44.84 8.58667 45.1933 9.48 45.9C10.3867 46.5933 10.8867 47.5667 10.98 48.82H7.9C7.87333 48.34 7.66667 47.9467 7.28 47.64C6.90667 47.32 6.40667 47.16 5.78 47.16C5.23333 47.16 4.79333 47.3 4.46 47.58C4.14 47.86 3.98 48.2667 3.98 48.8C3.98 49.1733 4.1 49.4867 4.34 49.74C4.59333 49.98 4.9 50.18 5.26 50.34C5.63333 50.4867 6.15333 50.66 6.82 50.86C7.72667 51.1267 8.46667 51.3933 9.04 51.66C9.61333 51.9267 10.1067 52.3267 10.52 52.86C10.9333 53.3933 11.14 54.0933 11.14 54.96C11.14 55.7067 10.9467 56.4 10.56 57.04C10.1733 57.68 9.60667 58.1933 8.86 58.58C8.11333 58.9533 7.22667 59.14 6.2 59.14ZM18.4875 59.18C17.4208 59.18 16.4608 58.9467 15.6075 58.48C14.7542 58 14.0808 57.3267 13.5875 56.46C13.1075 55.5933 12.8675 54.5933 12.8675 53.46C12.8675 52.3267 13.1142 51.3267 13.6075 50.46C14.1142 49.5933 14.8008 48.9267 15.6675 48.46C16.5342 47.98 17.5008 47.74 18.5675 47.74C19.6342 47.74 20.6008 47.98 21.4675 48.46C22.3342 48.9267 23.0142 49.5933 23.5075 50.46C24.0142 51.3267 24.2675 52.3267 24.2675 53.46C24.2675 54.5933 24.0075 55.5933 23.4875 56.46C22.9808 57.3267 22.2875 58 21.4075 58.48C20.5408 58.9467 19.5675 59.18 18.4875 59.18ZM18.4875 56.74C18.9942 56.74 19.4675 56.62 19.9075 56.38C20.3608 56.1267 20.7208 55.7533 20.9875 55.26C21.2542 54.7667 21.3875 54.1667 21.3875 53.46C21.3875 52.4067 21.1075 51.6 20.5475 51.04C20.0008 50.4667 19.3275 50.18 18.5275 50.18C17.7275 50.18 17.0542 50.4667 16.5075 51.04C15.9742 51.6 15.7075 52.4067 15.7075 53.46C15.7075 54.5133 15.9675 55.3267 16.4875 55.9C17.0208 56.46 17.6875 56.74 18.4875 56.74ZM30.5614 59.18C29.6547 59.18 28.8414 59.02 28.1214 58.7C27.4014 58.3667 26.8281 57.92 26.4014 57.36C25.9881 56.8 25.7614 56.18 25.7214 55.5H28.5414C28.5947 55.9267 28.8014 56.28 29.1614 56.56C29.5347 56.84 29.9947 56.98 30.5414 56.98C31.0747 56.98 31.4881 56.8733 31.7814 56.66C32.0881 56.4467 32.2414 56.1733 32.2414 55.84C32.2414 55.48 32.0547 55.2133 31.6814 55.04C31.3214 54.8533 30.7414 54.6533 29.9414 54.44C29.1147 54.24 28.4347 54.0333 27.9014 53.82C27.3814 53.6067 26.9281 53.28 26.5414 52.84C26.1681 52.4 25.9814 51.8067 25.9814 51.06C25.9814 50.4467 26.1547 49.8867 26.5014 49.38C26.8614 48.8733 27.3681 48.4733 28.0214 48.18C28.6881 47.8867 29.4681 47.74 30.3614 47.74C31.6814 47.74 32.7347 48.0733 33.5214 48.74C34.3081 49.3933 34.7414 50.28 34.8214 51.4H32.1414C32.1014 50.96 31.9147 50.6133 31.5814 50.36C31.2614 50.0933 30.8281 49.96 30.2814 49.96C29.7747 49.96 29.3814 50.0533 29.1014 50.24C28.8347 50.4267 28.7014 50.6867 28.7014 51.02C28.7014 51.3933 28.8881 51.68 29.2614 51.88C29.6347 52.0667 30.2147 52.26 31.0014 52.46C31.8014 52.66 32.4614 52.8667 32.9814 53.08C33.5014 53.2933 33.9481 53.6267 34.3214 54.08C34.7081 54.52 34.9081 55.1067 34.9214 55.84C34.9214 56.48 34.7414 57.0533 34.3814 57.56C34.0347 58.0667 33.5281 58.4667 32.8614 58.76C32.2081 59.04 31.4414 59.18 30.5614 59.18ZM38.6398 46.6C38.1465 46.6 37.7332 46.4467 37.3998 46.14C37.0798 45.82 36.9198 45.4267 36.9198 44.96C36.9198 44.4933 37.0798 44.1067 37.3998 43.8C37.7332 43.48 38.1465 43.32 38.6398 43.32C39.1332 43.32 39.5398 43.48 39.8598 43.8C40.1932 44.1067 40.3598 44.4933 40.3598 44.96C40.3598 45.4267 40.1932 45.82 39.8598 46.14C39.5398 46.4467 39.1332 46.6 38.6398 46.6ZM40.0198 47.92V59H37.2198V47.92H40.0198ZM42.0662 53.42C42.0662 52.3 42.2862 51.3067 42.7262 50.44C43.1796 49.5733 43.7863 48.9067 44.5463 48.44C45.3196 47.9733 46.1796 47.74 47.1263 47.74C47.9529 47.74 48.6729 47.9067 49.2863 48.24C49.9129 48.5733 50.4129 48.9933 50.7863 49.5V47.92H53.6063V59H50.7863V57.38C50.4263 57.9 49.9263 58.3333 49.2863 58.68C48.6596 59.0133 47.9329 59.18 47.1063 59.18C46.1729 59.18 45.3196 58.94 44.5463 58.46C43.7863 57.98 43.1796 57.3067 42.7262 56.44C42.2862 55.56 42.0662 54.5533 42.0662 53.42ZM50.7863 53.46C50.7863 52.78 50.6529 52.2 50.3863 51.72C50.1196 51.2267 49.7596 50.8533 49.3063 50.6C48.8529 50.3333 48.3663 50.2 47.8463 50.2C47.3263 50.2 46.8463 50.3267 46.4062 50.58C45.9663 50.8333 45.6063 51.2067 45.3263 51.7C45.0596 52.18 44.9263 52.7533 44.9263 53.42C44.9263 54.0867 45.0596 54.6733 45.3263 55.18C45.6063 55.6733 45.9663 56.0533 46.4062 56.32C46.8596 56.5867 47.3396 56.72 47.8463 56.72C48.3663 56.72 48.8529 56.5933 49.3063 56.34C49.7596 56.0733 50.1196 55.7 50.3863 55.22C50.6529 54.7267 50.7863 54.14 50.7863 53.46ZM59.1409 44.2V59H56.3409V44.2H59.1409ZM63.3273 46.6C62.834 46.6 62.4207 46.4467 62.0873 46.14C61.7673 45.82 61.6073 45.4267 61.6073 44.96C61.6073 44.4933 61.7673 44.1067 62.0873 43.8C62.4207 43.48 62.834 43.32 63.3273 43.32C63.8207 43.32 64.2273 43.48 64.5473 43.8C64.8807 44.1067 65.0473 44.4933 65.0473 44.96C65.0473 45.4267 64.8807 45.82 64.5473 46.14C64.2273 46.4467 63.8207 46.6 63.3273 46.6ZM64.7073 47.92V59H61.9073V47.92H64.7073ZM71.7138 59.18C70.8071 59.18 69.9938 59.02 69.2738 58.7C68.5538 58.3667 67.9804 57.92 67.5538 57.36C67.1404 56.8 66.9138 56.18 66.8738 55.5H69.6938C69.7471 55.9267 69.9538 56.28 70.3138 56.56C70.6871 56.84 71.1471 56.98 71.6938 56.98C72.2271 56.98 72.6404 56.8733 72.9338 56.66C73.2404 56.4467 73.3938 56.1733 73.3938 55.84C73.3938 55.48 73.2071 55.2133 72.8338 55.04C72.4738 54.8533 71.8938 54.6533 71.0938 54.44C70.2671 54.24 69.5871 54.0333 69.0538 53.82C68.5338 53.6067 68.0804 53.28 67.6938 52.84C67.3204 52.4 67.1338 51.8067 67.1338 51.06C67.1338 50.4467 67.3071 49.8867 67.6538 49.38C68.0138 48.8733 68.5204 48.4733 69.1738 48.18C69.8404 47.8867 70.6204 47.74 71.5138 47.74C72.8338 47.74 73.8871 48.0733 74.6738 48.74C75.4604 49.3933 75.8938 50.28 75.9738 51.4H73.2938C73.2538 50.96 73.0671 50.6133 72.7338 50.36C72.4138 50.0933 71.9804 49.96 71.4338 49.96C70.9271 49.96 70.5338 50.0533 70.2538 50.24C69.9871 50.4267 69.8538 50.6867 69.8538 51.02C69.8538 51.3933 70.0404 51.68 70.4138 51.88C70.7871 52.0667 71.3671 52.26 72.1538 52.46C72.9538 52.66 73.6138 52.8667 74.1338 53.08C74.6538 53.2933 75.1004 53.6267 75.4738 54.08C75.8604 54.52 76.0604 55.1067 76.0738 55.84C76.0738 56.48 75.8938 57.0533 75.5338 57.56C75.1871 58.0667 74.6804 58.4667 74.0138 58.76C73.3604 59.04 72.5938 59.18 71.7138 59.18ZM77.6522 53.42C77.6522 52.3 77.8722 51.3067 78.3122 50.44C78.7655 49.5733 79.3722 48.9067 80.1322 48.44C80.9055 47.9733 81.7655 47.74 82.7122 47.74C83.5389 47.74 84.2589 47.9067 84.8722 48.24C85.4989 48.5733 85.9989 48.9933 86.3722 49.5V47.92H89.1922V59H86.3722V57.38C86.0122 57.9 85.5122 58.3333 84.8722 58.68C84.2455 59.0133 83.5189 59.18 82.6922 59.18C81.7589 59.18 80.9055 58.94 80.1322 58.46C79.3722 57.98 78.7655 57.3067 78.3122 56.44C77.8722 55.56 77.6522 54.5533 77.6522 53.42ZM86.3722 53.46C86.3722 52.78 86.2389 52.2 85.9722 51.72C85.7055 51.2267 85.3455 50.8533 84.8922 50.6C84.4389 50.3333 83.9522 50.2 83.4322 50.2C82.9122 50.2 82.4322 50.3267 81.9922 50.58C81.5522 50.8333 81.1922 51.2067 80.9122 51.7C80.6455 52.18 80.5122 52.7533 80.5122 53.42C80.5122 54.0867 80.6455 54.6733 80.9122 55.18C81.1922 55.6733 81.5522 56.0533 81.9922 56.32C82.4455 56.5867 82.9255 56.72 83.4322 56.72C83.9522 56.72 84.4389 56.5933 84.8922 56.34C85.3455 56.0733 85.7055 55.7 85.9722 55.22C86.2389 54.7267 86.3722 54.14 86.3722 53.46ZM96.1669 59.18C95.2602 59.18 94.4469 59.02 93.7269 58.7C93.0069 58.3667 92.4335 57.92 92.0069 57.36C91.5935 56.8 91.3669 56.18 91.3269 55.5H94.1469C94.2002 55.9267 94.4069 56.28 94.7669 56.56C95.1402 56.84 95.6002 56.98 96.1469 56.98C96.6802 56.98 97.0935 56.8733 97.3869 56.66C97.6935 56.4467 97.8469 56.1733 97.8469 55.84C97.8469 55.48 97.6602 55.2133 97.2869 55.04C96.9269 54.8533 96.3469 54.6533 95.5469 54.44C94.7202 54.24 94.0402 54.0333 93.5069 53.82C92.9869 53.6067 92.5335 53.28 92.1469 52.84C91.7735 52.4 91.5869 51.8067 91.5869 51.06C91.5869 50.4467 91.7602 49.8867 92.1069 49.38C92.4669 48.8733 92.9735 48.4733 93.6269 48.18C94.2935 47.8867 95.0735 47.74 95.9669 47.74C97.2869 47.74 98.3402 48.0733 99.1269 48.74C99.9135 49.3933 100.347 50.28 100.427 51.4H97.7469C97.7069 50.96 97.5202 50.6133 97.1869 50.36C96.8669 50.0933 96.4335 49.96 95.8869 49.96C95.3802 49.96 94.9869 50.0533 94.7069 50.24C94.4402 50.4267 94.3069 50.6867 94.3069 51.02C94.3069 51.3933 94.4935 51.68 94.8669 51.88C95.2402 52.0667 95.8202 52.26 96.6069 52.46C97.4069 52.66 98.0669 52.8667 98.5869 53.08C99.1069 53.2933 99.5535 53.6267 99.9269 54.08C100.314 54.52 100.514 55.1067 100.527 55.84C100.527 56.48 100.347 57.0533 99.9869 57.56C99.6402 58.0667 99.1335 58.4667 98.4669 58.76C97.8135 59.04 97.0469 59.18 96.1669 59.18ZM104.245 46.6C103.752 46.6 103.339 46.4467 103.005 46.14C102.685 45.82 102.525 45.4267 102.525 44.96C102.525 44.4933 102.685 44.1067 103.005 43.8C103.339 43.48 103.752 43.32 104.245 43.32C104.739 43.32 105.145 43.48 105.465 43.8C105.799 44.1067 105.965 44.4933 105.965 44.96C105.965 45.4267 105.799 45.82 105.465 46.14C105.145 46.4467 104.739 46.6 104.245 46.6ZM105.625 47.92V59H102.825V47.92H105.625ZM115.917 45.04V53.68C115.917 54.6267 116.164 55.3533 116.657 55.86C117.151 56.3533 117.844 56.6 118.737 56.6C119.644 56.6 120.344 56.3533 120.837 55.86C121.331 55.3533 121.577 54.6267 121.577 53.68V45.04H124.397V53.66C124.397 54.8467 124.137 55.8533 123.617 56.68C123.111 57.4933 122.424 58.1067 121.557 58.52C120.704 58.9333 119.751 59.14 118.697 59.14C117.657 59.14 116.711 58.9333 115.857 58.52C115.017 58.1067 114.351 57.4933 113.857 56.68C113.364 55.8533 113.117 54.8467 113.117 53.66V45.04H115.917ZM142.323 45.04V59H139.523V49.92L135.783 59H133.663L129.903 49.92V59H127.103V45.04H130.283L134.723 55.42L139.163 45.04H142.323ZM152.971 59L147.891 52.78V59H145.091V45.04H147.891V51.3L152.971 45.04H156.351L150.591 51.96L156.511 59H152.971ZM173.573 45.04V59H170.773V49.92L167.033 59H164.913L161.153 49.92V59H158.353V45.04H161.533L165.973 55.42L170.413 45.04H173.573ZM188.987 59L183.907 52.78V59H181.107V45.04H183.907V51.3L188.987 45.04H192.367L186.607 51.96L192.527 59H188.987ZM199.288 59.18C198.222 59.18 197.262 58.9467 196.408 58.48C195.555 58 194.882 57.3267 194.388 56.46C193.908 55.5933 193.668 54.5933 193.668 53.46C193.668 52.3267 193.915 51.3267 194.408 50.46C194.915 49.5933 195.602 48.9267 196.468 48.46C197.335 47.98 198.302 47.74 199.368 47.74C200.435 47.74 201.402 47.98 202.268 48.46C203.135 48.9267 203.815 49.5933 204.308 50.46C204.815 51.3267 205.068 52.3267 205.068 53.46C205.068 54.5933 204.808 55.5933 204.288 56.46C203.782 57.3267 203.088 58 202.208 58.48C201.342 58.9467 200.368 59.18 199.288 59.18ZM199.288 56.74C199.795 56.74 200.268 56.62 200.708 56.38C201.162 56.1267 201.522 55.7533 201.788 55.26C202.055 54.7667 202.188 54.1667 202.188 53.46C202.188 52.4067 201.908 51.6 201.348 51.04C200.802 50.4667 200.128 50.18 199.328 50.18C198.528 50.18 197.855 50.4667 197.308 51.04C196.775 51.6 196.508 52.4067 196.508 53.46C196.508 54.5133 196.768 55.3267 197.288 55.9C197.822 56.46 198.488 56.74 199.288 56.74ZM210.382 50.22V55.58C210.382 55.9533 210.469 56.2267 210.642 56.4C210.829 56.56 211.136 56.64 211.562 56.64H212.862V59H211.102C208.742 59 207.562 57.8533 207.562 55.56V50.22H206.242V47.92H207.562V45.18H210.382V47.92H212.862V50.22H210.382ZM214.156 53.42C214.156 52.3 214.376 51.3067 214.816 50.44C215.269 49.5733 215.876 48.9067 216.636 48.44C217.409 47.9733 218.269 47.74 219.216 47.74C220.043 47.74 220.763 47.9067 221.376 48.24C222.003 48.5733 222.503 48.9933 222.876 49.5V47.92H225.696V59H222.876V57.38C222.516 57.9 222.016 58.3333 221.376 58.68C220.749 59.0133 220.023 59.18 219.196 59.18C218.263 59.18 217.409 58.94 216.636 58.46C215.876 57.98 215.269 57.3067 214.816 56.44C214.376 55.56 214.156 54.5533 214.156 53.42ZM222.876 53.46C222.876 52.78 222.743 52.2 222.476 51.72C222.209 51.2267 221.849 50.8533 221.396 50.6C220.943 50.3333 220.456 50.2 219.936 50.2C219.416 50.2 218.936 50.3267 218.496 50.58C218.056 50.8333 217.696 51.2067 217.416 51.7C217.149 52.18 217.016 52.7533 217.016 53.42C217.016 54.0867 217.149 54.6733 217.416 55.18C217.696 55.6733 218.056 56.0533 218.496 56.32C218.949 56.5867 219.429 56.72 219.936 56.72C220.456 56.72 220.943 56.5933 221.396 56.34C221.849 56.0733 222.209 55.7 222.476 55.22C222.743 54.7267 222.876 54.14 222.876 53.46ZM16.6 69.04V83H13.8V73.92L10.06 83H7.94L4.18 73.92V83H1.38V69.04H4.56L9 79.42L13.44 69.04H16.6ZM18.6483 77.42C18.6483 76.3 18.8683 75.3067 19.3083 74.44C19.7616 73.5733 20.3683 72.9067 21.1283 72.44C21.9016 71.9733 22.7616 71.74 23.7083 71.74C24.5349 71.74 25.2549 71.9067 25.8683 72.24C26.4949 72.5733 26.9949 72.9933 27.3683 73.5V71.92H30.1883V83H27.3683V81.38C27.0083 81.9 26.5083 82.3333 25.8683 82.68C25.2416 83.0133 24.5149 83.18 23.6883 83.18C22.7549 83.18 21.9016 82.94 21.1283 82.46C20.3683 81.98 19.7616 81.3067 19.3083 80.44C18.8683 79.56 18.6483 78.5533 18.6483 77.42ZM27.3683 77.46C27.3683 76.78 27.2349 76.2 26.9683 75.72C26.7016 75.2267 26.3416 74.8533 25.8883 74.6C25.4349 74.3333 24.9483 74.2 24.4283 74.2C23.9083 74.2 23.4283 74.3267 22.9883 74.58C22.5483 74.8333 22.1883 75.2067 21.9083 75.7C21.6416 76.18 21.5083 76.7533 21.5083 77.42C21.5083 78.0867 21.6416 78.6733 21.9083 79.18C22.1883 79.6733 22.5483 80.0533 22.9883 80.32C23.4416 80.5867 23.9216 80.72 24.4283 80.72C24.9483 80.72 25.4349 80.5933 25.8883 80.34C26.3416 80.0733 26.7016 79.7 26.9683 79.22C27.2349 78.7267 27.3683 78.14 27.3683 77.46ZM35.723 68.2V83H32.923V68.2H35.723ZM37.7694 77.42C37.7694 76.3 37.9894 75.3067 38.4294 74.44C38.8827 73.5733 39.4894 72.9067 40.2494 72.44C41.0227 71.9733 41.8827 71.74 42.8294 71.74C43.656 71.74 44.376 71.9067 44.9894 72.24C45.616 72.5733 46.116 72.9933 46.4894 73.5V71.92H49.3094V83H46.4894V81.38C46.1294 81.9 45.6294 82.3333 44.9894 82.68C44.3627 83.0133 43.636 83.18 42.8094 83.18C41.876 83.18 41.0227 82.94 40.2494 82.46C39.4894 81.98 38.8827 81.3067 38.4294 80.44C37.9894 79.56 37.7694 78.5533 37.7694 77.42ZM46.4894 77.46C46.4894 76.78 46.356 76.2 46.0894 75.72C45.8227 75.2267 45.4627 74.8533 45.0094 74.6C44.556 74.3333 44.0694 74.2 43.5494 74.2C43.0294 74.2 42.5494 74.3267 42.1094 74.58C41.6694 74.8333 41.3094 75.2067 41.0294 75.7C40.7627 76.18 40.6294 76.7533 40.6294 77.42C40.6294 78.0867 40.7627 78.6733 41.0294 79.18C41.3094 79.6733 41.6694 80.0533 42.1094 80.32C42.5627 80.5867 43.0427 80.72 43.5494 80.72C44.0694 80.72 44.556 80.5933 45.0094 80.34C45.4627 80.0733 45.8227 79.7 46.0894 79.22C46.356 78.7267 46.4894 78.14 46.4894 77.46ZM58.1841 71.76C59.5041 71.76 60.5707 72.18 61.3841 73.02C62.1974 73.8467 62.6041 75.0067 62.6041 76.5V83H59.8041V76.88C59.8041 76 59.5841 75.3267 59.1441 74.86C58.7041 74.38 58.1041 74.14 57.3441 74.14C56.5707 74.14 55.9574 74.38 55.5041 74.86C55.0641 75.3267 54.8441 76 54.8441 76.88V83H52.0441V71.92H54.8441V73.3C55.2174 72.82 55.6907 72.4467 56.2641 72.18C56.8507 71.9 57.4907 71.76 58.1841 71.76ZM69.6067 71.74C70.4334 71.74 71.1601 71.9067 71.7867 72.24C72.4134 72.56 72.9067 72.98 73.2667 73.5V71.92H76.0867V83.08C76.0867 84.1067 75.8801 85.02 75.4667 85.82C75.0534 86.6333 74.4334 87.2733 73.6067 87.74C72.7801 88.22 71.7801 88.46 70.6067 88.46C69.0334 88.46 67.7401 88.0933 66.7267 87.36C65.7267 86.6267 65.1601 85.6267 65.0267 84.36H67.8067C67.9534 84.8667 68.2667 85.2667 68.7467 85.56C69.2401 85.8667 69.8334 86.02 70.5267 86.02C71.3401 86.02 72.0001 85.7733 72.5067 85.28C73.0134 84.8 73.2667 84.0667 73.2667 83.08V81.36C72.9067 81.88 72.4067 82.3133 71.7667 82.66C71.1401 83.0067 70.4201 83.18 69.6067 83.18C68.6734 83.18 67.8201 82.94 67.0467 82.46C66.2734 81.98 65.6601 81.3067 65.2067 80.44C64.7667 79.56 64.5467 78.5533 64.5467 77.42C64.5467 76.3 64.7667 75.3067 65.2067 74.44C65.6601 73.5733 66.2667 72.9067 67.0267 72.44C67.8001 71.9733 68.6601 71.74 69.6067 71.74ZM73.2667 77.46C73.2667 76.78 73.1334 76.2 72.8667 75.72C72.6001 75.2267 72.2401 74.8533 71.7867 74.6C71.3334 74.3333 70.8467 74.2 70.3267 74.2C69.8067 74.2 69.3267 74.3267 68.8867 74.58C68.4467 74.8333 68.0867 75.2067 67.8067 75.7C67.5401 76.18 67.4067 76.7533 67.4067 77.42C67.4067 78.0867 67.5401 78.6733 67.8067 79.18C68.0867 79.6733 68.4467 80.0533 68.8867 80.32C69.3401 80.5867 69.8201 80.72 70.3267 80.72C70.8467 80.72 71.3334 80.5933 71.7867 80.34C72.2401 80.0733 72.6001 79.7 72.8667 79.22C73.1334 78.7267 73.2667 78.14 73.2667 77.46Z" fill="white"/>
</g>
<g filter="url(#filter1_b_11_413)">
<path d="M235.558 119.334C235.618 118.134 236.038 117.21 236.818 116.562C237.61 115.902 238.648 115.572 239.932 115.572C240.808 115.572 241.558 115.728 242.182 116.04C242.806 116.34 243.274 116.754 243.586 117.282C243.91 117.798 244.072 118.386 244.072 119.046C244.072 119.802 243.874 120.444 243.478 120.972C243.094 121.488 242.632 121.836 242.092 122.016V122.088C242.788 122.304 243.328 122.688 243.712 123.24C244.108 123.792 244.306 124.5 244.306 125.364C244.306 126.084 244.138 126.726 243.802 127.29C243.478 127.854 242.992 128.298 242.344 128.622C241.708 128.934 240.94 129.09 240.04 129.09C238.684 129.09 237.58 128.748 236.728 128.064C235.876 127.38 235.426 126.372 235.378 125.04H237.826C237.85 125.628 238.048 126.102 238.42 126.462C238.804 126.81 239.326 126.984 239.986 126.984C240.598 126.984 241.066 126.816 241.39 126.48C241.726 126.132 241.894 125.688 241.894 125.148C241.894 124.428 241.666 123.912 241.21 123.6C240.754 123.288 240.046 123.132 239.086 123.132H238.564V121.062H239.086C240.79 121.062 241.642 120.492 241.642 119.352C241.642 118.836 241.486 118.434 241.174 118.146C240.874 117.858 240.436 117.714 239.86 117.714C239.296 117.714 238.858 117.87 238.546 118.182C238.246 118.482 238.072 118.866 238.024 119.334H235.558ZM259.425 116.436V118.47H256.077V129H253.557V118.47H250.209V116.436H259.425ZM260.615 123.978C260.615 122.97 260.813 122.076 261.209 121.296C261.617 120.516 262.163 119.916 262.847 119.496C263.543 119.076 264.317 118.866 265.169 118.866C265.913 118.866 266.561 119.016 267.113 119.316C267.677 119.616 268.127 119.994 268.463 120.45V119.028H271.001V129H268.463V127.542C268.139 128.01 267.689 128.4 267.113 128.712C266.549 129.012 265.895 129.162 265.151 129.162C264.311 129.162 263.543 128.946 262.847 128.514C262.163 128.082 261.617 127.476 261.209 126.696C260.813 125.904 260.615 124.998 260.615 123.978ZM268.463 124.014C268.463 123.402 268.343 122.88 268.103 122.448C267.863 122.004 267.539 121.668 267.131 121.44C266.723 121.2 266.285 121.08 265.817 121.08C265.349 121.08 264.917 121.194 264.521 121.422C264.125 121.65 263.801 121.986 263.549 122.43C263.309 122.862 263.189 123.378 263.189 123.978C263.189 124.578 263.309 125.106 263.549 125.562C263.801 126.006 264.125 126.348 264.521 126.588C264.929 126.828 265.361 126.948 265.817 126.948C266.285 126.948 266.723 126.834 267.131 126.606C267.539 126.366 267.863 126.03 268.103 125.598C268.343 125.154 268.463 124.626 268.463 124.014ZM277.279 129.162C276.463 129.162 275.731 129.018 275.083 128.73C274.435 128.43 273.919 128.028 273.535 127.524C273.163 127.02 272.959 126.462 272.923 125.85H275.461C275.509 126.234 275.695 126.552 276.019 126.804C276.355 127.056 276.769 127.182 277.261 127.182C277.741 127.182 278.113 127.086 278.377 126.894C278.653 126.702 278.791 126.456 278.791 126.156C278.791 125.832 278.623 125.592 278.287 125.436C277.963 125.268 277.441 125.088 276.721 124.896C275.977 124.716 275.365 124.53 274.885 124.338C274.417 124.146 274.009 123.852 273.661 123.456C273.325 123.06 273.157 122.526 273.157 121.854C273.157 121.302 273.313 120.798 273.625 120.342C273.949 119.886 274.405 119.526 274.993 119.262C275.593 118.998 276.295 118.866 277.099 118.866C278.287 118.866 279.235 119.166 279.943 119.766C280.651 120.354 281.041 121.152 281.113 122.16H278.701C278.665 121.764 278.497 121.452 278.197 121.224C277.909 120.984 277.519 120.864 277.027 120.864C276.571 120.864 276.217 120.948 275.965 121.116C275.725 121.284 275.605 121.518 275.605 121.818C275.605 122.154 275.773 122.412 276.109 122.592C276.445 122.76 276.967 122.934 277.675 123.114C278.395 123.294 278.989 123.48 279.457 123.672C279.925 123.864 280.327 124.164 280.663 124.572C281.011 124.968 281.191 125.496 281.203 126.156C281.203 126.732 281.041 127.248 280.717 127.704C280.405 128.16 279.949 128.52 279.349 128.784C278.761 129.036 278.071 129.162 277.279 129.162ZM289.175 129L285.791 124.752V129H283.271V115.68H285.791V123.258L289.139 119.028H292.415L288.023 124.032L292.451 129H289.175ZM306.622 116.436V118.47H303.274V129H300.754V118.47H297.406V116.436H306.622ZM317.731 123.798C317.731 124.158 317.707 124.482 317.659 124.77H310.369C310.429 125.49 310.681 126.054 311.125 126.462C311.569 126.87 312.115 127.074 312.763 127.074C313.699 127.074 314.365 126.672 314.761 125.868H317.479C317.191 126.828 316.639 127.62 315.823 128.244C315.007 128.856 314.005 129.162 312.817 129.162C311.857 129.162 310.993 128.952 310.225 128.532C309.469 128.1 308.875 127.494 308.443 126.714C308.023 125.934 307.813 125.034 307.813 124.014C307.813 122.982 308.023 122.076 308.443 121.296C308.863 120.516 309.451 119.916 310.207 119.496C310.963 119.076 311.833 118.866 312.817 118.866C313.765 118.866 314.611 119.07 315.355 119.478C316.111 119.886 316.693 120.468 317.101 121.224C317.521 121.968 317.731 122.826 317.731 123.798ZM315.121 123.078C315.109 122.43 314.875 121.914 314.419 121.53C313.963 121.134 313.405 120.936 312.745 120.936C312.121 120.936 311.593 121.128 311.161 121.512C310.741 121.884 310.483 122.406 310.387 123.078H315.121ZM322.09 120.576C322.414 120.048 322.834 119.634 323.35 119.334C323.878 119.034 324.478 118.884 325.15 118.884V121.53H324.484C323.692 121.53 323.092 121.716 322.684 122.088C322.288 122.46 322.09 123.108 322.09 124.032V129H319.57V119.028H322.09V120.576ZM330.663 129.162C329.847 129.162 329.115 129.018 328.467 128.73C327.819 128.43 327.303 128.028 326.919 127.524C326.547 127.02 326.343 126.462 326.307 125.85H328.845C328.893 126.234 329.079 126.552 329.403 126.804C329.739 127.056 330.153 127.182 330.645 127.182C331.125 127.182 331.497 127.086 331.761 126.894C332.037 126.702 332.175 126.456 332.175 126.156C332.175 125.832 332.007 125.592 331.671 125.436C331.347 125.268 330.825 125.088 330.105 124.896C329.361 124.716 328.749 124.53 328.269 124.338C327.801 124.146 327.393 123.852 327.045 123.456C326.709 123.06 326.541 122.526 326.541 121.854C326.541 121.302 326.697 120.798 327.009 120.342C327.333 119.886 327.789 119.526 328.377 119.262C328.977 118.998 329.679 118.866 330.483 118.866C331.671 118.866 332.619 119.166 333.327 119.766C334.035 120.354 334.425 121.152 334.497 122.16H332.085C332.049 121.764 331.881 121.452 331.581 121.224C331.293 120.984 330.903 120.864 330.411 120.864C329.955 120.864 329.601 120.948 329.349 121.116C329.109 121.284 328.989 121.518 328.989 121.818C328.989 122.154 329.157 122.412 329.493 122.592C329.829 122.76 330.351 122.934 331.059 123.114C331.779 123.294 332.373 123.48 332.841 123.672C333.309 123.864 333.711 124.164 334.047 124.572C334.395 124.968 334.575 125.496 334.587 126.156C334.587 126.732 334.425 127.248 334.101 127.704C333.789 128.16 333.333 128.52 332.733 128.784C332.145 129.036 331.455 129.162 330.663 129.162ZM337.934 117.84C337.49 117.84 337.118 117.702 336.818 117.426C336.53 117.138 336.386 116.784 336.386 116.364C336.386 115.944 336.53 115.596 336.818 115.32C337.118 115.032 337.49 114.888 337.934 114.888C338.378 114.888 338.744 115.032 339.032 115.32C339.332 115.596 339.482 115.944 339.482 116.364C339.482 116.784 339.332 117.138 339.032 117.426C338.744 117.702 338.378 117.84 337.934 117.84ZM339.176 119.028V129H336.656V119.028H339.176ZM345.482 129.162C344.666 129.162 343.934 129.018 343.286 128.73C342.638 128.43 342.122 128.028 341.738 127.524C341.366 127.02 341.162 126.462 341.126 125.85H343.664C343.712 126.234 343.898 126.552 344.222 126.804C344.558 127.056 344.972 127.182 345.464 127.182C345.944 127.182 346.316 127.086 346.58 126.894C346.856 126.702 346.994 126.456 346.994 126.156C346.994 125.832 346.826 125.592 346.49 125.436C346.166 125.268 345.644 125.088 344.924 124.896C344.18 124.716 343.568 124.53 343.088 124.338C342.62 124.146 342.212 123.852 341.864 123.456C341.528 123.06 341.36 122.526 341.36 121.854C341.36 121.302 341.516 120.798 341.828 120.342C342.152 119.886 342.608 119.526 343.196 119.262C343.796 118.998 344.498 118.866 345.302 118.866C346.49 118.866 347.438 119.166 348.146 119.766C348.854 120.354 349.244 121.152 349.316 122.16H346.904C346.868 121.764 346.7 121.452 346.4 121.224C346.112 120.984 345.722 120.864 345.23 120.864C344.774 120.864 344.42 120.948 344.168 121.116C343.928 121.284 343.808 121.518 343.808 121.818C343.808 122.154 343.976 122.412 344.312 122.592C344.648 122.76 345.17 122.934 345.878 123.114C346.598 123.294 347.192 123.48 347.66 123.672C348.128 123.864 348.53 124.164 348.866 124.572C349.214 124.968 349.394 125.496 349.406 126.156C349.406 126.732 349.244 127.248 348.92 127.704C348.608 128.16 348.152 128.52 347.552 128.784C346.964 129.036 346.274 129.162 345.482 129.162ZM350.826 123.978C350.826 122.97 351.024 122.076 351.42 121.296C351.828 120.516 352.374 119.916 353.058 119.496C353.754 119.076 354.528 118.866 355.38 118.866C356.124 118.866 356.772 119.016 357.324 119.316C357.888 119.616 358.338 119.994 358.674 120.45V119.028H361.212V129H358.674V127.542C358.35 128.01 357.9 128.4 357.324 128.712C356.76 129.012 356.106 129.162 355.362 129.162C354.522 129.162 353.754 128.946 353.058 128.514C352.374 128.082 351.828 127.476 351.42 126.696C351.024 125.904 350.826 124.998 350.826 123.978ZM358.674 124.014C358.674 123.402 358.554 122.88 358.314 122.448C358.074 122.004 357.75 121.668 357.342 121.44C356.934 121.2 356.496 121.08 356.028 121.08C355.56 121.08 355.128 121.194 354.732 121.422C354.336 121.65 354.012 121.986 353.76 122.43C353.52 122.862 353.4 123.378 353.4 123.978C353.4 124.578 353.52 125.106 353.76 125.562C354.012 126.006 354.336 126.348 354.732 126.588C355.14 126.828 355.572 126.948 356.028 126.948C356.496 126.948 356.934 126.834 357.342 126.606C357.75 126.366 358.074 126.03 358.314 125.598C358.554 125.154 358.674 124.626 358.674 124.014Z" fill="#274492"/>
</g>
<path d="M308.404 34.6643C308.256 34.0468 307.987 33.5836 307.598 33.2748C307.209 32.9661 306.665 32.8117 305.967 32.8117C304.906 32.8117 304.114 33.2211 303.591 34.04C303.067 34.8455 302.792 36.188 302.765 38.0675C303.114 37.4768 303.624 37.0204 304.296 36.6982C304.967 36.376 305.692 36.2149 306.47 36.2149C307.356 36.2149 308.135 36.4095 308.806 36.7988C309.491 37.1747 310.021 37.7252 310.397 38.4501C310.786 39.175 310.981 40.0409 310.981 41.0478C310.981 41.9875 310.793 42.8266 310.417 43.565C310.055 44.3033 309.511 44.8873 308.786 45.3169C308.061 45.7331 307.189 45.9412 306.168 45.9412C304.786 45.9412 303.698 45.6391 302.906 45.035C302.127 44.4174 301.577 43.5515 301.255 42.4373C300.946 41.323 300.792 39.9335 300.792 38.2689C300.792 33.3554 302.523 30.8986 305.987 30.8986C307.33 30.8986 308.383 31.2611 309.149 31.986C309.927 32.711 310.384 33.6037 310.518 34.6643H308.404ZM305.967 38.148C305.148 38.148 304.45 38.3964 303.873 38.8931C303.309 39.3764 303.027 40.0812 303.027 41.0075C303.027 41.9338 303.289 42.6722 303.812 43.2226C304.349 43.7596 305.094 44.0281 306.047 44.0281C306.893 44.0281 307.558 43.7663 308.041 43.2428C308.538 42.7192 308.786 42.0211 308.786 41.1485C308.786 40.2356 308.545 39.5107 308.061 38.9737C307.591 38.4233 306.893 38.148 305.967 38.148ZM313.148 42.8803V41.1485L319.914 31.4423H322.693V40.8867H324.566V42.8803H322.693V45.9412H320.438V42.8803H313.148ZM320.538 33.7783L315.786 40.8867H320.538V33.7783ZM326.105 34.8053C326.105 33.8252 326.387 33.06 326.951 32.5096C327.528 31.9458 328.267 31.6638 329.166 31.6638C330.066 31.6638 330.797 31.9458 331.361 32.5096C331.939 33.06 332.227 33.8252 332.227 34.8053C332.227 35.7853 331.939 36.5572 331.361 37.121C330.797 37.6849 330.066 37.9668 329.166 37.9668C328.267 37.9668 327.528 37.6849 326.951 37.121C326.387 36.5572 326.105 35.7853 326.105 34.8053ZM338.389 31.9256L330.354 45.9412H328.099L336.134 31.9256H338.389ZM329.166 33.0533C328.321 33.0533 327.898 33.6373 327.898 34.8053C327.898 35.9866 328.321 36.5773 329.166 36.5773C329.569 36.5773 329.878 36.4364 330.093 36.1545C330.321 35.8591 330.435 35.4094 330.435 34.8053C330.435 33.6373 330.012 33.0533 329.166 33.0533ZM334.301 43.0414C334.301 42.0614 334.583 41.2962 335.147 40.7458C335.724 40.1819 336.463 39.9 337.362 39.9C338.248 39.9 338.973 40.1819 339.537 40.7458C340.114 41.2962 340.403 42.0614 340.403 43.0414C340.403 44.0214 340.114 44.7933 339.537 45.3572C338.973 45.921 338.248 46.2029 337.362 46.2029C336.463 46.2029 335.724 45.921 335.147 45.3572C334.583 44.7933 334.301 44.0214 334.301 43.0414ZM337.342 41.2895C336.496 41.2895 336.073 41.8734 336.073 43.0414C336.073 44.2094 336.496 44.7933 337.342 44.7933C338.188 44.7933 338.611 44.2094 338.611 43.0414C338.611 41.8734 338.188 41.2895 337.342 41.2895Z" fill="white"/>
<circle cx="319.5" cy="39.5" r="36.402" stroke="black" stroke-width="6.19608"/>
<circle cx="319.5" cy="39.5" r="36.402" stroke="white" stroke-opacity="0.92" stroke-width="6.19608"/>
<path d="M318.965 4.64709C338.509 4.64709 354.353 20.2513 354.353 39.5C354.353 58.7488 338.509 74.353 318.965 74.353C309.192 74.353 300.345 70.4519 293.941 64.1448" stroke="#FF9F2D" stroke-width="6.19608" stroke-linecap="round"/>
<path d="M119.722 19.83C120.618 19.0553 121.323 18.4207 121.836 17.926C122.359 17.422 122.793 16.8993 123.138 16.358C123.483 15.8167 123.656 15.2753 123.656 14.734C123.656 14.174 123.521 13.7353 123.25 13.418C122.989 13.1007 122.573 12.942 122.004 12.942C121.453 12.942 121.024 13.1193 120.716 13.474C120.417 13.8193 120.259 14.286 120.24 14.874H118.7C118.728 13.81 119.045 12.998 119.652 12.438C120.268 11.8687 121.047 11.584 121.99 11.584C123.007 11.584 123.801 11.864 124.37 12.424C124.949 12.984 125.238 13.7307 125.238 14.664C125.238 15.336 125.065 15.9847 124.72 16.61C124.384 17.226 123.978 17.7813 123.502 18.276C123.035 18.7613 122.438 19.326 121.71 19.97L121.08 20.53H125.518V21.86H118.714V20.698L119.722 19.83ZM133.409 13.026L129.517 22H127.907L131.841 13.194H126.661V11.836H133.409V13.026ZM148.912 12.27V22H147.316V15.336L144.348 22H143.242L140.26 15.336V22H138.664V12.27H140.386L143.802 19.9L147.204 12.27H148.912ZM158.1 17.954C158.1 18.2433 158.082 18.5047 158.044 18.738H152.15C152.197 19.354 152.426 19.8487 152.836 20.222C153.247 20.5953 153.751 20.782 154.348 20.782C155.207 20.782 155.814 20.4227 156.168 19.704H157.89C157.657 20.4133 157.232 20.9967 156.616 21.454C156.01 21.902 155.254 22.126 154.348 22.126C153.611 22.126 152.948 21.9627 152.36 21.636C151.782 21.3 151.324 20.8333 150.988 20.236C150.662 19.6293 150.498 18.9293 150.498 18.136C150.498 17.3427 150.657 16.6473 150.974 16.05C151.301 15.4433 151.754 14.9767 152.332 14.65C152.92 14.3233 153.592 14.16 154.348 14.16C155.076 14.16 155.725 14.3187 156.294 14.636C156.864 14.9533 157.307 15.4013 157.624 15.98C157.942 16.5493 158.1 17.2073 158.1 17.954ZM156.434 17.45C156.425 16.862 156.215 16.3907 155.804 16.036C155.394 15.6813 154.885 15.504 154.278 15.504C153.728 15.504 153.256 15.6813 152.864 16.036C152.472 16.3813 152.239 16.8527 152.164 17.45H156.434ZM160.504 13.264C160.215 13.264 159.972 13.166 159.776 12.97C159.58 12.774 159.482 12.5313 159.482 12.242C159.482 11.9527 159.58 11.71 159.776 11.514C159.972 11.318 160.215 11.22 160.504 11.22C160.784 11.22 161.022 11.318 161.218 11.514C161.414 11.71 161.512 11.9527 161.512 12.242C161.512 12.5313 161.414 12.774 161.218 12.97C161.022 13.166 160.784 13.264 160.504 13.264ZM161.288 14.286V22H159.692V14.286H161.288ZM167.734 19.83C168.63 19.0553 169.335 18.4207 169.848 17.926C170.371 17.422 170.805 16.8993 171.15 16.358C171.496 15.8167 171.668 15.2753 171.668 14.734C171.668 14.174 171.533 13.7353 171.262 13.418C171.001 13.1007 170.586 12.942 170.016 12.942C169.466 12.942 169.036 13.1193 168.728 13.474C168.43 13.8193 168.271 14.286 168.252 14.874H166.712C166.74 13.81 167.058 12.998 167.664 12.438C168.28 11.8687 169.06 11.584 170.002 11.584C171.02 11.584 171.813 11.864 172.382 12.424C172.961 12.984 173.25 13.7307 173.25 14.664C173.25 15.336 173.078 15.9847 172.732 16.61C172.396 17.226 171.99 17.7813 171.514 18.276C171.048 18.7613 170.45 19.326 169.722 19.97L169.092 20.53H173.53V21.86H166.726V20.698L167.734 19.83ZM174.953 16.764C174.953 15.1493 175.224 13.8893 175.765 12.984C176.316 12.0693 177.259 11.612 178.593 11.612C179.928 11.612 180.866 12.0693 181.407 12.984C181.958 13.8893 182.233 15.1493 182.233 16.764C182.233 18.3973 181.958 19.676 181.407 20.6C180.866 21.5147 179.928 21.972 178.593 21.972C177.259 21.972 176.316 21.5147 175.765 20.6C175.224 19.676 174.953 18.3973 174.953 16.764ZM180.665 16.764C180.665 16.008 180.614 15.3687 180.511 14.846C180.418 14.3233 180.222 13.8987 179.923 13.572C179.625 13.236 179.181 13.068 178.593 13.068C178.005 13.068 177.562 13.236 177.263 13.572C176.965 13.8987 176.764 14.3233 176.661 14.846C176.568 15.3687 176.521 16.008 176.521 16.764C176.521 17.548 176.568 18.206 176.661 18.738C176.755 19.27 176.951 19.6993 177.249 20.026C177.557 20.3527 178.005 20.516 178.593 20.516C179.181 20.516 179.625 20.3527 179.923 20.026C180.231 19.6993 180.432 19.27 180.525 18.738C180.619 18.206 180.665 17.548 180.665 16.764ZM184.825 19.83C185.721 19.0553 186.426 18.4207 186.939 17.926C187.462 17.422 187.896 16.8993 188.241 16.358C188.586 15.8167 188.759 15.2753 188.759 14.734C188.759 14.174 188.624 13.7353 188.353 13.418C188.092 13.1007 187.676 12.942 187.107 12.942C186.556 12.942 186.127 13.1193 185.819 13.474C185.52 13.8193 185.362 14.286 185.343 14.874H183.803C183.831 13.81 184.148 12.998 184.755 12.438C185.371 11.8687 186.15 11.584 187.093 11.584C188.11 11.584 188.904 11.864 189.473 12.424C190.052 12.984 190.341 13.7307 190.341 14.664C190.341 15.336 190.168 15.9847 189.823 16.61C189.487 17.226 189.081 17.7813 188.605 18.276C188.138 18.7613 187.541 19.326 186.813 19.97L186.183 20.53H190.621V21.86H183.817V20.698L184.825 19.83ZM192.926 19.83C193.822 19.0553 194.527 18.4207 195.04 17.926C195.563 17.422 195.997 16.8993 196.342 16.358C196.687 15.8167 196.86 15.2753 196.86 14.734C196.86 14.174 196.725 13.7353 196.454 13.418C196.193 13.1007 195.777 12.942 195.208 12.942C194.657 12.942 194.228 13.1193 193.92 13.474C193.621 13.8193 193.463 14.286 193.444 14.874H191.904C191.932 13.81 192.249 12.998 192.856 12.438C193.472 11.8687 194.251 11.584 195.194 11.584C196.211 11.584 197.005 11.864 197.574 12.424C198.153 12.984 198.442 13.7307 198.442 14.664C198.442 15.336 198.269 15.9847 197.924 16.61C197.588 17.226 197.182 17.7813 196.706 18.276C196.239 18.7613 195.642 19.326 194.914 19.97L194.284 20.53H198.722V21.86H191.918V20.698L192.926 19.83Z" fill="white"/>
<defs>
<filter id="filter0_b_11_413" x="-2.98001" y="39.32" width="232.676" height="53.14" filterUnits="userSpaceOnUse" color-interpolation-filters="sRGB">
<feFlood flood-opacity="0" result="BackgroundImageFix"/>
<feGaussianBlur in="BackgroundImage" stdDeviation="2"/>
<feComposite in2="SourceAlpha" operator="in" result="effect1_backgroundBlur_11_413"/>
<feBlend mode="normal" in="SourceGraphic" in2="effect1_backgroundBlur_11_413" result="shape"/>
</filter>
<filter id="filter1_b_11_413" x="231.378" y="110.888" width="133.834" height="22.274" filterUnits="userSpaceOnUse" color-interpolation-filters="sRGB">
<feFlood flood-opacity="0" result="BackgroundImageFix"/>
<feGaussianBlur in="BackgroundImage" stdDeviation="2"/>
<feComposite in2="SourceAlpha" operator="in" result="effect1_backgroundBlur_11_413"/>
<feBlend mode="normal" in="SourceGraphic" in2="effect1_backgroundBlur_11_413" result="shape"/>
</filter>
</defs>
</svg>
