<svg width="195" height="41" viewBox="0 0 195 41" fill="none" xmlns="http://www.w3.org/2000/svg">
<path d="M30 10.1305H38L44 16.1305V28.1305C44 28.6609 43.7893 29.1696 43.4142 29.5447C43.0391 29.9198 42.5304 30.1305 42 30.1305H30C29.4696 30.1305 28.9609 29.9198 28.5858 29.5447C28.2107 29.1696 28 28.6609 28 28.1305V12.1305C28 11.6001 28.2107 11.0914 28.5858 10.7163C28.9609 10.3412 29.4696 10.1305 30 10.1305Z" stroke="white" stroke-width="1.5" stroke-linecap="round" stroke-linejoin="round"/>
<path d="M38 10.1305V16.1305H44" stroke="white" stroke-width="1.5" stroke-linecap="round" stroke-linejoin="round"/>
<path d="M40 21.1305H32" stroke="white" stroke-width="1.5" stroke-linecap="round" stroke-linejoin="round"/>
<path d="M40 25.1305H32" stroke="white" stroke-width="1.5" stroke-linecap="round" stroke-linejoin="round"/>
<path d="M34 17.1305H33H32" stroke="white" stroke-width="1.5" stroke-linecap="round" stroke-linejoin="round"/>
<path d="M63.024 24.6585H66.784V26.1305H61.2V15.0105H63.024V24.6585ZM67.7014 21.6825C67.7014 20.7972 67.8827 20.0132 68.2454 19.3305C68.6187 18.6478 69.12 18.1198 69.7494 17.7465C70.3894 17.3625 71.0934 17.1705 71.8614 17.1705C72.5547 17.1705 73.1574 17.3092 73.6694 17.5865C74.192 17.8532 74.608 18.1892 74.9174 18.5945V17.3145H76.7574V26.1305H74.9174V24.8185C74.608 25.2345 74.1867 25.5812 73.6534 25.8585C73.12 26.1358 72.512 26.2745 71.8294 26.2745C71.072 26.2745 70.3787 26.0825 69.7494 25.6985C69.12 25.3038 68.6187 24.7598 68.2454 24.0665C67.8827 23.3625 67.7014 22.5678 67.7014 21.6825ZM74.9174 21.7145C74.9174 21.1065 74.7894 20.5785 74.5334 20.1305C74.288 19.6825 73.9627 19.3412 73.5574 19.1065C73.152 18.8718 72.7147 18.7545 72.2454 18.7545C71.776 18.7545 71.3387 18.8718 70.9334 19.1065C70.528 19.3305 70.1974 19.6665 69.9414 20.1145C69.696 20.5518 69.5734 21.0745 69.5734 21.6825C69.5734 22.2905 69.696 22.8238 69.9414 23.2825C70.1974 23.7412 70.528 24.0932 70.9334 24.3385C71.3494 24.5732 71.7867 24.6905 72.2454 24.6905C72.7147 24.6905 73.152 24.5732 73.5574 24.3385C73.9627 24.1038 74.288 23.7625 74.5334 23.3145C74.7894 22.8558 74.9174 22.3225 74.9174 21.7145ZM80.9771 18.6105C81.2865 18.2052 81.7078 17.8638 82.2411 17.5865C82.7745 17.3092 83.3771 17.1705 84.0491 17.1705C84.8171 17.1705 85.5158 17.3625 86.1451 17.7465C86.7851 18.1198 87.2865 18.6478 87.6491 19.3305C88.0118 20.0132 88.1931 20.7972 88.1931 21.6825C88.1931 22.5678 88.0118 23.3625 87.6491 24.0665C87.2865 24.7598 86.7851 25.3038 86.1451 25.6985C85.5158 26.0825 84.8171 26.2745 84.0491 26.2745C83.3771 26.2745 82.7798 26.1412 82.2571 25.8745C81.7345 25.5972 81.3078 25.2558 80.9771 24.8505V30.3225H79.1531V17.3145H80.9771V18.6105ZM86.3371 21.6825C86.3371 21.0745 86.2091 20.5518 85.9531 20.1145C85.7078 19.6665 85.3771 19.3305 84.9611 19.1065C84.5558 18.8718 84.1185 18.7545 83.6491 18.7545C83.1905 18.7545 82.7531 18.8718 82.3371 19.1065C81.9318 19.3412 81.6011 19.6825 81.3451 20.1305C81.0998 20.5785 80.9771 21.1065 80.9771 21.7145C80.9771 22.3225 81.0998 22.8558 81.3451 23.3145C81.6011 23.7625 81.9318 24.1038 82.3371 24.3385C82.7531 24.5732 83.1905 24.6905 83.6491 24.6905C84.1185 24.6905 84.5558 24.5732 84.9611 24.3385C85.3771 24.0932 85.7078 23.7412 85.9531 23.2825C86.2091 22.8238 86.3371 22.2905 86.3371 21.6825ZM93.8209 26.2745C92.9889 26.2745 92.2369 26.0878 91.5649 25.7145C90.8929 25.3305 90.3649 24.7972 89.9809 24.1145C89.5969 23.4212 89.4049 22.6212 89.4049 21.7145C89.4049 20.8185 89.6022 20.0238 89.9969 19.3305C90.3915 18.6372 90.9302 18.1038 91.6129 17.7305C92.2955 17.3572 93.0582 17.1705 93.9009 17.1705C94.7435 17.1705 95.5062 17.3572 96.1889 17.7305C96.8715 18.1038 97.4102 18.6372 97.8049 19.3305C98.1995 20.0238 98.3969 20.8185 98.3969 21.7145C98.3969 22.6105 98.1942 23.4052 97.7889 24.0985C97.3835 24.7918 96.8289 25.3305 96.1249 25.7145C95.4315 26.0878 94.6635 26.2745 93.8209 26.2745ZM93.8209 24.6905C94.2902 24.6905 94.7275 24.5785 95.1329 24.3545C95.5489 24.1305 95.8849 23.7945 96.1409 23.3465C96.3969 22.8985 96.5249 22.3545 96.5249 21.7145C96.5249 21.0745 96.4022 20.5358 96.1569 20.0985C95.9115 19.6505 95.5862 19.3145 95.1809 19.0905C94.7755 18.8665 94.3382 18.7545 93.8689 18.7545C93.3995 18.7545 92.9622 18.8665 92.5569 19.0905C92.1622 19.3145 91.8475 19.6505 91.6129 20.0985C91.3782 20.5358 91.2609 21.0745 91.2609 21.7145C91.2609 22.6638 91.5009 23.3998 91.9809 23.9225C92.4715 24.4345 93.0849 24.6905 93.8209 24.6905ZM102.024 18.5945C102.291 18.1465 102.643 17.7998 103.08 17.5545C103.528 17.2985 104.056 17.1705 104.664 17.1705V19.0585H104.2C103.485 19.0585 102.941 19.2398 102.568 19.6025C102.205 19.9652 102.024 20.5945 102.024 21.4905V26.1305H100.2V17.3145H102.024V18.5945ZM105.733 21.6825C105.733 20.7972 105.914 20.0132 106.277 19.3305C106.65 18.6478 107.151 18.1198 107.781 17.7465C108.421 17.3625 109.125 17.1705 109.893 17.1705C110.586 17.1705 111.189 17.3092 111.701 17.5865C112.223 17.8532 112.639 18.1892 112.949 18.5945V17.3145H114.789V26.1305H112.949V24.8185C112.639 25.2345 112.218 25.5812 111.685 25.8585C111.151 26.1358 110.543 26.2745 109.861 26.2745C109.103 26.2745 108.41 26.0825 107.781 25.6985C107.151 25.3038 106.65 24.7598 106.277 24.0665C105.914 23.3625 105.733 22.5678 105.733 21.6825ZM112.949 21.7145C112.949 21.1065 112.821 20.5785 112.565 20.1305C112.319 19.6825 111.994 19.3412 111.589 19.1065C111.183 18.8718 110.746 18.7545 110.277 18.7545C109.807 18.7545 109.37 18.8718 108.965 19.1065C108.559 19.3305 108.229 19.6665 107.973 20.1145C107.727 20.5518 107.605 21.0745 107.605 21.6825C107.605 22.2905 107.727 22.8238 107.973 23.2825C108.229 23.7412 108.559 24.0932 108.965 24.3385C109.381 24.5732 109.818 24.6905 110.277 24.6905C110.746 24.6905 111.183 24.5732 111.589 24.3385C111.994 24.1038 112.319 23.7625 112.565 23.3145C112.821 22.8558 112.949 22.3225 112.949 21.7145ZM121.632 17.1705C122.326 17.1705 122.944 17.3145 123.488 17.6025C124.043 17.8905 124.475 18.3172 124.784 18.8825C125.094 19.4478 125.248 20.1305 125.248 20.9305V26.1305H123.44V21.2025C123.44 20.4132 123.243 19.8105 122.848 19.3945C122.454 18.9678 121.915 18.7545 121.232 18.7545C120.55 18.7545 120.006 18.9678 119.6 19.3945C119.206 19.8105 119.008 20.4132 119.008 21.2025V26.1305H117.184V17.3145H119.008V18.3225C119.307 17.9598 119.686 17.6772 120.144 17.4745C120.614 17.2718 121.11 17.1705 121.632 17.1705Z" fill="white"/>
</svg>
