<svg width="195" height="41" viewBox="0 0 195 41" fill="none" xmlns="http://www.w3.org/2000/svg">
<path d="M0 6.13049C0 2.81678 2.68629 0.130493 6 0.130493H189C192.314 0.130493 195 2.81679 195 6.13049V34.1305C195 37.4442 192.314 40.1305 189 40.1305H6C2.68629 40.1305 0 37.4442 0 34.1305V6.13049Z" fill="#899CC4" fill-opacity="0.9"/>
<path d="M36 10.1305L27 17.1305V28.1305C27 28.6609 27.2107 29.1696 27.5858 29.5447C27.9609 29.9198 28.4696 30.1305 29 30.1305H43C43.5304 30.1305 44.0391 29.9198 44.4142 29.5447C44.7893 29.1696 45 28.6609 45 28.1305V17.1305L36 10.1305Z" stroke="white" stroke-width="1.5" stroke-linecap="round" stroke-linejoin="round"/>
<path d="M33 30.1305V20.1305H39V30.1305" stroke="white" stroke-width="1.5" stroke-linecap="round" stroke-linejoin="round"/>
<path d="M64.832 15.0105C66.016 15.0105 67.0507 15.2398 67.936 15.6985C68.832 16.1465 69.52 16.7972 70 17.6505C70.4907 18.4932 70.736 19.4798 70.736 20.6105C70.736 21.7412 70.4907 22.7225 70 23.5545C69.52 24.3865 68.832 25.0265 67.936 25.4745C67.0507 25.9118 66.016 26.1305 64.832 26.1305H61.2V15.0105H64.832ZM64.832 24.6425C66.1333 24.6425 67.1307 24.2905 67.824 23.5865C68.5173 22.8825 68.864 21.8905 68.864 20.6105C68.864 19.3198 68.5173 18.3118 67.824 17.5865C67.1307 16.8612 66.1333 16.4985 64.832 16.4985H63.024V24.6425H64.832ZM71.9358 21.6825C71.9358 20.7972 72.1171 20.0132 72.4798 19.3305C72.8531 18.6478 73.3544 18.1198 73.9838 17.7465C74.6238 17.3625 75.3278 17.1705 76.0958 17.1705C76.7891 17.1705 77.3918 17.3092 77.9038 17.5865C78.4264 17.8532 78.8424 18.1892 79.1518 18.5945V17.3145H80.9918V26.1305H79.1518V24.8185C78.8424 25.2345 78.4211 25.5812 77.8878 25.8585C77.3544 26.1358 76.7464 26.2745 76.0638 26.2745C75.3064 26.2745 74.6131 26.0825 73.9838 25.6985C73.3544 25.3038 72.8531 24.7598 72.4798 24.0665C72.1171 23.3625 71.9358 22.5678 71.9358 21.6825ZM79.1518 21.7145C79.1518 21.1065 79.0238 20.5785 78.7678 20.1305C78.5224 19.6825 78.1971 19.3412 77.7918 19.1065C77.3864 18.8718 76.9491 18.7545 76.4798 18.7545C76.0104 18.7545 75.5731 18.8718 75.1678 19.1065C74.7624 19.3305 74.4318 19.6665 74.1758 20.1145C73.9304 20.5518 73.8078 21.0745 73.8078 21.6825C73.8078 22.2905 73.9304 22.8238 74.1758 23.2825C74.4318 23.7412 74.7624 24.0932 75.1678 24.3385C75.5838 24.5732 76.0211 24.6905 76.4798 24.6905C76.9491 24.6905 77.3864 24.5732 77.7918 24.3385C78.1971 24.1038 78.5224 23.7625 78.7678 23.3145C79.0238 22.8558 79.1518 22.3225 79.1518 21.7145ZM86.5875 26.2745C85.8942 26.2745 85.2702 26.1518 84.7155 25.9065C84.1715 25.6505 83.7395 25.3092 83.4195 24.8825C83.0995 24.4452 82.9288 23.9598 82.9075 23.4265H84.7955C84.8275 23.7998 85.0035 24.1145 85.3235 24.3705C85.6542 24.6158 86.0648 24.7385 86.5555 24.7385C87.0675 24.7385 87.4622 24.6425 87.7395 24.4505C88.0275 24.2478 88.1715 23.9918 88.1715 23.6825C88.1715 23.3518 88.0115 23.1065 87.6915 22.9465C87.3822 22.7865 86.8862 22.6105 86.2035 22.4185C85.5422 22.2372 85.0035 22.0612 84.5875 21.8905C84.1715 21.7198 83.8088 21.4585 83.4995 21.1065C83.2008 20.7545 83.0515 20.2905 83.0515 19.7145C83.0515 19.2452 83.1902 18.8185 83.4675 18.4345C83.7448 18.0398 84.1395 17.7305 84.6515 17.5065C85.1742 17.2825 85.7715 17.1705 86.4435 17.1705C87.4462 17.1705 88.2515 17.4265 88.8595 17.9385C89.4782 18.4398 89.8088 19.1278 89.8515 20.0025H88.0275C87.9955 19.6078 87.8355 19.2932 87.5475 19.0585C87.2595 18.8238 86.8702 18.7065 86.3795 18.7065C85.8995 18.7065 85.5315 18.7972 85.2755 18.9785C85.0195 19.1598 84.8915 19.3998 84.8915 19.6985C84.8915 19.9332 84.9768 20.1305 85.1475 20.2905C85.3182 20.4505 85.5262 20.5785 85.7715 20.6745C86.0168 20.7598 86.3795 20.8718 86.8595 21.0105C87.4995 21.1812 88.0222 21.3572 88.4275 21.5385C88.8435 21.7092 89.2008 21.9652 89.4995 22.3065C89.7982 22.6478 89.9528 23.1012 89.9635 23.6665C89.9635 24.1678 89.8248 24.6158 89.5475 25.0105C89.2702 25.4052 88.8755 25.7145 88.3635 25.9385C87.8622 26.1625 87.2702 26.2745 86.5875 26.2745ZM96.4944 17.1705C97.1664 17.1705 97.7637 17.3145 98.2864 17.6025C98.8197 17.8905 99.2357 18.3172 99.5344 18.8825C99.8437 19.4478 99.9984 20.1305 99.9984 20.9305V26.1305H98.1904V21.2025C98.1904 20.4132 97.993 19.8105 97.5984 19.3945C97.2037 18.9678 96.665 18.7545 95.9824 18.7545C95.2997 18.7545 94.7557 18.9678 94.3504 19.3945C93.9557 19.8105 93.7584 20.4132 93.7584 21.2025V26.1305H91.9344V14.2905H93.7584V18.3385C94.0677 17.9652 94.457 17.6772 94.9264 17.4745C95.4064 17.2718 95.929 17.1705 96.4944 17.1705ZM104.149 18.6265C104.458 18.1998 104.88 17.8532 105.413 17.5865C105.957 17.3092 106.56 17.1705 107.221 17.1705C108 17.1705 108.704 17.3572 109.333 17.7305C109.962 18.1038 110.458 18.6372 110.821 19.3305C111.184 20.0132 111.365 20.7972 111.365 21.6825C111.365 22.5678 111.184 23.3625 110.821 24.0665C110.458 24.7598 109.957 25.3038 109.317 25.6985C108.688 26.0825 107.989 26.2745 107.221 26.2745C106.538 26.2745 105.93 26.1412 105.397 25.8745C104.874 25.6078 104.458 25.2665 104.149 24.8505V26.1305H102.325V14.2905H104.149V18.6265ZM109.509 21.6825C109.509 21.0745 109.381 20.5518 109.125 20.1145C108.88 19.6665 108.549 19.3305 108.133 19.1065C107.728 18.8718 107.29 18.7545 106.821 18.7545C106.362 18.7545 105.925 18.8718 105.509 19.1065C105.104 19.3412 104.773 19.6825 104.517 20.1305C104.272 20.5785 104.149 21.1065 104.149 21.7145C104.149 22.3225 104.272 22.8558 104.517 23.3145C104.773 23.7625 105.104 24.1038 105.509 24.3385C105.925 24.5732 106.362 24.6905 106.821 24.6905C107.29 24.6905 107.728 24.5732 108.133 24.3385C108.549 24.0932 108.88 23.7412 109.125 23.2825C109.381 22.8238 109.509 22.2905 109.509 21.6825ZM116.993 26.2745C116.161 26.2745 115.409 26.0878 114.737 25.7145C114.065 25.3305 113.537 24.7972 113.153 24.1145C112.769 23.4212 112.577 22.6212 112.577 21.7145C112.577 20.8185 112.774 20.0238 113.169 19.3305C113.563 18.6372 114.102 18.1038 114.785 17.7305C115.467 17.3572 116.23 17.1705 117.073 17.1705C117.915 17.1705 118.678 17.3572 119.361 17.7305C120.043 18.1038 120.582 18.6372 120.977 19.3305C121.371 20.0238 121.569 20.8185 121.569 21.7145C121.569 22.6105 121.366 23.4052 120.961 24.0985C120.555 24.7918 120.001 25.3305 119.297 25.7145C118.603 26.0878 117.835 26.2745 116.993 26.2745ZM116.993 24.6905C117.462 24.6905 117.899 24.5785 118.305 24.3545C118.721 24.1305 119.057 23.7945 119.313 23.3465C119.569 22.8985 119.697 22.3545 119.697 21.7145C119.697 21.0745 119.574 20.5358 119.329 20.0985C119.083 19.6505 118.758 19.3145 118.353 19.0905C117.947 18.8665 117.51 18.7545 117.041 18.7545C116.571 18.7545 116.134 18.8665 115.729 19.0905C115.334 19.3145 115.019 19.6505 114.785 20.0985C114.55 20.5358 114.433 21.0745 114.433 21.7145C114.433 22.6638 114.673 23.3998 115.153 23.9225C115.643 24.4345 116.257 24.6905 116.993 24.6905ZM122.764 21.6825C122.764 20.7972 122.945 20.0132 123.308 19.3305C123.681 18.6478 124.183 18.1198 124.812 17.7465C125.452 17.3625 126.156 17.1705 126.924 17.1705C127.617 17.1705 128.22 17.3092 128.732 17.5865C129.255 17.8532 129.671 18.1892 129.98 18.5945V17.3145H131.82V26.1305H129.98V24.8185C129.671 25.2345 129.249 25.5812 128.716 25.8585C128.183 26.1358 127.575 26.2745 126.892 26.2745C126.135 26.2745 125.441 26.0825 124.812 25.6985C124.183 25.3038 123.681 24.7598 123.308 24.0665C122.945 23.3625 122.764 22.5678 122.764 21.6825ZM129.98 21.7145C129.98 21.1065 129.852 20.5785 129.596 20.1305C129.351 19.6825 129.025 19.3412 128.62 19.1065C128.215 18.8718 127.777 18.7545 127.308 18.7545C126.839 18.7545 126.401 18.8718 125.996 19.1065C125.591 19.3305 125.26 19.6665 125.004 20.1145C124.759 20.5518 124.636 21.0745 124.636 21.6825C124.636 22.2905 124.759 22.8238 125.004 23.2825C125.26 23.7412 125.591 24.0932 125.996 24.3385C126.412 24.5732 126.849 24.6905 127.308 24.6905C127.777 24.6905 128.215 24.5732 128.62 24.3385C129.025 24.1038 129.351 23.7625 129.596 23.3145C129.852 22.8558 129.98 22.3225 129.98 21.7145ZM136.04 18.5945C136.306 18.1465 136.658 17.7998 137.096 17.5545C137.544 17.2985 138.072 17.1705 138.68 17.1705V19.0585H138.216C137.501 19.0585 136.957 19.2398 136.584 19.6025C136.221 19.9652 136.04 20.5945 136.04 21.4905V26.1305H134.216V17.3145H136.04V18.5945ZM139.748 21.6825C139.748 20.7972 139.93 20.0132 140.292 19.3305C140.666 18.6478 141.167 18.1198 141.796 17.7465C142.436 17.3625 143.146 17.1705 143.924 17.1705C144.5 17.1705 145.066 17.2985 145.62 17.5545C146.186 17.7998 146.634 18.1305 146.964 18.5465V14.2905H148.804V26.1305H146.964V24.8025C146.666 25.2292 146.25 25.5812 145.716 25.8585C145.194 26.1358 144.591 26.2745 143.908 26.2745C143.14 26.2745 142.436 26.0825 141.796 25.6985C141.167 25.3038 140.666 24.7598 140.292 24.0665C139.93 23.3625 139.748 22.5678 139.748 21.6825ZM146.964 21.7145C146.964 21.1065 146.836 20.5785 146.58 20.1305C146.335 19.6825 146.01 19.3412 145.604 19.1065C145.199 18.8718 144.762 18.7545 144.292 18.7545C143.823 18.7545 143.386 18.8718 142.98 19.1065C142.575 19.3305 142.244 19.6665 141.988 20.1145C141.743 20.5518 141.62 21.0745 141.62 21.6825C141.62 22.2905 141.743 22.8238 141.988 23.2825C142.244 23.7412 142.575 24.0932 142.98 24.3385C143.396 24.5732 143.834 24.6905 144.292 24.6905C144.762 24.6905 145.199 24.5732 145.604 24.3385C146.01 24.1038 146.335 23.7625 146.58 23.3145C146.836 22.8558 146.964 22.3225 146.964 21.7145Z" fill="white"/>
</svg>
