<svg width="195" height="41" viewBox="0 0 195 41" fill="none" xmlns="http://www.w3.org/2000/svg">
<path d="M44 15.1305H28C26.8954 15.1305 26 16.0259 26 17.1305V27.1305C26 28.2351 26.8954 29.1305 28 29.1305H44C45.1046 29.1305 46 28.2351 46 27.1305V17.1305C46 16.0259 45.1046 15.1305 44 15.1305Z" stroke="white" stroke-width="1.5" stroke-linecap="round" stroke-linejoin="round"/>
<path d="M40 29.1305V13.1305C40 12.6001 39.7893 12.0914 39.4142 11.7163C39.0391 11.3412 38.5304 11.1305 38 11.1305H34C33.4696 11.1305 32.9609 11.3412 32.5858 11.7163C32.2107 12.0914 32 12.6001 32 13.1305V29.1305" stroke="white" stroke-width="1.5" stroke-linecap="round" stroke-linejoin="round"/>
<path d="M67.904 23.8585H63.248L62.448 26.1305H60.544L64.528 14.9945H66.64L70.624 26.1305H68.704L67.904 23.8585ZM67.392 22.3705L65.584 17.2025L63.76 22.3705H67.392ZM75.8443 21.7305L79.9083 26.1305H77.4443L74.1803 22.3385V26.1305H72.3563V14.2905H74.1803V21.1705L77.3803 17.3145H79.9083L75.8443 21.7305ZM83.3436 18.8025V23.6825C83.3436 24.0132 83.4183 24.2532 83.5676 24.4025C83.7276 24.5412 83.9943 24.6105 84.3676 24.6105H85.4876V26.1305H84.0476C83.2263 26.1305 82.597 25.9385 82.1596 25.5545C81.7223 25.1705 81.5036 24.5465 81.5036 23.6825V18.8025H80.4636V17.3145H81.5036V15.1225H83.3436V17.3145H85.4876V18.8025H83.3436ZM88.0968 16.1465C87.7661 16.1465 87.4888 16.0345 87.2648 15.8105C87.0408 15.5865 86.9288 15.3092 86.9288 14.9785C86.9288 14.6478 87.0408 14.3705 87.2648 14.1465C87.4888 13.9225 87.7661 13.8105 88.0968 13.8105C88.4168 13.8105 88.6888 13.9225 88.9128 14.1465C89.1368 14.3705 89.2488 14.6478 89.2488 14.9785C89.2488 15.3092 89.1368 15.5865 88.9128 15.8105C88.6888 16.0345 88.4168 16.1465 88.0968 16.1465ZM88.9928 17.3145V26.1305H87.1688V17.3145H88.9928ZM94.7955 24.4985L97.2915 17.3145H99.2275L95.8675 26.1305H93.6915L90.3475 17.3145H92.2995L94.7955 24.4985ZM101.534 16.1465C101.204 16.1465 100.926 16.0345 100.702 15.8105C100.478 15.5865 100.366 15.3092 100.366 14.9785C100.366 14.6478 100.478 14.3705 100.702 14.1465C100.926 13.9225 101.204 13.8105 101.534 13.8105C101.854 13.8105 102.126 13.9225 102.35 14.1465C102.574 14.3705 102.686 14.6478 102.686 14.9785C102.686 15.3092 102.574 15.5865 102.35 15.8105C102.126 16.0345 101.854 16.1465 101.534 16.1465ZM102.43 17.3145V26.1305H100.606V17.3145H102.43ZM106.953 18.8025V23.6825C106.953 24.0132 107.028 24.2532 107.177 24.4025C107.337 24.5412 107.604 24.6105 107.977 24.6105H109.097V26.1305H107.657C106.836 26.1305 106.206 25.9385 105.769 25.5545C105.332 25.1705 105.113 24.5465 105.113 23.6825V18.8025H104.073V17.3145H105.113V15.1225H106.953V17.3145H109.097V18.8025H106.953ZM110.17 21.6825C110.17 20.7972 110.351 20.0132 110.714 19.3305C111.087 18.6478 111.589 18.1198 112.218 17.7465C112.858 17.3625 113.562 17.1705 114.33 17.1705C115.023 17.1705 115.626 17.3092 116.138 17.5865C116.661 17.8532 117.077 18.1892 117.386 18.5945V17.3145H119.226V26.1305H117.386V24.8185C117.077 25.2345 116.655 25.5812 116.122 25.8585C115.589 26.1358 114.981 26.2745 114.298 26.2745C113.541 26.2745 112.847 26.0825 112.218 25.6985C111.589 25.3038 111.087 24.7598 110.714 24.0665C110.351 23.3625 110.17 22.5678 110.17 21.6825ZM117.386 21.7145C117.386 21.1065 117.258 20.5785 117.002 20.1305C116.757 19.6825 116.431 19.3412 116.026 19.1065C115.621 18.8718 115.183 18.7545 114.714 18.7545C114.245 18.7545 113.807 18.8718 113.402 19.1065C112.997 19.3305 112.666 19.6665 112.41 20.1145C112.165 20.5518 112.042 21.0745 112.042 21.6825C112.042 22.2905 112.165 22.8238 112.41 23.2825C112.666 23.7412 112.997 24.0932 113.402 24.3385C113.818 24.5732 114.255 24.6905 114.714 24.6905C115.183 24.6905 115.621 24.5732 116.026 24.3385C116.431 24.1038 116.757 23.7625 117.002 23.3145C117.258 22.8558 117.386 22.3225 117.386 21.7145ZM124.822 26.2745C124.129 26.2745 123.505 26.1518 122.95 25.9065C122.406 25.6505 121.974 25.3092 121.654 24.8825C121.334 24.4452 121.163 23.9598 121.142 23.4265H123.03C123.062 23.7998 123.238 24.1145 123.558 24.3705C123.889 24.6158 124.299 24.7385 124.79 24.7385C125.302 24.7385 125.697 24.6425 125.974 24.4505C126.262 24.2478 126.406 23.9918 126.406 23.6825C126.406 23.3518 126.246 23.1065 125.926 22.9465C125.617 22.7865 125.121 22.6105 124.438 22.4185C123.777 22.2372 123.238 22.0612 122.822 21.8905C122.406 21.7198 122.043 21.4585 121.734 21.1065C121.435 20.7545 121.286 20.2905 121.286 19.7145C121.286 19.2452 121.425 18.8185 121.702 18.4345C121.979 18.0398 122.374 17.7305 122.886 17.5065C123.409 17.2825 124.006 17.1705 124.678 17.1705C125.681 17.1705 126.486 17.4265 127.094 17.9385C127.713 18.4398 128.043 19.1278 128.086 20.0025H126.262C126.23 19.6078 126.07 19.2932 125.782 19.0585C125.494 18.8238 125.105 18.7065 124.614 18.7065C124.134 18.7065 123.766 18.7972 123.51 18.9785C123.254 19.1598 123.126 19.3998 123.126 19.6985C123.126 19.9332 123.211 20.1305 123.382 20.2905C123.553 20.4505 123.761 20.5785 124.006 20.6745C124.251 20.7598 124.614 20.8718 125.094 21.0105C125.734 21.1812 126.257 21.3572 126.662 21.5385C127.078 21.7092 127.435 21.9652 127.734 22.3065C128.033 22.6478 128.187 23.1012 128.198 23.6665C128.198 24.1678 128.059 24.6158 127.782 25.0105C127.505 25.4052 127.11 25.7145 126.598 25.9385C126.097 26.1625 125.505 26.2745 124.822 26.2745Z" fill="white"/>
</svg>
