<svg width="273" height="394" viewBox="0 0 273 394" fill="none" xmlns="http://www.w3.org/2000/svg">
<path d="M20 26.1305C20 22.8168 22.6863 20.1305 26 20.1305H209C212.314 20.1305 215 22.8168 215 26.1305V54.1305C215 57.4442 212.314 60.1305 209 60.1305H26C22.6863 60.1305 20 57.4442 20 54.1305V26.1305Z" fill="#899CC4" fill-opacity="0.9"/>
<path d="M56 30.1305L47 37.1305V48.1305C47 48.6609 47.2107 49.1696 47.5858 49.5447C47.9609 49.9198 48.4696 50.1305 49 50.1305H63C63.5304 50.1305 64.0391 49.9198 64.4142 49.5447C64.7893 49.1696 65 48.6609 65 48.1305V37.1305L56 30.1305Z" stroke="white" stroke-width="1.5" stroke-linecap="round" stroke-linejoin="round"/>
<path d="M53 50.1305V40.1305H59V50.1305" stroke="white" stroke-width="1.5" stroke-linecap="round" stroke-linejoin="round"/>
<path d="M90.08 35.0105V46.1305H88.256V41.2665H83.024V46.1305H81.2V35.0105H83.024V39.7785H88.256V35.0105H90.08ZM96.3053 46.2745C95.4733 46.2745 94.7213 46.0878 94.0493 45.7145C93.3773 45.3305 92.8493 44.7972 92.4653 44.1145C92.0813 43.4212 91.8893 42.6212 91.8893 41.7145C91.8893 40.8185 92.0866 40.0238 92.4813 39.3305C92.8759 38.6372 93.4146 38.1038 94.0973 37.7305C94.7799 37.3572 95.5426 37.1705 96.3853 37.1705C97.2279 37.1705 97.9906 37.3572 98.6733 37.7305C99.3559 38.1038 99.8946 38.6372 100.289 39.3305C100.684 40.0238 100.881 40.8185 100.881 41.7145C100.881 42.6105 100.679 43.4052 100.273 44.0985C99.8679 44.7918 99.3133 45.3305 98.6093 45.7145C97.9159 46.0878 97.1479 46.2745 96.3053 46.2745ZM96.3053 44.6905C96.7746 44.6905 97.2119 44.5785 97.6173 44.3545C98.0333 44.1305 98.3693 43.7945 98.6253 43.3465C98.8813 42.8985 99.0093 42.3545 99.0093 41.7145C99.0093 41.0745 98.8866 40.5358 98.6413 40.0985C98.3959 39.6505 98.0706 39.3145 97.6653 39.0905C97.2599 38.8665 96.8226 38.7545 96.3533 38.7545C95.8839 38.7545 95.4466 38.8665 95.0413 39.0905C94.6466 39.3145 94.3319 39.6505 94.0973 40.0985C93.8626 40.5358 93.7453 41.0745 93.7453 41.7145C93.7453 42.6638 93.9853 43.3998 94.4653 43.9225C94.9559 44.4345 95.5693 44.6905 96.3053 44.6905ZM113.356 37.1705C114.05 37.1705 114.668 37.3145 115.212 37.6025C115.767 37.8905 116.199 38.3172 116.508 38.8825C116.828 39.4478 116.988 40.1305 116.988 40.9305V46.1305H115.18V41.2025C115.18 40.4132 114.983 39.8105 114.588 39.3945C114.194 38.9678 113.655 38.7545 112.972 38.7545C112.29 38.7545 111.746 38.9678 111.34 39.3945C110.946 39.8105 110.748 40.4132 110.748 41.2025V46.1305H108.94V41.2025C108.94 40.4132 108.743 39.8105 108.348 39.3945C107.954 38.9678 107.415 38.7545 106.732 38.7545C106.05 38.7545 105.506 38.9678 105.1 39.3945C104.706 39.8105 104.508 40.4132 104.508 41.2025V46.1305H102.684V37.3145H104.508V38.3225C104.807 37.9598 105.186 37.6772 105.644 37.4745C106.103 37.2718 106.594 37.1705 107.116 37.1705C107.82 37.1705 108.45 37.3198 109.004 37.6185C109.559 37.9172 109.986 38.3492 110.284 38.9145C110.551 38.3812 110.967 37.9598 111.532 37.6505C112.098 37.3305 112.706 37.1705 113.356 37.1705ZM127.389 41.5065C127.389 41.8372 127.368 42.1358 127.325 42.4025H120.589C120.643 43.1065 120.904 43.6718 121.373 44.0985C121.843 44.5252 122.419 44.7385 123.101 44.7385C124.083 44.7385 124.776 44.3278 125.181 43.5065H127.149C126.883 44.3172 126.397 44.9838 125.693 45.5065C125 46.0185 124.136 46.2745 123.101 46.2745C122.259 46.2745 121.501 46.0878 120.829 45.7145C120.168 45.3305 119.645 44.7972 119.261 44.1145C118.888 43.4212 118.701 42.6212 118.701 41.7145C118.701 40.8078 118.883 40.0132 119.245 39.3305C119.619 38.6372 120.136 38.1038 120.797 37.7305C121.469 37.3572 122.237 37.1705 123.101 37.1705C123.933 37.1705 124.675 37.3518 125.325 37.7145C125.976 38.0772 126.483 38.5892 126.845 39.2505C127.208 39.9012 127.389 40.6532 127.389 41.5065ZM125.485 40.9305C125.475 40.2585 125.235 39.7198 124.765 39.3145C124.296 38.9092 123.715 38.7065 123.021 38.7065C122.392 38.7065 121.853 38.9092 121.405 39.3145C120.957 39.7092 120.691 40.2478 120.605 40.9305H125.485Z" fill="white"/>
<path d="M64 95.1305H48C46.8954 95.1305 46 96.0259 46 97.1305V107.13C46 108.235 46.8954 109.13 48 109.13H64C65.1046 109.13 66 108.235 66 107.13V97.1305C66 96.0259 65.1046 95.1305 64 95.1305Z" stroke="white" stroke-width="1.5" stroke-linecap="round" stroke-linejoin="round"/>
<path d="M60 109.13V93.1305C60 92.6001 59.7893 92.0914 59.4142 91.7163C59.0391 91.3412 58.5304 91.1305 58 91.1305H54C53.4696 91.1305 52.9609 91.3412 52.5858 91.7163C52.2107 92.0914 52 92.6001 52 93.1305V109.13" stroke="white" stroke-width="1.5" stroke-linecap="round" stroke-linejoin="round"/>
<path d="M87.904 103.858H83.248L82.448 106.13H80.544L84.528 94.9945H86.64L90.624 106.13H88.704L87.904 103.858ZM87.392 102.37L85.584 97.2025L83.76 102.37H87.392ZM95.8443 101.73L99.9083 106.13H97.4443L94.1803 102.338V106.13H92.3563V94.2905H94.1803V101.17L97.3803 97.3145H99.9083L95.8443 101.73ZM103.344 98.8025V103.682C103.344 104.013 103.418 104.253 103.568 104.402C103.728 104.541 103.994 104.61 104.368 104.61H105.488V106.13H104.048C103.226 106.13 102.597 105.938 102.16 105.554C101.722 105.17 101.504 104.546 101.504 103.682V98.8025H100.464V97.3145H101.504V95.1225H103.344V97.3145H105.488V98.8025H103.344ZM108.097 96.1465C107.766 96.1465 107.489 96.0345 107.265 95.8105C107.041 95.5865 106.929 95.3092 106.929 94.9785C106.929 94.6478 107.041 94.3705 107.265 94.1465C107.489 93.9225 107.766 93.8105 108.097 93.8105C108.417 93.8105 108.689 93.9225 108.913 94.1465C109.137 94.3705 109.249 94.6478 109.249 94.9785C109.249 95.3092 109.137 95.5865 108.913 95.8105C108.689 96.0345 108.417 96.1465 108.097 96.1465ZM108.993 97.3145V106.13H107.169V97.3145H108.993ZM114.796 104.498L117.292 97.3145H119.227L115.868 106.13H113.692L110.348 97.3145H112.299L114.796 104.498ZM121.534 96.1465C121.204 96.1465 120.926 96.0345 120.702 95.8105C120.478 95.5865 120.366 95.3092 120.366 94.9785C120.366 94.6478 120.478 94.3705 120.702 94.1465C120.926 93.9225 121.204 93.8105 121.534 93.8105C121.854 93.8105 122.126 93.9225 122.35 94.1465C122.574 94.3705 122.686 94.6478 122.686 94.9785C122.686 95.3092 122.574 95.5865 122.35 95.8105C122.126 96.0345 121.854 96.1465 121.534 96.1465ZM122.43 97.3145V106.13H120.606V97.3145H122.43ZM126.953 98.8025V103.682C126.953 104.013 127.028 104.253 127.177 104.402C127.337 104.541 127.604 104.61 127.977 104.61H129.097V106.13H127.657C126.836 106.13 126.206 105.938 125.769 105.554C125.332 105.17 125.113 104.546 125.113 103.682V98.8025H124.073V97.3145H125.113V95.1225H126.953V97.3145H129.097V98.8025H126.953ZM130.17 101.682C130.17 100.797 130.351 100.013 130.714 99.3305C131.087 98.6478 131.589 98.1198 132.218 97.7465C132.858 97.3625 133.562 97.1705 134.33 97.1705C135.023 97.1705 135.626 97.3092 136.138 97.5865C136.661 97.8532 137.077 98.1892 137.386 98.5945V97.3145H139.226V106.13H137.386V104.818C137.077 105.234 136.655 105.581 136.122 105.858C135.589 106.136 134.981 106.274 134.298 106.274C133.541 106.274 132.847 106.082 132.218 105.698C131.589 105.304 131.087 104.76 130.714 104.066C130.351 103.362 130.17 102.568 130.17 101.682ZM137.386 101.714C137.386 101.106 137.258 100.578 137.002 100.13C136.757 99.6825 136.431 99.3412 136.026 99.1065C135.621 98.8718 135.183 98.7545 134.714 98.7545C134.245 98.7545 133.807 98.8718 133.402 99.1065C132.997 99.3305 132.666 99.6665 132.41 100.114C132.165 100.552 132.042 101.074 132.042 101.682C132.042 102.29 132.165 102.824 132.41 103.282C132.666 103.741 132.997 104.093 133.402 104.338C133.818 104.573 134.255 104.69 134.714 104.69C135.183 104.69 135.621 104.573 136.026 104.338C136.431 104.104 136.757 103.762 137.002 103.314C137.258 102.856 137.386 102.322 137.386 101.714ZM144.822 106.274C144.129 106.274 143.505 106.152 142.95 105.906C142.406 105.65 141.974 105.309 141.654 104.882C141.334 104.445 141.163 103.96 141.142 103.426H143.03C143.062 103.8 143.238 104.114 143.558 104.37C143.889 104.616 144.299 104.738 144.79 104.738C145.302 104.738 145.697 104.642 145.974 104.45C146.262 104.248 146.406 103.992 146.406 103.682C146.406 103.352 146.246 103.106 145.926 102.946C145.617 102.786 145.121 102.61 144.438 102.418C143.777 102.237 143.238 102.061 142.822 101.89C142.406 101.72 142.043 101.458 141.734 101.106C141.435 100.754 141.286 100.29 141.286 99.7145C141.286 99.2452 141.425 98.8185 141.702 98.4345C141.979 98.0398 142.374 97.7305 142.886 97.5065C143.409 97.2825 144.006 97.1705 144.678 97.1705C145.681 97.1705 146.486 97.4265 147.094 97.9385C147.713 98.4398 148.043 99.1278 148.086 100.002H146.262C146.23 99.6078 146.07 99.2932 145.782 99.0585C145.494 98.8238 145.105 98.7065 144.614 98.7065C144.134 98.7065 143.766 98.7972 143.51 98.9785C143.254 99.1598 143.126 99.3998 143.126 99.6985C143.126 99.9332 143.211 100.13 143.382 100.29C143.553 100.45 143.761 100.578 144.006 100.674C144.251 100.76 144.614 100.872 145.094 101.01C145.734 101.181 146.257 101.357 146.662 101.538C147.078 101.709 147.435 101.965 147.734 102.306C148.033 102.648 148.187 103.101 148.198 103.666C148.198 104.168 148.059 104.616 147.782 105.01C147.505 105.405 147.11 105.714 146.598 105.938C146.097 106.162 145.505 106.274 144.822 106.274Z" fill="white"/>
<path d="M63 152.13H49C47.8954 152.13 47 153.026 47 154.13V168.13C47 169.235 47.8954 170.13 49 170.13H63C64.1046 170.13 65 169.235 65 168.13V154.13C65 153.026 64.1046 152.13 63 152.13Z" stroke="white" stroke-width="1.5" stroke-linecap="round" stroke-linejoin="round"/>
<path d="M60 150.13V154.13" stroke="white" stroke-width="1.5" stroke-linecap="round" stroke-linejoin="round"/>
<path d="M52 150.13V154.13" stroke="white" stroke-width="1.5" stroke-linecap="round" stroke-linejoin="round"/>
<path d="M47 158.13H65" stroke="white" stroke-width="1.5" stroke-linecap="round" stroke-linejoin="round"/>
<path d="M87.328 166.13L83.024 161.154V166.13H81.2V155.01H83.024V160.082L87.344 155.01H89.632L84.8 160.578L89.712 166.13H87.328ZM90.717 161.682C90.717 160.797 90.8983 160.013 91.261 159.33C91.6343 158.648 92.1357 158.12 92.765 157.746C93.405 157.362 94.109 157.17 94.877 157.17C95.5703 157.17 96.173 157.309 96.685 157.586C97.2077 157.853 97.6237 158.189 97.933 158.594V157.314H99.773V166.13H97.933V164.818C97.6237 165.234 97.2023 165.581 96.669 165.858C96.1357 166.136 95.5277 166.274 94.845 166.274C94.0877 166.274 93.3943 166.082 92.765 165.698C92.1357 165.304 91.6343 164.76 91.261 164.066C90.8983 163.362 90.717 162.568 90.717 161.682ZM97.933 161.714C97.933 161.106 97.805 160.578 97.549 160.13C97.3037 159.682 96.9783 159.341 96.573 159.106C96.1677 158.872 95.7303 158.754 95.261 158.754C94.7917 158.754 94.3543 158.872 93.949 159.106C93.5437 159.33 93.213 159.666 92.957 160.114C92.7117 160.552 92.589 161.074 92.589 161.682C92.589 162.29 92.7117 162.824 92.957 163.282C93.213 163.741 93.5437 164.093 93.949 164.338C94.365 164.573 94.8023 164.69 95.261 164.69C95.7303 164.69 96.1677 164.573 96.573 164.338C96.9783 164.104 97.3037 163.762 97.549 163.314C97.805 162.856 97.933 162.322 97.933 161.714ZM103.993 154.29V166.13H102.169V154.29H103.993ZM114.468 161.506C114.468 161.837 114.446 162.136 114.404 162.402H107.668C107.721 163.106 107.982 163.672 108.452 164.098C108.921 164.525 109.497 164.738 110.18 164.738C111.161 164.738 111.854 164.328 112.26 163.506H114.227C113.961 164.317 113.476 164.984 112.772 165.506C112.078 166.018 111.214 166.274 110.18 166.274C109.337 166.274 108.58 166.088 107.908 165.714C107.246 165.33 106.724 164.797 106.34 164.114C105.966 163.421 105.78 162.621 105.78 161.714C105.78 160.808 105.961 160.013 106.324 159.33C106.697 158.637 107.214 158.104 107.876 157.73C108.548 157.357 109.316 157.17 110.18 157.17C111.012 157.17 111.753 157.352 112.404 157.714C113.054 158.077 113.561 158.589 113.924 159.25C114.286 159.901 114.468 160.653 114.468 161.506ZM112.564 160.93C112.553 160.258 112.313 159.72 111.844 159.314C111.374 158.909 110.793 158.706 110.1 158.706C109.47 158.706 108.932 158.909 108.484 159.314C108.036 159.709 107.769 160.248 107.684 160.93H112.564ZM120.711 157.17C121.404 157.17 122.023 157.314 122.567 157.602C123.121 157.89 123.553 158.317 123.863 158.882C124.172 159.448 124.327 160.13 124.327 160.93V166.13H122.519V161.202C122.519 160.413 122.321 159.81 121.927 159.394C121.532 158.968 120.993 158.754 120.311 158.754C119.628 158.754 119.084 158.968 118.679 159.394C118.284 159.81 118.087 160.413 118.087 161.202V166.13H116.263V157.314H118.087V158.322C118.385 157.96 118.764 157.677 119.223 157.474C119.692 157.272 120.188 157.17 120.711 157.17ZM126.045 161.682C126.045 160.797 126.226 160.013 126.589 159.33C126.962 158.648 127.464 158.12 128.093 157.746C128.733 157.362 129.442 157.17 130.221 157.17C130.797 157.17 131.362 157.298 131.917 157.554C132.482 157.8 132.93 158.13 133.261 158.546V154.29H135.101V166.13H133.261V164.802C132.962 165.229 132.546 165.581 132.013 165.858C131.49 166.136 130.888 166.274 130.205 166.274C129.437 166.274 128.733 166.082 128.093 165.698C127.464 165.304 126.962 164.76 126.589 164.066C126.226 163.362 126.045 162.568 126.045 161.682ZM133.261 161.714C133.261 161.106 133.133 160.578 132.877 160.13C132.632 159.682 132.306 159.341 131.901 159.106C131.496 158.872 131.058 158.754 130.589 158.754C130.12 158.754 129.682 158.872 129.277 159.106C128.872 159.33 128.541 159.666 128.285 160.114C128.04 160.552 127.917 161.074 127.917 161.682C127.917 162.29 128.04 162.824 128.285 163.282C128.541 163.741 128.872 164.093 129.277 164.338C129.693 164.573 130.13 164.69 130.589 164.69C131.058 164.69 131.496 164.573 131.901 164.338C132.306 164.104 132.632 163.762 132.877 163.314C133.133 162.856 133.261 162.322 133.261 161.714ZM145.577 161.506C145.577 161.837 145.556 162.136 145.513 162.402H138.777C138.83 163.106 139.092 163.672 139.561 164.098C140.03 164.525 140.606 164.738 141.289 164.738C142.27 164.738 142.964 164.328 143.369 163.506H145.337C145.07 164.317 144.585 164.984 143.881 165.506C143.188 166.018 142.324 166.274 141.289 166.274C140.446 166.274 139.689 166.088 139.017 165.714C138.356 165.33 137.833 164.797 137.449 164.114C137.076 163.421 136.889 162.621 136.889 161.714C136.889 160.808 137.07 160.013 137.433 159.33C137.806 158.637 138.324 158.104 138.985 157.73C139.657 157.357 140.425 157.17 141.289 157.17C142.121 157.17 142.862 157.352 143.513 157.714C144.164 158.077 144.67 158.589 145.033 159.25C145.396 159.901 145.577 160.653 145.577 161.506ZM143.673 160.93C143.662 160.258 143.422 159.72 142.953 159.314C142.484 158.909 141.902 158.706 141.209 158.706C140.58 158.706 140.041 158.909 139.593 159.314C139.145 159.709 138.878 160.248 138.793 160.93H143.673ZM149.196 158.594C149.463 158.146 149.815 157.8 150.252 157.554C150.7 157.298 151.228 157.17 151.836 157.17V159.058H151.372C150.657 159.058 150.113 159.24 149.74 159.602C149.377 159.965 149.196 160.594 149.196 161.49V166.13H147.372V157.314H149.196V158.594Z" fill="white"/>
<path d="M50 210.13H58L64 216.13V228.13C64 228.661 63.7893 229.17 63.4142 229.545C63.0391 229.92 62.5304 230.13 62 230.13H50C49.4696 230.13 48.9609 229.92 48.5858 229.545C48.2107 229.17 48 228.661 48 228.13V212.13C48 211.6 48.2107 211.091 48.5858 210.716C48.9609 210.341 49.4696 210.13 50 210.13Z" stroke="white" stroke-width="1.5" stroke-linecap="round" stroke-linejoin="round"/>
<path d="M58 210.13V216.13H64" stroke="white" stroke-width="1.5" stroke-linecap="round" stroke-linejoin="round"/>
<path d="M60 221.13H52" stroke="white" stroke-width="1.5" stroke-linecap="round" stroke-linejoin="round"/>
<path d="M60 225.13H52" stroke="white" stroke-width="1.5" stroke-linecap="round" stroke-linejoin="round"/>
<path d="M54 217.13H53H52" stroke="white" stroke-width="1.5" stroke-linecap="round" stroke-linejoin="round"/>
<path d="M83.024 224.658H86.784V226.13H81.2V215.01H83.024V224.658ZM87.7014 221.682C87.7014 220.797 87.8827 220.013 88.2454 219.33C88.6187 218.648 89.12 218.12 89.7494 217.746C90.3894 217.362 91.0934 217.17 91.8614 217.17C92.5547 217.17 93.1574 217.309 93.6694 217.586C94.192 217.853 94.608 218.189 94.9174 218.594V217.314H96.7574V226.13H94.9174V224.818C94.608 225.234 94.1867 225.581 93.6534 225.858C93.12 226.136 92.512 226.274 91.8294 226.274C91.072 226.274 90.3787 226.082 89.7494 225.698C89.12 225.304 88.6187 224.76 88.2454 224.066C87.8827 223.362 87.7014 222.568 87.7014 221.682ZM94.9174 221.714C94.9174 221.106 94.7894 220.578 94.5334 220.13C94.288 219.682 93.9627 219.341 93.5574 219.106C93.152 218.872 92.7147 218.754 92.2454 218.754C91.776 218.754 91.3387 218.872 90.9334 219.106C90.528 219.33 90.1974 219.666 89.9414 220.114C89.696 220.552 89.5734 221.074 89.5734 221.682C89.5734 222.29 89.696 222.824 89.9414 223.282C90.1974 223.741 90.528 224.093 90.9334 224.338C91.3494 224.573 91.7867 224.69 92.2454 224.69C92.7147 224.69 93.152 224.573 93.5574 224.338C93.9627 224.104 94.288 223.762 94.5334 223.314C94.7894 222.856 94.9174 222.322 94.9174 221.714ZM100.977 218.61C101.286 218.205 101.708 217.864 102.241 217.586C102.774 217.309 103.377 217.17 104.049 217.17C104.817 217.17 105.516 217.362 106.145 217.746C106.785 218.12 107.286 218.648 107.649 219.33C108.012 220.013 108.193 220.797 108.193 221.682C108.193 222.568 108.012 223.362 107.649 224.066C107.286 224.76 106.785 225.304 106.145 225.698C105.516 226.082 104.817 226.274 104.049 226.274C103.377 226.274 102.78 226.141 102.257 225.874C101.734 225.597 101.308 225.256 100.977 224.85V230.322H99.1531V217.314H100.977V218.61ZM106.337 221.682C106.337 221.074 106.209 220.552 105.953 220.114C105.708 219.666 105.377 219.33 104.961 219.106C104.556 218.872 104.118 218.754 103.649 218.754C103.19 218.754 102.753 218.872 102.337 219.106C101.932 219.341 101.601 219.682 101.345 220.13C101.1 220.578 100.977 221.106 100.977 221.714C100.977 222.322 101.1 222.856 101.345 223.314C101.601 223.762 101.932 224.104 102.337 224.338C102.753 224.573 103.19 224.69 103.649 224.69C104.118 224.69 104.556 224.573 104.961 224.338C105.377 224.093 105.708 223.741 105.953 223.282C106.209 222.824 106.337 222.29 106.337 221.682ZM113.821 226.274C112.989 226.274 112.237 226.088 111.565 225.714C110.893 225.33 110.365 224.797 109.981 224.114C109.597 223.421 109.405 222.621 109.405 221.714C109.405 220.818 109.602 220.024 109.997 219.33C110.392 218.637 110.93 218.104 111.613 217.73C112.296 217.357 113.058 217.17 113.901 217.17C114.744 217.17 115.506 217.357 116.189 217.73C116.872 218.104 117.41 218.637 117.805 219.33C118.2 220.024 118.397 220.818 118.397 221.714C118.397 222.61 118.194 223.405 117.789 224.098C117.384 224.792 116.829 225.33 116.125 225.714C115.432 226.088 114.664 226.274 113.821 226.274ZM113.821 224.69C114.29 224.69 114.728 224.578 115.133 224.354C115.549 224.13 115.885 223.794 116.141 223.346C116.397 222.898 116.525 222.354 116.525 221.714C116.525 221.074 116.402 220.536 116.157 220.098C115.912 219.65 115.586 219.314 115.181 219.09C114.776 218.866 114.338 218.754 113.869 218.754C113.4 218.754 112.962 218.866 112.557 219.09C112.162 219.314 111.848 219.65 111.613 220.098C111.378 220.536 111.261 221.074 111.261 221.714C111.261 222.664 111.501 223.4 111.981 223.922C112.472 224.434 113.085 224.69 113.821 224.69ZM122.024 218.594C122.291 218.146 122.643 217.8 123.08 217.554C123.528 217.298 124.056 217.17 124.664 217.17V219.058H124.2C123.485 219.058 122.941 219.24 122.568 219.602C122.205 219.965 122.024 220.594 122.024 221.49V226.13H120.2V217.314H122.024V218.594ZM125.733 221.682C125.733 220.797 125.914 220.013 126.277 219.33C126.65 218.648 127.151 218.12 127.781 217.746C128.421 217.362 129.125 217.17 129.893 217.17C130.586 217.17 131.189 217.309 131.701 217.586C132.223 217.853 132.639 218.189 132.949 218.594V217.314H134.789V226.13H132.949V224.818C132.639 225.234 132.218 225.581 131.685 225.858C131.151 226.136 130.543 226.274 129.861 226.274C129.103 226.274 128.41 226.082 127.781 225.698C127.151 225.304 126.65 224.76 126.277 224.066C125.914 223.362 125.733 222.568 125.733 221.682ZM132.949 221.714C132.949 221.106 132.821 220.578 132.565 220.13C132.319 219.682 131.994 219.341 131.589 219.106C131.183 218.872 130.746 218.754 130.277 218.754C129.807 218.754 129.37 218.872 128.965 219.106C128.559 219.33 128.229 219.666 127.973 220.114C127.727 220.552 127.605 221.074 127.605 221.682C127.605 222.29 127.727 222.824 127.973 223.282C128.229 223.741 128.559 224.093 128.965 224.338C129.381 224.573 129.818 224.69 130.277 224.69C130.746 224.69 131.183 224.573 131.589 224.338C131.994 224.104 132.319 223.762 132.565 223.314C132.821 222.856 132.949 222.322 132.949 221.714ZM141.632 217.17C142.326 217.17 142.944 217.314 143.488 217.602C144.043 217.89 144.475 218.317 144.784 218.882C145.094 219.448 145.248 220.13 145.248 220.93V226.13H143.44V221.202C143.44 220.413 143.243 219.81 142.848 219.394C142.454 218.968 141.915 218.754 141.232 218.754C140.55 218.754 140.006 218.968 139.6 219.394C139.206 219.81 139.008 220.413 139.008 221.202V226.13H137.184V217.314H139.008V218.322C139.307 217.96 139.686 217.677 140.144 217.474C140.614 217.272 141.11 217.17 141.632 217.17Z" fill="white"/>
</svg>
